<svg width="301" height="363" viewBox="0 0 301 363" fill="none" xmlns="http://www.w3.org/2000/svg">
<path opacity="0.64" d="M150.5 362.211C233.619 362.211 301 348.642 301 331.904C301 315.167 233.619 301.598 150.5 301.598C67.3811 301.598 0 315.167 0 331.904C0 348.642 67.3811 362.211 150.5 362.211Z" fill="#C8C8C8"/>
<path d="M78.3591 326.995C80.4964 320.162 86.9467 316.478 97.4399 313.43C104.124 311.488 112.562 310.617 125.773 307.938C132.218 306.632 136.761 304.12 136.761 304.12V311.449C136.761 311.449 92.8997 320.106 86.0749 331.45C82.7425 336.989 83.7686 350.627 99.4319 352.03C94.6484 352.729 86.7598 351.522 82.5294 347.235C77.2863 341.923 75.8992 334.86 78.3591 326.995Z" fill="#282323" stroke="black" stroke-width="4" stroke-miterlimit="10" stroke-linecap="round" stroke-linejoin="round"/>
<path d="M136.761 311.449C136.761 311.449 110.502 316.313 96.5048 322.35C84.2053 327.654 84.5753 333.137 84.2635 338.773C84.0837 342.026 86.3688 350.114 95.7194 351.495C106.851 353.141 120.002 351.381 136.761 340.697C136.761 314.558 136.761 311.449 136.761 311.449Z" fill="#442C2A"/>
<path opacity="0.37" d="M84.2635 338.773C84.5157 334.214 84.3243 329.754 90.7554 325.407C90.4712 326.982 90.4373 328.569 90.349 330.169C90.1691 333.422 98.0199 329.184 107.371 330.566C117.119 332.006 122.85 343.162 136.761 335.674C136.761 337.248 136.761 338.915 136.761 340.697C120.002 351.381 106.851 353.14 95.7194 351.496C86.3688 350.115 84.0837 342.026 84.2635 338.773Z" fill="#442C2A"/>
<path d="M136.761 311.449C136.761 311.449 110.502 316.313 96.5048 322.35C84.2053 327.654 84.5753 333.137 84.2635 338.773C84.0837 342.026 86.3688 350.114 95.7194 351.495C106.851 353.141 120.002 351.381 136.761 340.697C136.761 314.558 136.761 311.449 136.761 311.449Z" stroke="black" stroke-width="4" stroke-miterlimit="10" stroke-linecap="round" stroke-linejoin="round"/>
<path d="M112.47 326.507C110.365 327.663 110.878 338.831 115.996 340.394" stroke="black" stroke-width="4" stroke-miterlimit="10" stroke-linecap="round" stroke-linejoin="round"/>
<path d="M120.46 325.697C118.272 328.777 119.843 335.976 123.693 337.783" stroke="black" stroke-width="4" stroke-miterlimit="10" stroke-linecap="round" stroke-linejoin="round"/>
<path d="M127.814 323.136C125.625 326.216 127.197 333.414 131.046 335.222" stroke="black" stroke-width="4" stroke-miterlimit="10" stroke-linecap="round" stroke-linejoin="round"/>
<path d="M203.367 289.962C189.554 299.553 169.872 305.055 149.369 305.055C128.866 305.055 109.185 299.553 95.3715 289.962C89.0274 285.556 78.3857 276.332 78.3857 264.043C78.3857 251.753 89.0281 242.529 95.3715 238.124C109.185 228.532 128.866 223.03 149.369 223.03C169.872 223.03 189.554 228.532 203.367 238.124C209.712 242.529 220.353 251.753 220.353 264.043C220.353 276.332 209.711 285.556 203.367 289.962Z" fill="#151E28"/>
<path d="M266.624 274.25C266.374 275.511 266.08 276.766 265.74 278.007C255.781 314.448 207.619 342.081 149.709 342.081C91.6457 342.081 43.3821 314.301 33.5949 277.726C33.3197 276.702 33.0765 275.677 32.8716 274.64C32.5964 272.746 32.654 270.825 33.0765 268.911C35.464 258.177 48.5285 251.955 62.2523 255.008C71.2777 257.018 78.3508 262.536 81.4489 269.136C81.7882 270.569 82.2555 271.952 82.8251 273.277C86.1281 280.945 92.8363 286.719 97.3234 289.939C110.727 299.528 129.815 305.032 149.709 305.032C169.597 305.032 188.691 299.528 202.089 289.939C206.602 286.7 213.361 280.875 216.645 273.143C217.17 271.901 217.605 270.614 217.931 269.276C220.991 262.619 228.09 257.031 237.186 255.008C250.916 251.955 263.974 258.177 266.361 268.911C266.759 270.691 266.836 272.483 266.624 274.25Z" fill="#2A3749"/>
<path opacity="0.67" d="M266.362 268.912C266.295 268.613 266.217 268.318 266.134 268.026C265.914 269.072 265.67 270.116 265.389 271.148C255.429 307.589 207.267 335.222 149.357 335.222C91.2938 335.222 43.0302 307.442 33.2431 270.866C33.1368 270.471 33.0401 270.076 32.9435 269.68C32.6618 271.338 32.6337 272.999 32.8718 274.64C33.0766 275.677 33.3199 276.701 33.5951 277.725C43.3822 314.3 91.6459 342.081 149.71 342.081C207.619 342.081 255.781 314.448 265.741 278.007C266.08 276.765 266.374 275.51 266.624 274.249C266.835 272.483 266.758 270.691 266.362 268.912Z" fill="#151E28"/>
<path d="M266.624 274.25C266.374 275.511 266.08 276.766 265.741 278.007C255.781 314.448 207.619 342.081 149.709 342.081C91.6457 342.081 43.3821 314.301 33.5949 277.726C33.3197 276.702 33.0765 275.677 32.8716 274.64C32.5964 272.746 32.654 270.825 33.0765 268.911C35.464 258.177 48.5285 251.955 62.2523 255.008C71.2777 257.018 78.3508 262.536 81.4489 269.136C81.7882 270.569 82.2555 271.952 82.8251 273.277C86.1281 280.945 92.8363 286.719 97.3234 289.939C110.727 299.528 129.815 305.032 149.709 305.032C169.597 305.032 188.691 299.528 202.089 289.939C206.602 286.7 213.361 280.875 216.645 273.143C217.17 271.901 217.605 270.614 217.931 269.276C220.991 262.619 228.09 257.031 237.186 255.008C250.916 251.955 263.974 258.177 266.361 268.911C266.759 270.691 266.836 272.483 266.624 274.25Z" stroke="black" stroke-width="4" stroke-miterlimit="10" stroke-linecap="round" stroke-linejoin="round"/>
<path d="M150.499 285.572C182.369 285.572 208.204 276.793 208.204 265.963C208.204 255.134 182.369 246.354 150.499 246.354C118.63 246.354 92.7949 255.134 92.7949 265.963C92.7949 276.793 118.63 285.572 150.499 285.572Z" fill="#2B6CB0"/>
<path d="M150.499 285.572C182.369 285.572 208.204 276.793 208.204 265.963C208.204 255.134 182.369 246.354 150.499 246.354C118.63 246.354 92.7949 255.134 92.7949 265.963C92.7949 276.793 118.63 285.572 150.499 285.572Z" stroke="black" stroke-width="4" stroke-miterlimit="10" stroke-linecap="round" stroke-linejoin="round"/>
<path d="M216.175 223.213H83.2426C73.079 223.213 65.2154 214.306 66.4745 204.221L72.348 157.186C74.0238 143.767 85.4304 133.696 98.9538 133.696H200.464C213.988 133.696 225.394 143.766 227.07 157.186L232.944 204.221C234.202 214.306 226.339 223.213 216.175 223.213Z" fill="#F1534D"/>
<path d="M216.175 223.213H83.2426C73.079 223.213 65.2154 214.306 66.4745 204.221L72.348 157.186C74.0238 143.767 85.4304 133.696 98.9538 133.696H200.464C213.988 133.696 225.394 143.766 227.07 157.186L232.944 204.221C234.202 214.306 226.339 223.213 216.175 223.213Z" stroke="black" stroke-width="4" stroke-miterlimit="10" stroke-linecap="round" stroke-linejoin="round"/>
<path d="M97.672 173.423L96.4033 189.447" stroke="black" stroke-width="4" stroke-miterlimit="10" stroke-linecap="round" stroke-linejoin="round"/>
<path d="M202.69 173.423L203.959 189.447" stroke="black" stroke-width="4" stroke-miterlimit="10" stroke-linecap="round" stroke-linejoin="round"/>
<path d="M216.175 223.213H83.2426C73.079 223.213 65.2154 214.306 66.4745 204.222L72.348 157.186C74.0238 143.767 85.4304 133.696 98.9538 133.696H200.464C213.988 133.696 225.394 143.767 227.07 157.186L232.944 204.222C234.202 214.306 226.339 223.213 216.175 223.213Z" fill="#63B3ED"/>
<g opacity="0.24">
<path opacity="0.24" d="M72.348 162.152C74.0238 148.733 85.4304 138.662 98.9538 138.662H200.464C213.988 138.662 225.394 148.733 227.07 162.152L232.895 208.802C233.113 207.322 233.139 205.786 232.943 204.221L227.069 157.185C225.394 143.766 213.987 133.695 200.464 133.695H98.9544C85.431 133.695 74.0244 143.766 72.3486 157.185L66.475 204.221C66.2798 205.786 66.3048 207.323 66.5231 208.802L72.348 162.152Z" fill="#9B2121"/>
<path opacity="0.24" d="M104.862 138.663C104.862 138.663 112.728 140.042 113.406 144.432C113.945 147.922 113.855 150.28 115.228 151.653C116.601 153.027 119.738 155.917 126.061 155.917C122.521 152.378 122.452 140.043 121.531 140.043C120.611 140.043 118.326 133.906 118.326 133.906L115.228 132.5C115.228 132.499 103.895 133.919 104.862 138.663Z" fill="#9B2121"/>
<path opacity="0.24" d="M188.927 138.663C188.927 138.663 181.061 140.042 180.383 144.432C179.844 147.922 179.934 150.28 178.561 151.653C177.187 153.027 174.051 155.917 167.729 155.917C171.268 152.378 171.337 140.043 172.258 140.043C173.178 140.043 175.463 133.906 175.463 133.906L178.561 132.5C178.561 132.499 189.893 133.919 188.927 138.663Z" fill="#9B2121"/>
</g>
<path d="M216.175 223.213H83.2426C73.079 223.213 65.2154 214.306 66.4745 204.222L72.348 157.186C74.0238 143.767 85.4304 133.696 98.9538 133.696H200.464C213.988 133.696 225.394 143.767 227.07 157.186L232.944 204.222C234.202 214.306 226.339 223.213 216.175 223.213Z" stroke="black" stroke-width="4" stroke-miterlimit="10" stroke-linecap="round" stroke-linejoin="round"/>
<path d="M97.672 173.423L96.4033 189.447" stroke="black" stroke-width="4" stroke-miterlimit="10" stroke-linecap="round" stroke-linejoin="round"/>
<path d="M202.69 173.423L203.959 189.447" stroke="black" stroke-width="4" stroke-miterlimit="10" stroke-linecap="round" stroke-linejoin="round"/>
<path d="M132.615 106.888L111.55 105.784L101.712 106.888C101.712 106.888 95.0889 111.805 95.0889 113.163C95.0889 114.52 95.7392 125.48 95.7392 125.48C95.7392 125.48 111.299 127.562 112.94 129.202C114.581 130.843 124.482 140.042 124.482 140.042L134.042 136.333L139.036 123.019L132.615 106.888Z" fill="#2B6CB0"/>
<path d="M128.915 98.7371H104.62C94.8031 98.7371 86.8447 106.695 86.8447 116.512C86.8447 126.329 94.8031 134.287 104.62 134.287H107.821C112.979 134.287 117.162 138.469 117.162 143.628V144.6C117.162 150.82 122.204 155.862 128.424 155.862V144.34C128.568 144.34 128.684 144.457 128.684 144.6V143.627C128.684 132.123 119.325 122.765 107.821 122.765H104.62C101.172 122.765 98.3672 119.959 98.3672 116.511C98.3672 113.063 101.172 110.258 104.62 110.258H128.916L128.915 98.7371Z" fill="#63B3ED"/>
<path d="M127.404 136.432C124.467 128.463 116.797 122.766 107.821 122.766H104.62C101.171 122.766 98.3666 119.96 98.3666 116.512C98.3666 113.064 101.171 110.259 104.62 110.259H128.915V98.7371H104.62C94.8031 98.7371 86.8447 106.695 86.8447 116.512C86.8447 126.329 94.8031 134.287 104.62 134.287H107.821C112.979 134.287 117.162 138.469 117.162 143.628V144.6C117.162 150.82 122.204 155.862 128.424 155.862" stroke="black" stroke-width="4" stroke-miterlimit="10" stroke-linecap="round" stroke-linejoin="round"/>
<path d="M160.479 106.888L181.545 105.784L191.383 106.888C191.383 106.888 198.006 111.805 198.006 113.163C198.006 114.52 197.356 125.48 197.356 125.48C197.356 125.48 181.796 127.562 180.155 129.202C178.514 130.844 168.613 140.042 168.613 140.042L159.053 136.333L154.059 123.019L160.479 106.888Z" fill="#2B6CB0"/>
<path d="M164.18 98.7371H188.475C198.292 98.7371 206.25 106.695 206.25 116.512C206.25 126.329 198.292 134.287 188.475 134.287H185.274C180.116 134.287 175.933 138.469 175.933 143.628V144.6C175.933 150.82 170.891 155.862 164.671 155.862V144.34C164.528 144.34 164.412 144.457 164.412 144.6V143.627C164.412 132.123 173.771 122.765 185.274 122.765H188.475C191.924 122.765 194.729 119.959 194.729 116.511C194.729 113.063 191.924 110.258 188.475 110.258H164.18V98.7371Z" fill="#63B3ED"/>
<path d="M165.691 136.432C168.628 128.463 176.298 122.766 185.274 122.766H188.475C191.924 122.766 194.729 119.96 194.729 116.512C194.729 113.064 191.924 110.259 188.475 110.259H164.18V98.7371H188.475C198.292 98.7371 206.25 106.695 206.25 116.512C206.25 126.329 198.292 134.287 188.475 134.287H185.274C180.116 134.287 175.933 138.469 175.933 143.628V144.6C175.933 150.82 170.891 155.862 164.671 155.862" stroke="black" stroke-width="4" stroke-miterlimit="10" stroke-linecap="round" stroke-linejoin="round"/>
<path d="M147.734 146.8C161.522 146.8 172.698 135.623 172.698 121.836C172.698 108.049 161.522 96.8723 147.734 96.8723C133.947 96.8723 122.771 108.049 122.771 121.836C122.771 135.623 133.947 146.8 147.734 146.8Z" fill="#63B3ED"/>
<path d="M123.866 114.509C130.757 118.947 138.947 121.534 147.735 121.534C156.523 121.534 164.713 118.947 171.604 114.509C168.472 104.298 158.972 96.8733 147.735 96.8733C136.498 96.8727 126.998 104.298 123.866 114.509Z" fill="#63B3ED"/>
<path d="M147.734 146.8C161.522 146.8 172.698 135.623 172.698 121.836C172.698 108.049 161.522 96.8723 147.734 96.8723C133.947 96.8723 122.771 108.049 122.771 121.836C122.771 135.623 133.947 146.8 147.734 146.8Z" stroke="black" stroke-width="4" stroke-miterlimit="10" stroke-linecap="round" stroke-linejoin="round"/>
<path d="M147.735 136.332C139.604 136.332 133.013 129.741 133.013 121.61V110.573C133.013 108.538 134.663 106.888 136.698 106.888H158.772C160.808 106.888 162.458 108.538 162.458 110.573V121.61C162.457 129.741 155.866 136.332 147.735 136.332Z" fill="#FFC897"/>
<path d="M158.772 106.888H136.698C134.663 106.888 133.013 108.659 133.013 110.844V119.895C137.621 121.647 142.575 122.61 147.735 122.61C152.896 122.61 157.849 121.647 162.457 119.895V110.844C162.458 108.659 160.808 106.888 158.772 106.888Z" fill="#E5A973"/>
<path d="M147.735 136.332C139.604 136.332 133.013 129.741 133.013 121.61V110.573C133.013 108.538 134.663 106.888 136.698 106.888H158.772C160.808 106.888 162.458 108.538 162.458 110.573V121.61C162.457 129.741 155.866 136.332 147.735 136.332Z" stroke="black" stroke-width="4" stroke-miterlimit="10" stroke-linecap="round" stroke-linejoin="round"/>
<path d="M163.675 302.181H149.946V345.911H163.675V302.181Z" fill="#607691"/>
<path d="M163.675 302.181H149.946V345.911H163.675V302.181Z" stroke="black" stroke-width="4" stroke-miterlimit="10" stroke-linecap="round" stroke-linejoin="round"/>
<path d="M82.8264 273.276C82.2567 271.951 81.7894 270.569 81.4502 269.135C82.0833 270.479 82.5505 271.862 82.8264 273.276Z" stroke="black" stroke-width="4" stroke-miterlimit="10" stroke-linecap="round" stroke-linejoin="round"/>
<path d="M216.646 273.143C216.914 271.824 217.35 270.531 217.932 269.277C217.606 270.614 217.17 271.901 216.646 273.143Z" stroke="black" stroke-width="4" stroke-miterlimit="10" stroke-linecap="round" stroke-linejoin="round"/>
<path d="M216.435 270.039H82.9798C78.2148 270.039 74.1924 266.498 73.5882 261.771L65.2605 196.625C64.5371 190.965 68.9468 185.957 74.652 185.957H224.763C230.469 185.957 234.878 190.965 234.155 196.625L225.827 261.771C225.223 266.498 221.201 270.039 216.435 270.039Z" fill="#B5B5B5"/>
<path opacity="0.21" d="M225.828 257.705C225.224 262.432 221.201 265.973 216.436 265.973H82.9802C78.2153 265.973 74.1929 262.432 73.5886 257.705L65.3806 193.497C65.1732 194.496 65.1233 195.548 65.2609 196.624L73.5886 261.771C74.1929 266.497 78.2153 270.038 82.9802 270.038H216.436C221.2 270.038 225.223 266.497 225.827 261.771L234.155 196.624C234.292 195.548 234.243 194.496 234.035 193.497L225.828 257.705Z" fill="#7E7E7E"/>
<path opacity="0.21" d="M65.3386 197.239C66.124 192.864 69.9415 189.448 74.652 189.448H224.764C229.473 189.448 233.292 192.864 234.077 197.239L234.156 196.625C234.879 190.965 230.469 185.957 224.764 185.957H74.652C68.9462 185.957 64.5372 190.966 65.2605 196.625L65.3386 197.239Z" fill="#7E7E7E"/>
<path d="M216.435 270.039H82.9798C78.2148 270.039 74.1924 266.498 73.5882 261.771L65.2605 196.625C64.5371 190.965 68.9468 185.957 74.652 185.957H224.763C230.469 185.957 234.878 190.965 234.155 196.625L225.827 261.771C225.223 266.498 221.201 270.039 216.435 270.039Z" stroke="black" stroke-width="4" stroke-miterlimit="10" stroke-linecap="round" stroke-linejoin="round"/>
<path opacity="0.66" d="M156.061 223.998C153.209 223.998 150.896 221.686 150.896 218.834C150.896 218.635 150.91 218.441 150.932 218.248C150.424 218.154 149.903 218.098 149.369 218.098C144.668 218.098 140.858 221.909 140.858 226.608C140.858 231.308 144.669 235.118 149.369 235.118C154.068 235.118 157.879 231.308 157.879 226.608C157.879 225.628 157.705 224.691 157.4 223.816C156.972 223.931 156.525 223.998 156.061 223.998Z" fill="#B5B5B5"/>
<path d="M222.076 326.995C219.939 320.162 213.488 316.478 202.995 313.43C196.311 311.488 187.873 310.617 174.662 307.938C168.217 306.632 163.674 304.12 163.674 304.12V311.449C163.674 311.449 207.535 320.106 214.36 331.45C217.693 336.989 216.667 350.627 201.003 352.03C205.787 352.729 213.675 351.522 217.906 347.235C223.149 341.923 224.536 334.86 222.076 326.995Z" fill="#282323" stroke="black" stroke-width="4" stroke-miterlimit="10" stroke-linecap="round" stroke-linejoin="round"/>
<path d="M163.674 311.449C163.674 311.449 189.933 316.313 203.93 322.35C216.23 327.654 215.86 333.137 216.172 338.773C216.352 342.026 214.066 350.114 204.716 351.495C193.584 353.141 180.433 351.381 163.674 340.697C163.674 314.558 163.674 311.449 163.674 311.449Z" fill="#442C2A"/>
<path opacity="0.37" d="M216.172 338.773C215.92 334.214 216.111 329.754 209.68 325.407C209.964 326.982 209.998 328.569 210.086 330.169C210.266 333.422 207.981 341.51 198.63 342.892C188.882 344.332 177.586 343.161 163.674 335.674C163.674 337.248 163.674 338.915 163.674 340.697C180.433 351.381 193.584 353.14 204.716 351.496C214.066 350.115 216.352 342.026 216.172 338.773Z" fill="#442C2A"/>
<path d="M163.674 311.449C163.674 311.449 189.933 316.313 203.93 322.35C216.23 327.654 215.86 333.137 216.172 338.773C216.352 342.026 214.066 350.114 204.716 351.495C193.584 353.141 180.433 351.381 163.674 340.697C163.674 314.558 163.674 311.449 163.674 311.449Z" stroke="black" stroke-width="4" stroke-miterlimit="10" stroke-linecap="round" stroke-linejoin="round"/>
<path d="M187.966 326.507C190.071 327.663 189.558 338.831 184.439 340.394" stroke="black" stroke-width="4" stroke-miterlimit="10" stroke-linecap="round" stroke-linejoin="round"/>
<path d="M179.975 325.697C182.163 328.777 180.592 335.976 176.742 337.783" stroke="black" stroke-width="4" stroke-miterlimit="10" stroke-linecap="round" stroke-linejoin="round"/>
<path d="M172.622 323.136C174.811 326.216 173.239 333.414 169.39 335.222" stroke="black" stroke-width="4" stroke-miterlimit="10" stroke-linecap="round" stroke-linejoin="round"/>
<path d="M125.234 149.402V183.422" stroke="black" stroke-width="6" stroke-miterlimit="10" stroke-linecap="round" stroke-linejoin="round"/>
<path d="M168.453 149.402V173.422" stroke="black" stroke-width="6" stroke-miterlimit="10" stroke-linecap="round" stroke-linejoin="round"/>
<path d="M168.454 180.637C171.398 180.637 173.784 178.25 173.784 175.306C173.784 172.363 171.398 169.976 168.454 169.976C165.51 169.976 163.124 172.363 163.124 175.306C163.124 178.25 165.51 180.637 168.454 180.637Z" fill="black"/>
<path d="M168.454 176.812C169.639 176.812 170.6 175.851 170.6 174.666C170.6 173.481 169.639 172.52 168.454 172.52C167.269 172.52 166.308 173.481 166.308 174.666C166.308 175.851 167.269 176.812 168.454 176.812Z" fill="#7E7E7E"/>
<path d="M147.736 117.694C125.438 117.694 107.362 99.6182 107.362 77.3209V30.4412H188.109V77.3209C188.109 99.6182 170.034 117.694 147.736 117.694Z" fill="#FFC897"/>
<path d="M147.736 112.108C125.438 112.108 107.362 94.0324 107.362 71.7351V77.3206C107.362 99.6186 125.438 117.694 147.735 117.694C170.033 117.694 188.109 99.6179 188.109 77.3206V71.7351C188.109 94.0324 170.034 112.108 147.736 112.108Z" fill="#E5A973"/>
<path d="M147.736 117.694C125.438 117.694 107.362 99.6182 107.362 77.3209V30.4412H188.109V77.3209C188.109 99.6182 170.034 117.694 147.736 117.694Z" stroke="black" stroke-width="4" stroke-miterlimit="10" stroke-linecap="round" stroke-linejoin="round"/>
<path d="M188.456 35.1178C188.328 32.9178 188.212 30.7165 188.109 28.5139C161.198 29.7845 134.23 29.5854 107.372 27.2458C107.195 29.7358 107.03 32.2271 106.88 34.7203C108.11 35.8309 109.349 36.9319 110.596 38.0226C111.645 38.5462 112.992 39.2541 114.174 39.8661C119.551 42.671 127.055 46.2869 134.19 47.6446C136.828 48.1535 139.59 48.398 142.388 48.3788C154.507 48.2668 164.67 43.4481 168.952 41.4593C169.584 41.1636 170.13 40.9075 170.416 40.791C170.683 40.6822 170.96 40.6259 171.285 40.6118C172.035 40.5811 172.956 40.7776 174.023 41.0003C175.457 41.2999 177.086 41.6315 178.931 41.531C181.04 41.4171 182.992 40.7526 184.812 39.5377C186.029 38.0597 187.244 36.5862 188.456 35.1178Z" fill="#E5A973"/>
<path d="M168.945 10.7867C168.945 10.7867 136.629 -10.5402 109.859 13.2581C104.897 17.6691 102.878 23.9881 102.878 29.8521V60.7351H107.362V38.3271C107.362 36.6948 108.495 35.3717 109.892 35.3717C112.175 35.3717 124.68 42.0339 135.215 43.869C151.138 46.6426 165.715 39.2405 168.795 38.1434C174.152 36.2352 178.537 42.8577 185.341 35.3717H185.58C186.977 35.3717 188.109 36.6948 188.109 38.3271V60.7351H192.594V30C192.593 22.5319 183.875 3.55931 168.945 10.7867Z" fill="#231A17"/>
<g opacity="0.34">
<path opacity="0.34" d="M107.362 56.5381H102.878V60.7352H107.362V56.5381Z" fill="#231A17"/>
<path opacity="0.34" d="M192.593 56.5381H188.108V60.7352H192.593V56.5381Z" fill="#231A17"/>
</g>
<path d="M168.945 10.7867C168.945 10.7867 136.629 -10.5402 109.859 13.2581C104.897 17.6691 102.878 23.9881 102.878 29.8521V60.7351H107.362V38.3271C107.362 36.6948 108.495 35.3717 109.892 35.3717C112.175 35.3717 124.68 42.0339 135.215 43.869C151.138 46.6426 165.715 39.2405 168.795 38.1434C174.152 36.2352 178.537 42.8577 185.341 35.3717H185.58C186.977 35.3717 188.109 36.6948 188.109 38.3271V60.7351H192.594V30C192.593 22.5319 183.875 3.55931 168.945 10.7867Z" stroke="black" stroke-width="4" stroke-miterlimit="10" stroke-linecap="round" stroke-linejoin="round"/>
<path d="M141.658 31.5923C141.658 31.5923 106.971 33.8441 99.5781 15.4163" stroke="black" stroke-width="4" stroke-miterlimit="10" stroke-linecap="round" stroke-linejoin="round"/>
<path d="M146.549 27.1699C146.549 27.1699 113.114 25.032 104.409 6.6438" stroke="black" stroke-width="4" stroke-miterlimit="10" stroke-linecap="round" stroke-linejoin="round"/>
<path d="M188.108 55.7476V76.7224C192.569 76.7224 196.186 72.0273 196.186 66.235C196.186 60.4433 192.57 55.7476 188.108 55.7476Z" fill="#FFC897"/>
<path d="M188.108 56.9141V75.5557C190.711 73.8147 192.494 70.2986 192.494 66.2352C192.494 62.1712 190.711 58.6551 188.108 56.9141Z" fill="#E5A973"/>
<path d="M188.108 55.7476V76.7224C192.569 76.7224 196.186 72.0273 196.186 66.235C196.186 60.4433 192.57 55.7476 188.108 55.7476Z" stroke="black" stroke-width="4" stroke-miterlimit="10" stroke-linecap="round" stroke-linejoin="round"/>
<path d="M107.362 55.7476V76.7224C102.901 76.7224 99.2842 72.0273 99.2842 66.235C99.2848 60.4433 102.901 55.7476 107.362 55.7476Z" fill="#FFC897"/>
<path d="M107.362 57.2739C105.029 59.1129 103.465 62.4325 103.465 66.2353C103.465 70.0382 105.029 73.3584 107.362 75.1968V57.2739Z" fill="#E5A973"/>
<path d="M107.362 55.7476V76.7224C102.901 76.7224 99.2842 72.0273 99.2842 66.235C99.2848 60.4433 102.901 55.7476 107.362 55.7476Z" stroke="black" stroke-width="4" stroke-miterlimit="10" stroke-linecap="round" stroke-linejoin="round"/>
<path d="M146.08 72.8262L143.39 81.6154C143.39 82.5717 146.549 81.794 149.707 82.5711" stroke="black" stroke-width="4" stroke-miterlimit="10" stroke-linecap="round" stroke-linejoin="round"/>
<path d="M161.185 89.2036C162.169 95.8703 153.595 101.768 146.86 100.546" stroke="black" stroke-width="3" stroke-miterlimit="10" stroke-linecap="round" stroke-linejoin="round"/>
<path d="M133.159 65.389C134.643 65.389 135.846 64.0988 135.846 62.5072C135.846 60.9157 134.643 59.6255 133.159 59.6255C131.675 59.6255 130.472 60.9157 130.472 62.5072C130.472 64.0988 131.675 65.389 133.159 65.389Z" stroke="black" stroke-width="2" stroke-miterlimit="10" stroke-linecap="round" stroke-linejoin="round"/>
<path d="M133.159 65.389C134.643 65.389 135.846 64.0988 135.846 62.5072C135.846 60.9157 134.643 59.6255 133.159 59.6255C131.675 59.6255 130.472 60.9157 130.472 62.5072C130.472 64.0988 131.675 65.389 133.159 65.389Z" fill="black"/>
<path d="M123.876 56.4356C125.224 54.8417 128.38 53.7241 132.058 53.7241C134.982 53.7241 137.575 54.4308 139.194 55.5209" stroke="black" stroke-width="3" stroke-miterlimit="10" stroke-linecap="round" stroke-linejoin="round"/>
<path d="M162.639 65.389C164.123 65.389 165.326 64.0988 165.326 62.5072C165.326 60.9157 164.123 59.6255 162.639 59.6255C161.155 59.6255 159.952 60.9157 159.952 62.5072C159.952 64.0988 161.155 65.389 162.639 65.389Z" stroke="black" stroke-width="2" stroke-miterlimit="10" stroke-linecap="round" stroke-linejoin="round"/>
<path d="M162.639 65.389C164.123 65.389 165.326 64.0988 165.326 62.5072C165.326 60.9157 164.123 59.6255 162.639 59.6255C161.155 59.6255 159.952 60.9157 159.952 62.5072C159.952 64.0988 161.155 65.389 162.639 65.389Z" fill="black"/>
<path d="M171.92 56.4356C170.572 54.8417 167.416 53.7241 163.738 53.7241C160.814 53.7241 158.221 54.4308 156.603 55.5209" stroke="black" stroke-width="3" stroke-miterlimit="10" stroke-linecap="round" stroke-linejoin="round"/>
</svg>
