<svg width="353" height="313" viewBox="0 0 353 313" fill="none" xmlns="http://www.w3.org/2000/svg">
<g clip-path="url(#clip0_18_845)">
<path d="M30.0098 194.95V229.64" stroke="#1F3969" stroke-width="4" stroke-linecap="round" stroke-linejoin="round"/>
<path d="M35.6904 235.64L31.6904 229.64" stroke="#1F3969" stroke-width="4" stroke-linecap="round" stroke-linejoin="round"/>
<path d="M31.6904 194.95L35.6904 188.95" stroke="#1F3969" stroke-width="4" stroke-linecap="round" stroke-linejoin="round"/>
<path opacity="0.28" d="M13.3896 188.95V235.64" stroke="#1F3969" stroke-width="4" stroke-linecap="round" stroke-linejoin="round"/>
<path d="M199.72 289.34L196.72 255.69H147.3L144.3 289.34C143.6 297.16 138.9 304.65 131.53 310.62V310.69H212.53V310.62C205.12 304.65 200.42 297.16 199.72 289.34Z" fill="#BFCFE2"/>
<path opacity="0.28" d="M147.3 255.69L145.49 275.89H198.51L196.7 255.69H147.3Z" fill="#1F3969" stroke="#1F3969" stroke-width="4" stroke-linecap="round" stroke-linejoin="round"/>
<path d="M199.72 289.34L196.72 255.69H147.3L144.3 289.34C143.6 297.16 138.9 304.65 131.53 310.62V310.69H212.53V310.62C205.12 304.65 200.42 297.16 199.72 289.34Z" stroke="#1F3969" stroke-width="4" stroke-linecap="round" stroke-linejoin="round"/>
<path d="M330 30.6899H14C7.37258 30.6899 2 36.0625 2 42.6899V248.69C2 255.317 7.37258 260.69 14 260.69H330C336.627 260.69 342 255.317 342 248.69V42.6899C342 36.0625 336.627 30.6899 330 30.6899Z" fill="#90CDF4"/>
<path d="M330 30.6899H14C7.37258 30.6899 2 36.0625 2 42.6899V248.69C2 255.317 7.37258 260.69 14 260.69H330C336.627 260.69 342 255.317 342 248.69V42.6899C342 36.0625 336.627 30.6899 330 30.6899Z" fill="#BFCFE2"/>
<path d="M330 30.6899H14C7.37258 30.6899 2 36.0625 2 42.6899V248.69C2 255.317 7.37258 260.69 14 260.69H330C336.627 260.69 342 255.317 342 248.69V42.6899C342 36.0625 336.627 30.6899 330 30.6899Z" stroke="#1F3969" stroke-width="4" stroke-linecap="round" stroke-linejoin="round"/>
<path d="M325 222.28V47.6899L19 47.6899V222.28L325 222.28Z" fill="#F6F9FD"/>
<path opacity="0.28" d="M30 30.6899V169.29C30 171.412 30.8429 173.447 32.3431 174.947C33.8434 176.447 35.8783 177.29 38 177.29H227.09C229.212 177.29 231.247 176.447 232.747 174.947C234.247 173.447 235.09 171.412 235.09 169.29V30.6899H30Z" fill="#1F3969" stroke="#1F3969" stroke-width="4" stroke-linecap="round" stroke-linejoin="round"/>
<path d="M325 222.28V47.6899L19 47.6899V222.28L325 222.28Z" stroke="#1F3969" stroke-width="4" stroke-linecap="round" stroke-linejoin="round"/>
<path d="M158.55 241.39H185.45" stroke="#1F3969" stroke-width="4" stroke-linecap="round" stroke-linejoin="round"/>
<path d="M236.08 2H47.0098C42.5915 2 39.0098 5.58172 39.0098 10V158.29C39.0098 162.708 42.5915 166.29 47.0098 166.29H236.08C240.498 166.29 244.08 162.708 244.08 158.29V10C244.08 5.58172 240.498 2 236.08 2Z" fill="#2D425E"/>
<path d="M47 2H236.09C238.212 2 240.247 2.84285 241.747 4.34315C243.247 5.84344 244.09 7.87827 244.09 10V21.45H39V10C39 7.87827 39.8429 5.84344 41.3431 4.34315C42.8434 2.84285 44.8783 2 47 2V2Z" stroke="#1F3969" stroke-width="4" stroke-linecap="round" stroke-linejoin="round"/>
<path d="M47 2H236.09C238.212 2 240.247 2.84285 241.747 4.34315C243.247 5.84344 244.09 7.87827 244.09 10V25.26H39V10C39 7.87827 39.8429 5.84344 41.3431 4.34315C42.8434 2.84285 44.8783 2 47 2Z" fill="#D0DDF0"/>
<path d="M47 2H236.09C238.212 2 240.247 2.84285 241.747 4.34315C243.247 5.84344 244.09 7.87827 244.09 10V25.26H39V10C39 7.87827 39.8429 5.84344 41.3431 4.34315C42.8434 2.84285 44.8783 2 47 2V2Z" stroke="#1F3969" stroke-width="4" stroke-linecap="round" stroke-linejoin="round"/>
<path d="M47 2H236.09C238.212 2 240.247 2.84285 241.747 4.34315C243.247 5.84344 244.09 7.87827 244.09 10V25.26H39V10C39 7.87827 39.8429 5.84344 41.3431 4.34315C42.8434 2.84285 44.8783 2 47 2V2Z" stroke="#1F3969" stroke-width="4" stroke-linecap="round" stroke-linejoin="round"/>
<path d="M236.08 2H47.0098C42.5915 2 39.0098 5.58172 39.0098 10V158.29C39.0098 162.708 42.5915 166.29 47.0098 166.29H236.08C240.498 166.29 244.08 162.708 244.08 158.29V10C244.08 5.58172 240.498 2 236.08 2Z" stroke="#1F3969" stroke-width="4" stroke-linecap="round" stroke-linejoin="round"/>
<path opacity="0.28" d="M334.78 62.75H218.76C214.341 62.75 210.76 66.3317 210.76 70.75V193.7C210.76 198.118 214.341 201.7 218.76 201.7H334.78C339.198 201.7 342.78 198.118 342.78 193.7V70.75C342.78 66.3317 339.198 62.75 334.78 62.75Z" fill="#1F3969" stroke="#1F3969" stroke-width="4" stroke-linecap="round" stroke-linejoin="round"/>
<path d="M342.78 55.75H226.76C222.341 55.75 218.76 59.3317 218.76 63.75V186.7C218.76 191.118 222.341 194.7 226.76 194.7H342.78C347.198 194.7 350.78 191.118 350.78 186.7V63.75C350.78 59.3317 347.198 55.75 342.78 55.75Z" fill="#63B3ED"/>
<path d="M342.78 55.75H226.76C222.341 55.75 218.76 59.3317 218.76 63.75V186.7C218.76 191.118 222.341 194.7 226.76 194.7H342.78C347.198 194.7 350.78 191.118 350.78 186.7V63.75C350.78 59.3317 347.198 55.75 342.78 55.75Z" stroke="#1F3969" stroke-width="4" stroke-linecap="round" stroke-linejoin="round"/>
<g style="mix-blend-mode:screen" opacity="0.34">
<path d="M325.51 75.6899H243.95C241.095 75.6899 238.78 78.0046 238.78 80.8599V88.6499C238.78 91.5053 241.095 93.8199 243.95 93.8199H325.51C328.366 93.8199 330.68 91.5053 330.68 88.6499V80.8599C330.68 78.0046 328.366 75.6899 325.51 75.6899Z" stroke="#90CDF4" stroke-width="2" stroke-linecap="round" stroke-linejoin="round"/>
</g>
<g style="mix-blend-mode:screen" opacity="0.34">
<g style="mix-blend-mode:screen" opacity="0.34">
<path d="M289.67 104.99H244.03C241.175 104.99 238.86 107.305 238.86 110.16V117.95C238.86 120.805 241.175 123.12 244.03 123.12H289.67C292.526 123.12 294.84 120.805 294.84 117.95V110.16C294.84 107.305 292.526 104.99 289.67 104.99Z" stroke="#90CDF4" stroke-width="2" stroke-linecap="round" stroke-linejoin="round"/>
</g>
<g style="mix-blend-mode:screen" opacity="0.34">
<path d="M325.591 104.99H307.941C305.085 104.99 302.771 107.305 302.771 110.16V117.95C302.771 120.805 305.085 123.12 307.941 123.12H325.591C328.446 123.12 330.761 120.805 330.761 117.95V110.16C330.761 107.305 328.446 104.99 325.591 104.99Z" stroke="#90CDF4" stroke-width="2" stroke-linecap="round" stroke-linejoin="round"/>
</g>
</g>
<path d="M238.78 153.58H330.68" stroke="#90CDF4" stroke-width="2" stroke-linecap="round" stroke-linejoin="round"/>
<path d="M238.78 164.37H330.68" stroke="#90CDF4" stroke-width="2" stroke-linecap="round" stroke-linejoin="round"/>
<path d="M238.78 175.16H294.75" stroke="#90CDF4" stroke-width="2" stroke-linecap="round" stroke-linejoin="round"/>
<path d="M59.0898 17.6299C61.299 17.6299 63.0898 15.839 63.0898 13.6299C63.0898 11.4207 61.299 9.62988 59.0898 9.62988C56.8807 9.62988 55.0898 11.4207 55.0898 13.6299C55.0898 15.839 56.8807 17.6299 59.0898 17.6299Z" fill="#1F3969"/>
<path d="M72.9697 17.6299C75.1789 17.6299 76.9697 15.839 76.9697 13.6299C76.9697 11.4207 75.1789 9.62988 72.9697 9.62988C70.7606 9.62988 68.9697 11.4207 68.9697 13.6299C68.9697 15.839 70.7606 17.6299 72.9697 17.6299Z" fill="#1F3969"/>
<path d="M86.8604 17.6299C89.0695 17.6299 90.8604 15.839 90.8604 13.6299C90.8604 11.4207 89.0695 9.62988 86.8604 9.62988C84.6512 9.62988 82.8604 11.4207 82.8604 13.6299C82.8604 15.839 84.6512 17.6299 86.8604 17.6299Z" fill="#1F3969"/>
<path d="M156.83 43.73H169.76" stroke="#90CDF4" stroke-width="4" stroke-linecap="round" stroke-linejoin="round"/>
<path d="M90.8604 43.73H147.23" stroke="#7BFFA0" stroke-width="4" stroke-linecap="round" stroke-linejoin="round"/>
<path d="M63.0898 43.73H82.8598" stroke="#9169FF" stroke-width="4" stroke-linecap="round" stroke-linejoin="round"/>
<path d="M88.8604 142.28H131.92" stroke="#9169FF" stroke-width="4" stroke-linecap="round" stroke-linejoin="round"/>
<path d="M63.0898 142.28H76.9698" stroke="#7BFFA0" stroke-width="4" stroke-linecap="round" stroke-linejoin="round"/>
<path d="M147.23 56.05H155.25" stroke="#90CDF4" stroke-width="4" stroke-linecap="round" stroke-linejoin="round"/>
<path d="M110.37 56.05H137.59" stroke="#9169FF" stroke-width="4" stroke-linecap="round" stroke-linejoin="round"/>
<path d="M72.9697 56.05H100.72" stroke="#FFC47D" stroke-width="4" stroke-linecap="round" stroke-linejoin="round"/>
<path d="M115.92 68.3701H139.75" stroke="#90CDF4" stroke-width="4" stroke-linecap="round" stroke-linejoin="round"/>
<path d="M85.8604 68.3701H108.34" stroke="#FF5757" stroke-width="4" stroke-linecap="round" stroke-linejoin="round"/>
<path d="M119.1 80.6899H124.03" stroke="#90CDF4" stroke-width="4" stroke-linecap="round" stroke-linejoin="round"/>
<path d="M99.2803 80.6899H110.37" stroke="#9169FF" stroke-width="4" stroke-linecap="round" stroke-linejoin="round"/>
<path d="M72.9697 80.6899H90.8597" stroke="#7BFFA0" stroke-width="4" stroke-linecap="round" stroke-linejoin="round"/>
<path d="M111.37 93H143.27" stroke="#FFC47D" stroke-width="4" stroke-linecap="round" stroke-linejoin="round"/>
<path d="M72.9697 93H101.6" stroke="#FF5757" stroke-width="4" stroke-linecap="round" stroke-linejoin="round"/>
<path d="M148.27 105.32H165.61" stroke="#9169FF" stroke-width="4" stroke-linecap="round" stroke-linejoin="round"/>
<path d="M111.37 105.32H139.12" stroke="#FF5757" stroke-width="4" stroke-linecap="round" stroke-linejoin="round"/>
<path d="M85.8604 105.32H101.6" stroke="#7BFFA0" stroke-width="4" stroke-linecap="round" stroke-linejoin="round"/>
<path d="M123.98 117.64H139.12" stroke="#90CDF4" stroke-width="4" stroke-linecap="round" stroke-linejoin="round"/>
<path d="M85.8604 117.64H113.6" stroke="#9169FF" stroke-width="4" stroke-linecap="round" stroke-linejoin="round"/>
<path d="M163.29 129.96H180.58" stroke="#90CDF4" stroke-width="4" stroke-linecap="round" stroke-linejoin="round"/>
<path d="M110.37 129.96H153.93" stroke="#FFC47D" stroke-width="4" stroke-linecap="round" stroke-linejoin="round"/>
<path d="M72.9697 129.96H100.72" stroke="#90CDF4" stroke-width="4" stroke-linecap="round" stroke-linejoin="round"/>
</g>
<defs>
<clipPath id="clip0_18_845">
<rect width="352.78" height="312.69" fill="white"/>
</clipPath>
</defs>
</svg>
