<svg width="208" height="314" viewBox="0 0 208 314" fill="none" xmlns="http://www.w3.org/2000/svg">
<path d="M192.158 279.659H10.5791V19.1318H192.158C198.699 19.1318 204.001 24.2641 204.001 30.8042V267.647C204.001 274.187 198.699 279.659 192.158 279.659Z" fill="#C8C8C8" stroke="#C8C8C8" stroke-width="8" stroke-miterlimit="10" stroke-linecap="round" stroke-linejoin="round"/>
<path d="M166.501 284.921H157.29C155.474 284.921 154.001 283.448 154.001 281.632V17.1576C154.001 15.3412 155.474 13.8682 157.29 13.8682H166.501C168.317 13.8682 169.79 15.3412 169.79 17.1576V281.632C169.79 283.448 168.317 284.921 166.501 284.921Z" fill="#C8C8C8" stroke="#C8C8C8" stroke-width="8" stroke-miterlimit="10" stroke-linecap="round" stroke-linejoin="round"/>
<path d="M50.7105 309.752L30.9736 298.738V279.659H50.7105V309.752Z" fill="#C8C8C8" stroke="#C8C8C8" stroke-width="8" stroke-miterlimit="10" stroke-linecap="round" stroke-linejoin="round"/>
<path d="M185.579 269.79H4V9.26318H185.579C192.119 9.26318 197.421 14.3954 197.421 20.9356V257.778C197.421 264.318 192.119 269.79 185.579 269.79Z" fill="#4C5B60"/>
<mask id="mask0_18_627" style="mask-type:alpha" maskUnits="userSpaceOnUse" x="4" y="9" width="194" height="261">
<path d="M185.579 269.79H4V9.26318H185.579C192.119 9.26318 197.421 14.3954 197.421 20.9356V257.778C197.421 264.318 192.119 269.79 185.579 269.79Z" fill="white"/>
</mask>
<g mask="url(#mask0_18_627)">
<g opacity="0.11">
<g opacity="0.11">
<path opacity="0.11" d="M211.731 242.652L-14.8047 469.187" stroke="#102D3B" stroke-width="3" stroke-miterlimit="10" stroke-linecap="round" stroke-linejoin="round"/>
</g>
<g opacity="0.11">
<path opacity="0.11" d="M211.731 233.441L-14.8047 459.977" stroke="#102D3B" stroke-width="3" stroke-miterlimit="10" stroke-linecap="round" stroke-linejoin="round"/>
</g>
<g opacity="0.11">
<path opacity="0.11" d="M211.731 224.231L-14.8047 450.767" stroke="#102D3B" stroke-width="3" stroke-miterlimit="10" stroke-linecap="round" stroke-linejoin="round"/>
</g>
<g opacity="0.11">
<path opacity="0.11" d="M211.731 215.02L-14.8047 441.555" stroke="#102D3B" stroke-width="3" stroke-miterlimit="10" stroke-linecap="round" stroke-linejoin="round"/>
</g>
<g opacity="0.11">
<path opacity="0.11" d="M211.731 205.809L-14.8047 432.344" stroke="#102D3B" stroke-width="3" stroke-miterlimit="10" stroke-linecap="round" stroke-linejoin="round"/>
</g>
<g opacity="0.11">
<path opacity="0.11" d="M211.731 196.599L-14.8047 423.134" stroke="#102D3B" stroke-width="3" stroke-miterlimit="10" stroke-linecap="round" stroke-linejoin="round"/>
</g>
<g opacity="0.11">
<path opacity="0.11" d="M211.731 187.388L-14.8047 413.924" stroke="#102D3B" stroke-width="3" stroke-miterlimit="10" stroke-linecap="round" stroke-linejoin="round"/>
</g>
<g opacity="0.11">
<path opacity="0.11" d="M211.731 178.178L-14.8047 404.713" stroke="#102D3B" stroke-width="3" stroke-miterlimit="10" stroke-linecap="round" stroke-linejoin="round"/>
</g>
<g opacity="0.11">
<path opacity="0.11" d="M211.731 168.967L-14.8047 395.502" stroke="#102D3B" stroke-width="3" stroke-miterlimit="10" stroke-linecap="round" stroke-linejoin="round"/>
</g>
<g opacity="0.11">
<path opacity="0.11" d="M211.731 159.757L-14.8047 386.292" stroke="#102D3B" stroke-width="3" stroke-miterlimit="10" stroke-linecap="round" stroke-linejoin="round"/>
</g>
<g opacity="0.11">
<path opacity="0.11" d="M211.731 150.546L-14.8047 377.081" stroke="#102D3B" stroke-width="3" stroke-miterlimit="10" stroke-linecap="round" stroke-linejoin="round"/>
</g>
<g opacity="0.11">
<path opacity="0.11" d="M211.731 141.336L-14.8047 367.872" stroke="#102D3B" stroke-width="3" stroke-miterlimit="10" stroke-linecap="round" stroke-linejoin="round"/>
</g>
<g opacity="0.11">
<path opacity="0.11" d="M211.731 132.125L-14.8047 358.66" stroke="#102D3B" stroke-width="3" stroke-miterlimit="10" stroke-linecap="round" stroke-linejoin="round"/>
</g>
<g opacity="0.11">
<path opacity="0.11" d="M211.731 122.914L-14.8047 349.45" stroke="#102D3B" stroke-width="3" stroke-miterlimit="10" stroke-linecap="round" stroke-linejoin="round"/>
</g>
<g opacity="0.11">
<path opacity="0.11" d="M211.731 113.704L-14.8047 340.24" stroke="#102D3B" stroke-width="3" stroke-miterlimit="10" stroke-linecap="round" stroke-linejoin="round"/>
</g>
<g opacity="0.11">
<path opacity="0.11" d="M211.731 104.494L-14.8047 331.029" stroke="#102D3B" stroke-width="3" stroke-miterlimit="10" stroke-linecap="round" stroke-linejoin="round"/>
</g>
<g opacity="0.11">
<path opacity="0.11" d="M211.731 95.283L-14.8047 321.818" stroke="#102D3B" stroke-width="3" stroke-miterlimit="10" stroke-linecap="round" stroke-linejoin="round"/>
</g>
<g opacity="0.11">
<path opacity="0.11" d="M211.731 86.0728L-14.8047 312.608" stroke="#102D3B" stroke-width="3" stroke-miterlimit="10" stroke-linecap="round" stroke-linejoin="round"/>
</g>
<g opacity="0.11">
<path opacity="0.11" d="M211.731 76.8616L-14.8047 303.397" stroke="#102D3B" stroke-width="3" stroke-miterlimit="10" stroke-linecap="round" stroke-linejoin="round"/>
</g>
<g opacity="0.11">
<path opacity="0.11" d="M211.731 67.6511L-14.8047 294.186" stroke="#102D3B" stroke-width="3" stroke-miterlimit="10" stroke-linecap="round" stroke-linejoin="round"/>
</g>
<g opacity="0.11">
<path opacity="0.11" d="M211.731 58.4409L-14.8047 284.976" stroke="#102D3B" stroke-width="3" stroke-miterlimit="10" stroke-linecap="round" stroke-linejoin="round"/>
</g>
<g opacity="0.11">
<path opacity="0.11" d="M211.731 49.2302L-14.8047 275.766" stroke="#102D3B" stroke-width="3" stroke-miterlimit="10" stroke-linecap="round" stroke-linejoin="round"/>
</g>
<g opacity="0.11">
<path opacity="0.11" d="M211.731 40.0195L-14.8047 266.555" stroke="#102D3B" stroke-width="3" stroke-miterlimit="10" stroke-linecap="round" stroke-linejoin="round"/>
</g>
<g opacity="0.11">
<path opacity="0.11" d="M211.731 30.8091L-14.8047 257.344" stroke="#102D3B" stroke-width="3" stroke-miterlimit="10" stroke-linecap="round" stroke-linejoin="round"/>
</g>
<g opacity="0.11">
<path opacity="0.11" d="M211.731 21.5989L-14.8047 248.134" stroke="#102D3B" stroke-width="3" stroke-miterlimit="10" stroke-linecap="round" stroke-linejoin="round"/>
</g>
<g opacity="0.11">
<path opacity="0.11" d="M211.731 12.3877L-14.8047 238.923" stroke="#102D3B" stroke-width="3" stroke-miterlimit="10" stroke-linecap="round" stroke-linejoin="round"/>
</g>
<g opacity="0.11">
<path opacity="0.11" d="M211.731 3.17725L-14.8047 229.713" stroke="#102D3B" stroke-width="3" stroke-miterlimit="10" stroke-linecap="round" stroke-linejoin="round"/>
</g>
<g opacity="0.11">
<path opacity="0.11" d="M211.731 -6.03247L-14.8047 220.503" stroke="#102D3B" stroke-width="3" stroke-miterlimit="10" stroke-linecap="round" stroke-linejoin="round"/>
</g>
<g opacity="0.11">
<path opacity="0.11" d="M211.731 -15.2437L-14.8047 211.292" stroke="#102D3B" stroke-width="3" stroke-miterlimit="10" stroke-linecap="round" stroke-linejoin="round"/>
</g>
<g opacity="0.11">
<path opacity="0.11" d="M211.731 -24.4541L-14.8047 202.081" stroke="#102D3B" stroke-width="3" stroke-miterlimit="10" stroke-linecap="round" stroke-linejoin="round"/>
</g>
<g opacity="0.11">
<path opacity="0.11" d="M211.731 -33.665L-14.8047 192.87" stroke="#102D3B" stroke-width="3" stroke-miterlimit="10" stroke-linecap="round" stroke-linejoin="round"/>
</g>
<g opacity="0.11">
<path opacity="0.11" d="M211.731 -42.8755L-14.8047 183.66" stroke="#102D3B" stroke-width="3" stroke-miterlimit="10" stroke-linecap="round" stroke-linejoin="round"/>
</g>
<g opacity="0.11">
<path opacity="0.11" d="M211.731 -52.0859L-14.8047 174.449" stroke="#102D3B" stroke-width="3" stroke-miterlimit="10" stroke-linecap="round" stroke-linejoin="round"/>
</g>
<g opacity="0.11">
<path opacity="0.11" d="M211.731 -61.2957L-14.8047 165.24" stroke="#102D3B" stroke-width="3" stroke-miterlimit="10" stroke-linecap="round" stroke-linejoin="round"/>
</g>
<g opacity="0.11">
<path opacity="0.11" d="M211.731 -70.5073L-14.8047 156.028" stroke="#102D3B" stroke-width="3" stroke-miterlimit="10" stroke-linecap="round" stroke-linejoin="round"/>
</g>
<g opacity="0.11">
<path opacity="0.11" d="M211.731 -79.7175L-14.8047 146.818" stroke="#102D3B" stroke-width="3" stroke-miterlimit="10" stroke-linecap="round" stroke-linejoin="round"/>
</g>
<g opacity="0.11">
<path opacity="0.11" d="M211.731 -88.928L-14.8047 137.607" stroke="#102D3B" stroke-width="3" stroke-miterlimit="10" stroke-linecap="round" stroke-linejoin="round"/>
</g>
<g opacity="0.11">
<path opacity="0.11" d="M211.731 -98.1382L-14.8047 128.397" stroke="#102D3B" stroke-width="3" stroke-miterlimit="10" stroke-linecap="round" stroke-linejoin="round"/>
</g>
<g opacity="0.11">
<path opacity="0.11" d="M211.731 -107.349L-14.8047 119.186" stroke="#102D3B" stroke-width="3" stroke-miterlimit="10" stroke-linecap="round" stroke-linejoin="round"/>
</g>
<g opacity="0.11">
<path opacity="0.11" d="M211.731 -116.559L-14.8047 109.976" stroke="#102D3B" stroke-width="3" stroke-miterlimit="10" stroke-linecap="round" stroke-linejoin="round"/>
</g>
<g opacity="0.11">
<path opacity="0.11" d="M211.731 -125.77L-14.8047 100.765" stroke="#102D3B" stroke-width="3" stroke-miterlimit="10" stroke-linecap="round" stroke-linejoin="round"/>
</g>
<g opacity="0.11">
<path opacity="0.11" d="M211.731 -134.981L-14.8047 91.5546" stroke="#102D3B" stroke-width="3" stroke-miterlimit="10" stroke-linecap="round" stroke-linejoin="round"/>
</g>
<g opacity="0.11">
<path opacity="0.11" d="M211.731 -144.191L-14.8047 82.3439" stroke="#102D3B" stroke-width="3" stroke-miterlimit="10" stroke-linecap="round" stroke-linejoin="round"/>
</g>
<g opacity="0.11">
<path opacity="0.11" d="M211.731 -153.402L-14.8047 73.1335" stroke="#102D3B" stroke-width="3" stroke-miterlimit="10" stroke-linecap="round" stroke-linejoin="round"/>
</g>
<g opacity="0.11">
<path opacity="0.11" d="M211.731 -162.613L-14.8047 63.9226" stroke="#102D3B" stroke-width="3" stroke-miterlimit="10" stroke-linecap="round" stroke-linejoin="round"/>
</g>
<g opacity="0.11">
<path opacity="0.11" d="M211.731 -171.823L-14.8047 54.7121" stroke="#102D3B" stroke-width="3" stroke-miterlimit="10" stroke-linecap="round" stroke-linejoin="round"/>
</g>
<g opacity="0.11">
<path opacity="0.11" d="M191.007 -160.31L-14.8047 45.502" stroke="#102D3B" stroke-width="3" stroke-miterlimit="10" stroke-linecap="round" stroke-linejoin="round"/>
</g>
<g opacity="0.11">
<path opacity="0.11" d="M178.178 -156.691L-14.8047 36.2912" stroke="#102D3B" stroke-width="3" stroke-miterlimit="10" stroke-linecap="round" stroke-linejoin="round"/>
</g>
</g>
</g>
<path d="M170.448 9.26318H154.658V269.79H170.448V9.26318Z" fill="#526770"/>
<path d="M26.3685 9.26318H4V269.79H26.3685V9.26318Z" stroke="#102D3B" stroke-width="8" stroke-miterlimit="10" stroke-linecap="round" stroke-linejoin="round"/>
<path opacity="0.37" d="M15.1842 9.26318H4V269.79H15.1842V9.26318Z" fill="#526770"/>
<path d="M197.421 84.2637H4V157.948H197.421V84.2637Z" fill="#63B3ED"/>
<path d="M26.3691 84.2637V157.948" stroke="#526770" stroke-width="8" stroke-miterlimit="10"/>
<path opacity="0.51" d="M15.1842 84.2637H4V157.948H15.1842V84.2637Z" fill="#526770"/>
<path opacity="0.61" d="M170.447 84.2637H159.263V157.948H170.447V84.2637Z" fill="#63B3ED"/>
<path d="M197.421 84.2637H4V157.948H197.421V84.2637Z" stroke="#102D3B" stroke-width="8" stroke-miterlimit="10" stroke-linecap="round" stroke-linejoin="round"/>
<path d="M185.579 269.79H4V9.26318H185.579C192.119 9.26318 197.421 14.3954 197.421 20.9356V257.778C197.421 264.318 192.119 269.79 185.579 269.79Z" stroke="#102D3B" stroke-width="8" stroke-miterlimit="10" stroke-linecap="round" stroke-linejoin="round"/>
<path d="M159.373 275.053H151.259C149.14 275.053 147.422 273.335 147.422 271.216V7.83751C147.422 5.71777 149.14 4 151.259 4H159.373C161.493 4 163.211 5.71843 163.211 7.83751V271.215C163.211 273.335 161.492 275.053 159.373 275.053Z" fill="#B7C8CE"/>
<path d="M159.373 275.053H151.259C149.14 275.053 147.422 273.335 147.422 271.216V7.83751C147.422 5.71777 149.14 4 151.259 4H159.373C161.493 4 163.211 5.71843 163.211 7.83751V271.215C163.211 273.335 161.492 275.053 159.373 275.053Z" stroke="#102D3B" stroke-width="8" stroke-miterlimit="10" stroke-linecap="round" stroke-linejoin="round"/>
<path d="M44.1314 299.884L24.3945 288.869V269.79H44.1314V299.884Z" fill="#63B3ED"/>
<path opacity="0.62" d="M44.1314 269.79H24.3945V277.246H44.1314V269.79Z" fill="#63B3ED"/>
<path d="M44.1314 299.884L24.3945 288.869V269.79H44.1314V299.884Z" stroke="#102D3B" stroke-width="8" stroke-miterlimit="10" stroke-linecap="round" stroke-linejoin="round"/>
</svg>
