<svg width="414" height="283" viewBox="0 0 414 283" fill="none" xmlns="http://www.w3.org/2000/svg">
<g clip-path="url(#clip0_20_291)">
<path d="M387.113 250.729H15.1402C11.1247 250.729 7.27378 249.126 4.43445 246.273C1.59512 243.42 0 239.55 0 235.516H0C-3.43156e-07 231.48 1.59492 227.61 4.43407 224.756C7.27322 221.902 11.1242 220.297 15.1402 220.296H387.113C391.129 220.297 394.98 221.902 397.819 224.756C400.659 227.61 402.254 231.48 402.254 235.516C402.254 239.55 400.658 243.42 397.819 246.273C394.98 249.126 391.129 250.729 387.113 250.729Z" fill="#2A4365"/>
<path d="M337.366 85.1912V52.5744C337.366 46.5671 334.991 40.8058 330.764 36.558C326.536 32.3102 320.803 29.9238 314.825 29.9238C308.846 29.9238 303.113 32.3102 298.886 36.558C294.658 40.8058 292.283 46.5671 292.283 52.5744V85.1912C292.283 95.2034 288.325 104.805 281.28 111.885C274.234 118.965 264.679 122.942 254.715 122.942V218.578C254.715 222.583 256.298 226.424 259.116 229.256C261.934 232.087 265.757 233.678 269.742 233.678H359.907C363.893 233.678 367.715 232.087 370.533 229.256C373.351 226.424 374.934 222.583 374.934 218.578V122.942C364.971 122.942 355.415 118.965 348.369 111.885C341.324 104.805 337.366 95.2034 337.366 85.1912Z" fill="#2B6CB0"/>
<path d="M316.334 29.9238H306.059V35.1712H316.334V29.9238Z" fill="#72361F"/>
<path d="M328.6 85.1912V52.5744C328.6 46.5671 326.225 40.8058 321.998 36.558C317.771 32.3102 312.037 29.9238 306.059 29.9238C300.081 29.9238 294.347 32.3102 290.12 36.558C285.893 40.8058 283.518 46.5671 283.518 52.5744V85.1912C283.518 95.2034 279.56 104.805 272.514 111.885C265.469 118.965 255.913 122.942 245.949 122.942V218.578C245.949 222.583 247.532 226.424 250.351 229.256C253.169 232.087 256.991 233.678 260.977 233.678H351.141C355.127 233.678 358.949 232.087 361.767 229.256C364.586 226.424 366.169 222.583 366.169 218.578V122.942C356.205 122.942 346.649 118.965 339.604 111.885C332.558 104.805 328.6 95.2034 328.6 85.1912Z" fill="#2C5282"/>
<path d="M366.169 122.942C359.469 122.942 352.891 121.141 347.116 117.725C341.342 114.31 336.581 109.405 333.328 103.519L298.577 117.657L280.951 127.428L322.677 133.972L366.169 125.258V122.942Z" fill="#2C5282"/>
<path d="M306.09 60.5525C310.24 60.5525 313.604 57.1722 313.604 53.0023C313.604 48.8325 310.24 45.4521 306.09 45.4521C301.94 45.4521 298.576 48.8325 298.576 53.0023C298.576 57.1722 301.94 60.5525 306.09 60.5525Z" fill="#783F21"/>
<path d="M98.8051 29.9175H90.0391V32.2643H98.8051V29.9175Z" fill="#72361F"/>
<path d="M306.096 45.4521H90.0391V60.5525H306.096V45.4521Z" fill="#2C5282"/>
<path opacity="0.44" d="M182.634 45.4521H172.672V60.4519H182.634V45.4521Z" fill="#2C5282"/>
<path opacity="0.44" d="M134.001 45.4521H118.31V60.4519H134.001V45.4521Z" fill="#2C5282"/>
<path opacity="0.44" d="M254.716 45.4521H240.972V60.4519H254.716V45.4521Z" fill="#2C5282"/>
<path d="M166.579 40.0789H166.535L161.044 25.3434L165.546 4.86353H177.355L181.851 25.3434L176.366 40.0789H176.322V84.3356H166.579V40.0789Z" fill="#C9C9C9"/>
<path d="M173.235 40.0789L178.72 25.3434L174.225 4.86353H177.355L181.851 25.3434L176.366 40.0789H176.322V84.3356H173.191V40.0789H173.235Z" fill="#B5B5B5"/>
<path d="M156.36 175.542V103.702C156.361 102.051 156.843 100.437 157.746 99.0578C158.65 97.6792 159.936 96.5966 161.445 95.9439C161.725 95.8158 161.968 95.618 162.151 95.3692C162.334 95.1204 162.45 94.8289 162.49 94.5221C162.529 94.2153 162.49 93.9035 162.376 93.6161C162.262 93.3288 162.078 93.0753 161.839 92.8798L157.65 89.3815C157.098 88.9212 156.655 88.3442 156.35 87.6916C156.046 87.039 155.889 86.327 155.891 85.6065V82.2907C155.891 81.6816 156.131 81.0975 156.56 80.6668C156.989 80.2361 157.57 79.9941 158.176 79.9941H184.712C185.012 79.9933 185.31 80.0522 185.588 80.1673C185.865 80.2824 186.118 80.4515 186.33 80.6649C186.542 80.8783 186.711 81.1318 186.825 81.4108C186.94 81.6898 186.998 81.9888 186.997 82.2907V85.6065C186.999 86.327 186.842 87.039 186.538 87.6916C186.233 88.3442 185.79 88.9212 185.238 89.3815L181.055 92.8798C180.817 93.0749 180.631 93.3279 180.517 93.6149C180.403 93.902 180.363 94.2136 180.402 94.5203C180.441 94.827 180.557 95.1187 180.739 95.3678C180.921 95.6169 181.164 95.8152 181.444 95.9439C182.953 96.596 184.239 97.6783 185.143 99.0572C186.046 100.436 186.528 102.051 186.528 103.702V175.542C186.528 176.651 186.31 177.749 185.888 178.773C185.466 179.797 184.847 180.728 184.067 181.512C183.286 182.296 182.36 182.918 181.341 183.343C180.321 183.767 179.228 183.985 178.125 183.985H164.763C163.66 183.985 162.567 183.767 161.547 183.343C160.528 182.918 159.602 182.296 158.821 181.512C158.041 180.728 157.422 179.797 157 178.773C156.578 177.749 156.36 176.651 156.36 175.542Z" fill="#F45145"/>
<path d="M181.526 175.542V103.702C181.526 102.051 181.044 100.436 180.14 99.0572C179.237 97.6783 177.951 96.596 176.441 95.9439C176.161 95.8152 175.919 95.6169 175.737 95.3678C175.554 95.1187 175.438 94.827 175.4 94.5203C175.361 94.2136 175.4 93.902 175.515 93.6149C175.629 93.3279 175.814 93.0749 176.053 92.8798L180.242 89.3815C180.792 88.92 181.234 88.3426 181.537 87.6902C181.84 87.0378 181.996 86.3264 181.995 85.6065V82.2907C181.996 81.9888 181.937 81.6898 181.823 81.4108C181.708 81.1318 181.54 80.8783 181.328 80.6649C181.115 80.4515 180.863 80.2824 180.585 80.1673C180.308 80.0522 180.01 79.9933 179.71 79.9941H184.719C185.019 79.9933 185.317 80.0522 185.594 80.1673C185.872 80.2824 186.124 80.4515 186.337 80.6649C186.549 80.8783 186.717 81.1318 186.832 81.4108C186.947 81.6898 187.005 81.9888 187.004 82.2907V85.6065C187.006 86.3264 186.849 87.0378 186.546 87.6902C186.243 88.3426 185.801 88.92 185.251 89.3815L181.062 92.8798C180.823 93.0749 180.638 93.3279 180.524 93.6149C180.409 93.902 180.37 94.2136 180.409 94.5203C180.448 94.827 180.564 95.1187 180.746 95.3678C180.928 95.6169 181.171 95.8152 181.45 95.9439C182.96 96.596 184.246 97.6783 185.15 99.0572C186.053 100.436 186.535 102.051 186.535 103.702V175.542C186.536 176.65 186.319 177.748 185.897 178.773C185.476 179.797 184.857 180.728 184.078 181.512C183.298 182.296 182.372 182.918 181.353 183.343C180.334 183.767 179.241 183.985 178.138 183.985H173.129C175.356 183.984 177.492 183.093 179.067 181.51C180.641 179.927 181.526 177.78 181.526 175.542Z" fill="#DB493E"/>
<path d="M168.777 171.647V111.661C168.777 110.826 168.447 110.026 167.86 109.436C167.273 108.846 166.477 108.515 165.646 108.515C164.816 108.515 164.02 108.846 163.433 109.436C162.845 110.026 162.516 110.826 162.516 111.661V171.647C162.516 172.481 162.845 173.282 163.433 173.872C164.02 174.462 164.816 174.793 165.646 174.793C166.477 174.793 167.273 174.462 167.86 173.872C168.447 173.282 168.777 172.481 168.777 171.647ZM180.38 171.647V111.661C180.38 110.826 180.05 110.026 179.463 109.436C178.875 108.846 178.079 108.515 177.249 108.515C176.418 108.515 175.622 108.846 175.035 109.436C174.448 110.026 174.118 110.826 174.118 111.661V171.647C174.118 172.481 174.448 173.282 175.035 173.872C175.622 174.462 176.418 174.793 177.249 174.793C178.079 174.793 178.875 174.462 179.463 173.872C180.05 173.282 180.38 172.481 180.38 171.647Z" fill="#AA3930"/>
<path d="M260.438 4.5678L256.681 8.70782C256.043 9.41365 255.169 9.85842 254.225 9.95708C253.281 10.0557 252.334 9.80138 251.566 9.24263C247.978 6.6441 242.105 2.20208 234.66 1.61694C223.915 0.761248 216.646 4.54263 210.065 9.73968C200.328 17.422 194.23 26.6269 190.974 32.2518C193.384 34.3973 194.455 35.0517 196.365 36.6058C199.458 33.4032 205.475 26.6395 213.953 24.5255C216.029 23.9041 218.239 23.9041 220.315 24.5255C221.944 25.0546 223.406 26.005 224.554 27.2813C226.334 29.3735 227.222 32.0859 227.027 34.8315V59.2941H243.025V35.9263C242.743 31.824 244.484 28.0866 247.533 26.4885C247.759 26.3627 250.789 24.8212 253.719 25.9537C255.848 26.7779 258.466 29.238 260.494 31.1445C260.924 31.5639 261.439 31.8857 262.003 32.0882C262.455 32.2418 262.93 32.3142 263.406 32.3022C266.299 32.233 272.172 32.0882 276.248 31.9498C277.174 31.9188 278.051 31.5273 278.695 30.8581C279.339 30.1888 279.699 29.2943 279.698 28.3635V7.08453C279.7 6.14416 279.334 5.24069 278.68 4.56872C278.025 3.89675 277.134 3.51005 276.198 3.4919C272.297 3.4164 266.806 3.32831 263.494 3.2591C262.921 3.24464 262.351 3.354 261.824 3.57978C261.297 3.80556 260.824 4.14251 260.438 4.5678Z" fill="#C9C9C9"/>
<path d="M218.994 23.3865C217.661 21.9144 215.969 20.8171 214.085 20.2029C211.684 19.4848 209.128 19.4848 206.727 20.2029C202.349 21.3855 198.264 23.4703 194.73 26.3248C193.209 28.5269 191.963 30.5529 190.974 32.2517C193.384 34.3972 194.455 35.0516 196.365 36.6056C199.458 33.4031 205.475 26.6394 213.953 24.5253C215.842 23.9726 217.841 23.9163 219.757 24.3618C219.52 24.0235 219.265 23.6979 218.994 23.3865ZM278.778 28.7849C274.088 28.9422 267.276 29.1121 263.926 29.1939C263.375 29.2061 262.826 29.121 262.304 28.9422C261.65 28.7103 261.054 28.339 260.557 27.8537C258.209 25.6453 255.185 22.8203 252.718 21.845C249.336 20.5363 245.83 22.3232 245.567 22.4742C242.042 24.3618 240.026 28.6591 240.351 33.4031V59.2877H243.025V35.9261C242.743 31.8239 244.484 28.0865 247.533 26.4884C247.759 26.3688 250.789 24.8273 253.719 25.9599C255.848 26.7841 258.466 29.2442 260.494 31.1506C260.924 31.5701 261.439 31.8919 262.003 32.0944C262.455 32.2479 262.93 32.3203 263.406 32.3083C266.299 32.2391 272.172 32.0944 276.248 31.956C277.124 31.9277 277.96 31.5758 278.594 30.9675C279.228 30.3593 279.617 29.5373 279.686 28.6591C279.389 28.736 279.084 28.7783 278.778 28.7849Z" fill="#ABABAB"/>
<path d="M237.039 170.628H234.033C226.163 170.628 219.87 162.845 220.158 153.476L223.076 59.2878H247.996L250.908 153.476C251.202 162.845 244.903 170.628 237.039 170.628Z" fill="#3B69A9"/>
<path d="M250.915 153.476L247.997 59.2878H241.929L244.822 153.476C245.091 162.228 239.613 169.596 232.475 170.527C232.983 170.593 233.496 170.626 234.009 170.628H237.014C244.904 170.628 251.203 162.845 250.915 153.476Z" fill="#355E98"/>
<path d="M251.246 66.882H219.826C218.83 66.882 217.874 66.4842 217.17 65.7763C216.465 65.0683 216.069 64.1081 216.069 63.1069C216.069 62.1057 216.465 61.1455 217.17 60.4375C217.874 59.7295 218.83 59.3318 219.826 59.3318H251.246C252.243 59.3318 253.198 59.7295 253.903 60.4375C254.607 61.1455 255.003 62.1057 255.003 63.1069C255.003 64.1081 254.607 65.0683 253.903 65.7763C253.198 66.4842 252.243 66.882 251.246 66.882Z" fill="#355E98"/>
<path opacity="0.23" d="M221.861 100.707L248.635 82.1836L249.167 99.2156L221.423 114.863L221.861 100.707Z" fill="#72361F"/>
<path d="M322.313 28.3887L155.966 157.893L188.419 199.986L372.718 93.1441L322.313 28.3887Z" fill="#C9C9C9"/>
<path d="M365.43 82.5737L180.448 189.541L188.657 200.181L370.364 94.4841L365.43 82.5737Z" fill="#E1E1E1"/>
<path d="M410.75 50.5043L376.475 6.09031C373.933 2.80621 370.2 0.667751 366.093 0.143009C361.986 -0.381733 357.839 0.749986 354.56 3.29045L350.96 6.09661L363.702 22.6504C364.569 22.3631 365.475 22.2103 366.388 22.1974H366.482H367.108H367.208C367.803 22.2412 368.392 22.3424 368.968 22.4994C369.056 22.4994 369.149 22.5434 369.237 22.5749L369.663 22.7133L370.007 22.8454L370.377 23.0027L370.809 23.2229L371.072 23.3614C371.287 23.4888 371.496 23.6274 371.698 23.7766L371.917 23.9402C372.067 24.0472 372.218 24.1604 372.362 24.28L372.587 24.475C372.731 24.6072 372.869 24.7393 373 24.8777C373.132 25.0161 373.132 25.0035 373.188 25.0665C373.382 25.2741 373.57 25.488 373.745 25.6956L390.025 46.8173C390.2 47.0415 390.363 47.2746 390.513 47.5157C390.563 47.5912 390.607 47.673 390.651 47.7485C390.695 47.824 390.845 48.0819 390.933 48.2518L391.064 48.5224C391.146 48.6923 391.215 48.8684 391.284 49.0383L391.39 49.2963C391.478 49.5416 391.553 49.787 391.622 50.0324C391.622 50.1331 391.666 50.2275 391.691 50.3281C391.716 50.4288 391.759 50.6427 391.791 50.8063C391.822 50.9699 391.828 51.0706 391.847 51.2027C391.866 51.3348 391.847 51.4481 391.891 51.5739C391.935 51.6997 391.891 51.8696 391.922 52.0143C391.954 52.159 391.922 52.2094 391.922 52.3038C391.928 52.9028 391.878 53.5011 391.772 54.0906V54.1913C391.734 54.3926 391.684 54.594 391.634 54.8205C391.634 54.8205 391.634 54.8834 391.634 54.9086C391.391 55.7991 391.015 56.6476 390.52 57.4253L404.057 74.9795L406.186 73.7211C408.116 72.5995 409.786 71.0763 411.083 69.2537C412.38 67.4311 413.275 65.351 413.707 63.1527C414.139 60.9545 414.099 58.6888 413.589 56.5074C413.079 54.3261 412.111 52.2793 410.75 50.5043Z" fill="#FDC457"/>
<path d="M386.456 42.155L370.176 21.0334C370.001 20.8069 369.819 20.5929 369.625 20.4042L369.437 20.2091C369.3 20.077 369.162 19.9386 369.018 19.8127C368.947 19.7429 368.872 19.6777 368.793 19.6177L368.354 19.2717C368.279 19.215 368.21 19.1584 368.129 19.1081C367.916 18.9634 367.703 18.8249 367.503 18.6928L367.24 18.5607L366.801 18.3405L366.432 18.1832C366.319 18.1391 366.207 18.0888 366.088 18.051L365.668 17.9063L365.393 17.8308C364.817 17.6738 364.228 17.5727 363.633 17.5288H363.533C363.326 17.5288 363.12 17.5288 362.907 17.5288H362.819C361.906 17.547 361.001 17.7018 360.133 17.9881L350.96 6.08398L363.702 22.6504C364.57 22.3646 365.475 22.2098 366.388 22.1911H366.482C366.689 22.1911 366.895 22.1911 367.108 22.1911H367.208C367.803 22.2297 368.393 22.3288 368.968 22.4868L369.243 22.5686C369.381 22.6063 369.519 22.6567 369.663 22.707L370.007 22.8391L370.377 22.9964L370.809 23.2166C370.896 23.2607 370.99 23.3047 371.072 23.355C371.297 23.4809 371.516 23.6193 371.698 23.764L371.917 23.9276C372.067 24.0409 372.218 24.1541 372.362 24.2737L372.587 24.4687L373.006 24.8714L373.188 25.0601C373.382 25.2678 373.57 25.4817 373.745 25.6893L386.719 42.52C386.65 42.4256 386.563 42.2809 386.456 42.155ZM410.75 50.5043L407.682 46.5216C408.901 48.3087 409.739 50.3295 410.145 52.4574C410.55 54.5853 410.513 56.7743 410.037 58.8873C409.561 61.0002 408.655 62.9916 407.377 64.7365C406.099 66.4814 404.477 67.9422 402.611 69.0274L400.475 70.2858L390.526 57.3938L404.063 74.948L406.198 73.6897C408.123 72.5665 409.787 71.0439 411.08 69.2233C412.373 67.4027 413.264 65.3261 413.695 63.1319C414.126 60.9377 414.086 58.6764 413.578 56.4989C413.07 54.3214 412.106 52.2778 410.75 50.5043Z" fill="#F2B24C"/>
<path d="M371.723 23.7956C371.521 23.6464 371.312 23.5077 371.097 23.3803C371.312 23.5077 371.521 23.6464 371.723 23.7956ZM372.612 24.494L373.006 24.8715L372.612 24.494ZM370.802 23.2356L370.37 23.0154L370.802 23.2356ZM391.878 51.2342C391.878 51.3538 391.878 51.4796 391.916 51.5992C391.916 51.4796 391.916 51.3538 391.878 51.2342ZM370.001 22.8581L369.844 22.8015L370.001 22.8581ZM367.202 22.2289H367.102H367.202ZM391.778 50.668L391.816 50.8504L391.778 50.668ZM391.415 49.3404C391.471 49.4977 391.515 49.655 391.565 49.8186C391.515 49.6613 391.471 49.4977 391.415 49.3404ZM391.947 52.0648C391.947 52.1591 391.947 52.2535 391.947 52.3479C391.966 52.222 391.966 52.1466 391.966 52.0522L391.947 52.0648ZM391.089 48.5728C391.127 48.6483 391.158 48.7301 391.19 48.8056C391.19 48.7301 391.127 48.6483 391.089 48.5728ZM390.507 57.4317C389.951 58.3103 389.248 59.0852 388.428 59.7219L383.106 63.8682C379.268 66.8502 374.408 68.1798 369.595 67.5652C364.782 66.9507 360.408 64.4421 357.434 60.5902L352.425 54.0781C349.458 50.2212 348.135 45.3394 348.745 40.5035C349.356 35.6676 351.85 31.2723 355.681 28.2817L361.003 24.1416C361.812 23.4944 362.725 22.9901 363.702 22.6505L350.941 6.09668L317.58 32.0882L367.146 96.3781L406.173 73.7275L404.044 74.9859L390.507 57.4317ZM390.676 47.8178L390.826 48.082C390.776 47.9939 390.732 47.9059 390.676 47.8178ZM390.05 46.8866C390.225 47.1131 390.382 47.3459 390.532 47.585C390.388 47.3144 390.232 47.0816 390.088 46.8551L390.05 46.8866Z" fill="#323B40"/>
<path d="M404.038 74.9734L367.152 96.3593L363.777 91.9928L400.519 70.4055L404.038 74.9734Z" fill="#2D363A"/>
<path d="M357.403 233.672H138.178V122.936H366.163V224.863C366.163 227.198 365.24 229.438 363.598 231.09C361.955 232.741 359.727 233.67 357.403 233.672Z" fill="#2B6CB0"/>
<path d="M139.01 154.055C142.123 154.055 144.646 151.52 144.646 148.393C144.646 145.265 142.123 142.73 139.01 142.73C135.898 142.73 133.375 145.265 133.375 148.393C133.375 151.52 135.898 154.055 139.01 154.055Z" fill="#783F21"/>
<path d="M121.346 85.1848V52.5617C121.346 46.5544 118.971 40.7931 114.744 36.5453C110.517 32.2975 104.783 29.9111 98.8051 29.9111C92.8268 29.9111 87.0934 32.2975 82.8661 36.5453C78.6388 40.7931 76.264 46.5544 76.264 52.5617V85.1848C76.264 95.197 72.3058 104.799 65.2604 111.879C58.2149 118.958 48.6591 122.936 38.6953 122.936V218.572C38.6953 222.576 40.2786 226.417 43.0968 229.249C45.9149 232.081 49.7372 233.672 53.7228 233.672H143.887C147.873 233.672 151.695 232.081 154.514 229.249C157.332 226.417 158.915 222.576 158.915 218.572V122.936C148.951 122.936 139.395 118.958 132.35 111.879C125.304 104.799 121.346 95.197 121.346 85.1848Z" fill="#2C5282"/>
<path d="M359.989 233.666H144.928L154.301 224.857H368.129L359.989 233.666Z" fill="#2C5282"/>
<path d="M366.169 122.936V218.572C366.169 220.24 365.509 221.841 364.335 223.021C363.161 224.2 361.568 224.863 359.908 224.863H332.069V233.672H359.908C363.893 233.672 367.716 232.081 370.534 229.249C373.352 226.417 374.935 222.576 374.935 218.572V122.936H366.169Z" fill="#2C5282"/>
<path d="M112.581 85.1848V52.5617C112.581 46.5544 110.206 40.7931 105.978 36.5453C101.751 32.2975 96.0178 29.9111 90.0395 29.9111C84.0612 29.9111 78.3278 32.2975 74.1005 36.5453C69.8732 40.7931 67.4983 46.5544 67.4983 52.5617V85.1848C67.4983 95.197 63.5402 104.799 56.4947 111.879C49.4492 118.958 39.8935 122.936 29.9297 122.936V218.572C29.9297 222.576 31.5129 226.417 34.3311 229.249C37.1493 232.081 40.9716 233.672 44.9571 233.672H135.122C139.107 233.672 142.93 232.081 145.748 229.249C148.566 226.417 150.149 222.576 150.149 218.572V122.936C140.185 122.936 130.63 118.958 123.584 111.879C116.539 104.799 112.581 95.197 112.581 85.1848Z" fill="#63B3ED"/>
<path d="M31.3076 224.864C32.5062 227.491 34.43 229.718 36.8508 231.279C39.2715 232.841 42.0873 233.671 44.9638 233.672H135.128C138.006 233.672 140.823 232.842 143.245 231.281C145.667 229.72 147.592 227.492 148.791 224.864H31.3076Z" fill="#90CDF4"/>
<path d="M139.01 183.967C142.123 183.967 144.646 181.431 144.646 178.304C144.646 175.177 142.123 172.641 139.01 172.641C135.898 172.641 133.375 175.177 133.375 178.304C133.375 181.431 135.898 183.967 139.01 183.967Z" fill="#2C5282"/>
<path d="M139.01 154.055C142.123 154.055 144.646 151.52 144.646 148.393C144.646 145.265 142.123 142.73 139.01 142.73C135.898 142.73 133.375 145.265 133.375 148.393C133.375 151.52 135.898 154.055 139.01 154.055Z" fill="#2C5282"/>
<path d="M139.01 213.872C142.123 213.872 144.646 211.336 144.646 208.209C144.646 205.082 142.123 202.546 139.01 202.546C135.898 202.546 133.375 205.082 133.375 208.209C133.375 211.336 135.898 213.872 139.01 213.872Z" fill="#2C5282"/>
<path d="M40.4986 154.055C43.6109 154.055 46.1339 151.52 46.1339 148.393C46.1339 145.265 43.6109 142.73 40.4986 142.73C37.3863 142.73 34.8633 145.265 34.8633 148.393C34.8633 151.52 37.3863 154.055 40.4986 154.055Z" fill="#2C5282"/>
<path d="M40.4986 183.967C43.6109 183.967 46.1339 181.431 46.1339 178.304C46.1339 175.177 43.6109 172.641 40.4986 172.641C37.3863 172.641 34.8633 175.177 34.8633 178.304C34.8633 181.431 37.3863 183.967 40.4986 183.967Z" fill="#2C5282"/>
<path d="M40.4986 213.872C43.6109 213.872 46.1339 211.336 46.1339 208.209C46.1339 205.082 43.6109 202.546 40.4986 202.546C37.3863 202.546 34.8633 205.082 34.8633 208.209C34.8633 211.336 37.3863 213.872 40.4986 213.872Z" fill="#2C5282"/>
<path d="M90.0391 60.5525C94.1888 60.5525 97.5528 57.1722 97.5528 53.0023C97.5528 48.8325 94.1888 45.4521 90.0391 45.4521C85.8894 45.4521 82.5254 48.8325 82.5254 53.0023C82.5254 57.1722 85.8894 60.5525 90.0391 60.5525Z" fill="#2C5282"/>
</g>
<defs>
<clipPath id="clip0_20_291">
<rect width="414" height="283" fill="white"/>
</clipPath>
</defs>
</svg>
