<svg width="1182" height="345" viewBox="0 0 1182 345" fill="none" xmlns="http://www.w3.org/2000/svg">
<g clip-path="url(#clip0_602_15)">
<g clip-path="url(#clip1_602_15)">
<g clip-path="url(#clip2_602_15)">
<path d="M413.275 137.277C416.157 132.78 420.135 129.148 425.209 126.381C430.282 123.614 436.22 122.23 443.023 122.23C450.978 122.23 458.185 124.248 464.641 128.284C471.098 132.319 476.172 138.084 479.861 145.579C483.666 153.073 485.569 161.779 485.569 171.694C485.569 181.61 483.666 190.373 479.861 197.983C476.172 205.478 471.098 211.3 464.641 215.451C458.185 219.487 450.978 221.504 443.023 221.504C436.335 221.504 430.397 220.121 425.209 217.354C420.135 214.586 416.157 211.012 413.275 206.631V266.126H383.7V123.614H413.275V137.277ZM455.475 171.694C455.475 164.315 453.4 158.55 449.249 154.399C445.213 150.133 440.198 148 434.202 148C428.322 148 423.306 150.133 419.155 154.399C415.12 158.665 413.102 164.488 413.102 171.867C413.102 179.247 415.12 185.069 419.155 189.336C423.306 193.602 428.322 195.735 434.202 195.735C440.082 195.735 445.098 193.602 449.249 189.336C453.4 184.954 455.475 179.074 455.475 171.694ZM592.057 170.311C592.057 173.078 591.884 175.961 591.538 178.958H524.606C525.067 184.954 526.969 189.566 530.313 192.795C533.772 195.908 537.981 197.464 542.938 197.464C550.318 197.464 555.449 194.351 558.331 188.125H589.808C588.194 194.466 585.254 200.174 580.988 205.247C576.837 210.32 571.591 214.298 565.249 217.181C558.908 220.063 551.817 221.504 543.976 221.504C534.521 221.504 526.105 219.487 518.725 215.451C511.346 211.416 505.581 205.651 501.43 198.156C497.279 190.661 495.204 181.899 495.204 171.867C495.204 161.836 497.222 153.073 501.257 145.579C505.408 138.084 511.173 132.319 518.552 128.284C525.932 124.248 534.406 122.23 543.976 122.23C553.316 122.23 561.617 124.19 568.881 128.111C576.145 132.031 581.795 137.623 585.83 144.887C589.981 152.151 592.057 160.626 592.057 170.311ZM561.79 162.528C561.79 157.455 560.061 153.419 556.602 150.421C553.143 147.424 548.819 145.925 543.63 145.925C538.672 145.925 534.464 147.366 531.005 150.248C527.661 153.131 525.586 157.224 524.779 162.528H561.79ZM661.447 195.043V220.121H646.4C635.677 220.121 627.318 217.527 621.322 212.338C615.326 207.034 612.328 198.444 612.328 186.568V148.173H600.568V123.614H612.328V100.093H641.903V123.614H661.274V148.173H641.903V186.914C641.903 189.797 642.595 191.872 643.979 193.14C645.362 194.409 647.668 195.043 650.897 195.043H661.447ZM672.04 171.694C672.04 161.779 673.885 153.073 677.574 145.579C681.379 138.084 686.51 132.319 692.967 128.284C699.424 124.248 706.63 122.23 714.586 122.23C721.389 122.23 727.327 123.614 732.4 126.381C737.588 129.148 741.566 132.78 744.334 137.277V123.614H773.908V220.121H744.334V206.458C741.451 210.954 737.415 214.586 732.227 217.354C727.154 220.121 721.216 221.504 714.413 221.504C706.572 221.504 699.424 219.487 692.967 215.451C686.51 211.3 681.379 205.478 677.574 197.983C673.885 190.373 672.04 181.61 672.04 171.694ZM744.334 171.867C744.334 164.488 742.258 158.665 738.107 154.399C734.072 150.133 729.114 148 723.233 148C717.353 148 712.338 150.133 708.187 154.399C704.151 158.55 702.133 164.315 702.133 171.694C702.133 179.074 704.151 184.954 708.187 189.336C712.338 193.602 717.353 195.735 723.233 195.735C729.114 195.735 734.072 193.602 738.107 189.336C742.258 185.069 744.334 179.247 744.334 171.867ZM824.879 92.1368V220.121H795.304V92.1368H824.879ZM912.537 137.277C915.419 132.78 919.397 129.148 924.471 126.381C929.544 123.614 935.482 122.23 942.285 122.23C950.24 122.23 957.447 124.248 963.903 128.284C970.36 132.319 975.434 138.084 979.123 145.579C982.928 153.073 984.831 161.779 984.831 171.694C984.831 181.61 982.928 190.373 979.123 197.983C975.434 205.478 970.36 211.3 963.903 215.451C957.447 219.487 950.24 221.504 942.285 221.504C935.597 221.504 929.659 220.121 924.471 217.354C919.397 214.586 915.419 211.012 912.537 206.631V266.126H882.962V123.614H912.537V137.277ZM954.737 171.694C954.737 164.315 952.662 158.55 948.511 154.399C944.475 150.133 939.46 148 933.464 148C927.584 148 922.568 150.133 918.417 154.399C914.382 158.665 912.364 164.488 912.364 171.867C912.364 179.247 914.382 185.069 918.417 189.336C922.568 193.602 927.584 195.735 933.464 195.735C939.344 195.735 944.36 193.602 948.511 189.336C952.662 184.954 954.737 179.074 954.737 171.694ZM1029.92 139.698C1033.38 134.395 1037.7 130.244 1042.89 127.246C1048.08 124.133 1053.85 122.576 1060.19 122.576V153.88H1052.06C1044.68 153.88 1039.14 155.495 1035.46 158.723C1031.77 161.836 1029.92 167.371 1029.92 175.326V220.121H1000.35V123.614H1029.92V139.698ZM1118.25 221.504C1108.8 221.504 1100.27 219.487 1092.66 215.451C1085.16 211.416 1079.22 205.651 1074.84 198.156C1070.58 190.661 1068.44 181.899 1068.44 171.867C1068.44 161.952 1070.63 153.246 1075.02 145.752C1079.4 138.142 1085.39 132.319 1093 128.284C1100.61 124.248 1109.14 122.23 1118.6 122.23C1128.05 122.23 1136.59 124.248 1144.2 128.284C1151.81 132.319 1157.8 138.142 1162.18 145.752C1166.56 153.246 1168.75 161.952 1168.75 171.867C1168.75 181.783 1166.51 190.546 1162.01 198.156C1157.63 205.651 1151.58 211.416 1143.85 215.451C1136.24 219.487 1127.71 221.504 1118.25 221.504ZM1118.25 195.908C1123.9 195.908 1128.69 193.832 1132.61 189.681C1136.64 185.531 1138.66 179.593 1138.66 171.867C1138.66 164.142 1136.7 158.204 1132.78 154.053C1128.98 149.903 1124.25 147.827 1118.6 147.827C1112.83 147.827 1108.05 149.903 1104.24 154.053C1100.44 158.089 1098.54 164.027 1098.54 171.867C1098.54 179.593 1100.38 185.531 1104.07 189.681C1107.88 193.832 1112.6 195.908 1118.25 195.908Z" fill="#2E2E2E"/>
</g>
<g clip-path="url(#clip3_602_15)">
<g clip-path="url(#clip4_602_15)">
<path d="M159.734 99.7972C165.478 121.473 163.627 143.834 157.363 155.005C145.858 153.034 122.506 129.399 116.487 109.102C111.857 93.4889 108.779 62.8849 121.367 52.2143C131.727 55.1555 146.325 61.7233 159.734 99.7972Z" fill="#2B6CB0"/>
<path d="M103.39 139.366C127.957 145.443 143.855 157.07 150.562 167.896C143.192 177.002 111.042 186.076 90.3183 181.607C74.3774 178.169 46.0728 166.192 42.9069 150.08C50.5648 142.439 77.1489 133.566 103.39 139.366Z" fill="#2B6CB0"/>
<path d="M104.867 202.58C124.772 184.304 143.943 181.515 156.648 182.839C159.262 194.199 146.477 225.053 130.094 238.646C117.491 249.102 90.4787 264.083 75.7994 256.746C74.5201 246.054 81.3395 222.655 104.867 202.58Z" fill="#3182CE"/>
<path d="M160.794 249.752C161.315 218.227 164.324 205.636 172.361 195.655C183.361 199.52 202.408 226.746 204.942 247.784C206.891 263.967 204.805 294.688 190.622 303.12C180.911 298.488 160.674 273.918 160.794 249.752Z" fill="#63B3ED"/>
<path d="M219.484 235.015C202.29 220.638 196.342 208.179 195.234 197.99C203.71 193.906 230.094 198.391 243.534 208.789C253.873 216.787 270.201 235.263 266.922 248.077C258.744 250.996 235.166 248.127 219.484 235.015Z" fill="#63B3ED"/>
<path d="M259.199 199.173C239.321 191.59 232.049 186.789 227.632 179.404C232.706 173.328 254.519 167.533 268.472 170.77C279.204 173.259 298.199 181.648 300.169 192.567C294.916 197.65 279.535 203.593 259.199 199.173Z" fill="#90CDF4"/>
<path d="M276.996 159.304C261.391 157.104 255.349 154.839 250.944 150.245C253.61 145.037 268.413 137.285 279.023 137.327C287.185 137.359 302.285 140.283 305.503 147.824C302.544 152.346 292.411 159.15 276.996 159.304Z" fill="#90CDF4"/>
</g>
</g>
</g>
</g>
<defs>
<clipPath id="clip0_602_15">
<rect width="1182" height="345" fill="white"/>
</clipPath>
<clipPath id="clip1_602_15">
<rect width="1186.73" height="345.26" fill="white" transform="translate(1)"/>
</clipPath>
<clipPath id="clip2_602_15">
<rect width="814.368" height="230.598" fill="white" transform="translate(373.259 58.9067)"/>
</clipPath>
<clipPath id="clip3_602_15">
<rect width="293.82" height="293.82" fill="white" transform="translate(27.7425 27.5605)"/>
</clipPath>
<clipPath id="clip4_602_15">
<rect width="293.82" height="293.82" fill="white" transform="translate(27.7425 27.5605)"/>
</clipPath>
</defs>
</svg>
