<svg width="512" height="512" viewBox="0 0 512 512" fill="none" xmlns="http://www.w3.org/2000/svg">
<g clip-path="url(#clip0_502_73)">
<g clip-path="url(#clip1_502_73)">
<path d="M233.789 145.629C242.264 177.609 239.533 210.6 230.291 227.081C213.318 224.173 178.864 189.302 169.985 159.357C163.154 136.322 158.612 91.1702 177.185 75.4271C192.469 79.7665 214.007 89.4564 233.789 145.629Z" fill="#2B6CB0"/>
<path d="M150.661 204.008C186.907 212.973 210.362 230.127 220.257 246.099C209.384 259.534 161.95 272.922 131.376 266.328C107.857 261.256 66.0979 243.585 61.4271 219.814C72.7253 208.541 111.946 195.451 150.661 204.008Z" fill="#2B6CB0"/>
<path d="M152.841 297.271C182.208 270.308 210.492 266.193 229.236 268.146C233.092 284.905 214.231 330.427 190.059 350.481C171.466 365.907 131.613 388.011 109.955 377.186C108.068 361.411 118.129 326.888 152.841 297.271Z" fill="#3182CE"/>
<path d="M235.353 366.867C236.122 320.356 240.561 301.78 252.419 287.055C268.649 292.757 296.749 332.925 300.487 363.964C303.362 387.84 300.285 433.164 279.361 445.604C265.034 438.771 235.176 402.52 235.353 366.867Z" fill="#63B3ED"/>
<path d="M321.942 345.124C296.575 323.914 287.8 305.533 286.164 290.499C298.67 284.474 337.596 291.09 357.425 306.432C372.679 318.232 396.768 345.491 391.93 364.397C379.865 368.703 345.079 364.469 321.942 345.124Z" fill="#63B3ED"/>
<path d="M380.536 292.245C351.208 281.058 340.48 273.973 333.963 263.078C341.449 254.114 373.632 245.565 394.217 250.339C410.051 254.012 438.076 266.389 440.982 282.498C433.232 289.997 410.539 298.766 380.536 292.245Z" fill="#90CDF4"/>
<path d="M406.793 233.423C383.77 230.177 374.856 226.836 368.357 220.058C372.29 212.375 394.131 200.937 409.785 200.999C421.826 201.046 444.103 205.361 448.851 216.486C444.486 223.158 429.536 233.196 406.793 233.423Z" fill="#90CDF4"/>
</g>
</g>
<defs>
<clipPath id="clip0_502_73">
<rect width="433.491" height="433.491" fill="white" transform="translate(39.0541 39.0541)"/>
</clipPath>
<clipPath id="clip1_502_73">
<rect width="433.491" height="433.491" fill="white" transform="translate(39.0541 39.0541)"/>
</clipPath>
</defs>
</svg>
