<svg width="1187" height="345" viewBox="0 0 1187 345" fill="none" xmlns="http://www.w3.org/2000/svg">
<g clip-path="url(#clip0_602_20)">
<g clip-path="url(#clip1_602_20)">
<g clip-path="url(#clip2_602_20)">
<path d="M412.275 137.277C415.157 132.78 419.135 129.148 424.209 126.381C429.282 123.614 435.22 122.23 442.023 122.23C449.978 122.23 457.185 124.248 463.641 128.284C470.098 132.319 475.172 138.084 478.861 145.579C482.666 153.073 484.569 161.779 484.569 171.694C484.569 181.61 482.666 190.373 478.861 197.983C475.172 205.478 470.098 211.3 463.641 215.451C457.185 219.487 449.978 221.504 442.023 221.504C435.335 221.504 429.397 220.121 424.209 217.354C419.135 214.586 415.157 211.012 412.275 206.631V266.126H382.7V123.614H412.275V137.277ZM454.475 171.694C454.475 164.315 452.4 158.55 448.249 154.399C444.213 150.133 439.198 148 433.202 148C427.322 148 422.306 150.133 418.155 154.399C414.12 158.665 412.102 164.488 412.102 171.867C412.102 179.247 414.12 185.069 418.155 189.336C422.306 193.602 427.322 195.735 433.202 195.735C439.082 195.735 444.098 193.602 448.249 189.336C452.4 184.954 454.475 179.074 454.475 171.694ZM591.057 170.311C591.057 173.078 590.884 175.961 590.538 178.958H523.606C524.067 184.954 525.969 189.566 529.313 192.795C532.772 195.908 536.98 197.464 541.938 197.464C549.318 197.464 554.449 194.351 557.331 188.125H588.808C587.194 194.466 584.254 200.174 579.988 205.247C575.837 210.32 570.591 214.298 564.249 217.181C557.908 220.063 550.817 221.504 542.976 221.504C533.521 221.504 525.104 219.487 517.725 215.451C510.346 211.416 504.581 205.651 500.43 198.156C496.279 190.661 494.204 181.899 494.204 171.867C494.204 161.836 496.222 153.073 500.257 145.579C504.408 138.084 510.173 132.319 517.552 128.284C524.932 124.248 533.406 122.23 542.976 122.23C552.315 122.23 560.617 124.19 567.881 128.111C575.145 132.031 580.795 137.623 584.83 144.887C588.981 152.151 591.057 160.626 591.057 170.311ZM560.79 162.528C560.79 157.455 559.061 153.419 555.602 150.421C552.143 147.424 547.819 145.925 542.63 145.925C537.672 145.925 533.464 147.366 530.005 150.248C526.661 153.131 524.586 157.224 523.779 162.528H560.79ZM660.447 195.043V220.121H645.4C634.677 220.121 626.318 217.527 620.322 212.338C614.326 207.034 611.328 198.444 611.328 186.568V148.173H599.568V123.614H611.328V100.093H640.903V123.614H660.274V148.173H640.903V186.914C640.903 189.797 641.595 191.872 642.978 193.14C644.362 194.409 646.668 195.043 649.897 195.043H660.447ZM671.04 171.694C671.04 161.779 672.885 153.073 676.574 145.579C680.379 138.084 685.51 132.319 691.967 128.284C698.424 124.248 705.63 122.23 713.586 122.23C720.389 122.23 726.327 123.614 731.4 126.381C736.588 129.148 740.566 132.78 743.334 137.277V123.614H772.908V220.121H743.334V206.458C740.451 210.954 736.415 214.586 731.227 217.354C726.154 220.121 720.216 221.504 713.413 221.504C705.572 221.504 698.424 219.487 691.967 215.451C685.51 211.3 680.379 205.478 676.574 197.983C672.885 190.373 671.04 181.61 671.04 171.694ZM743.334 171.867C743.334 164.488 741.258 158.665 737.107 154.399C733.072 150.133 728.114 148 722.233 148C716.353 148 711.338 150.133 707.187 154.399C703.151 158.55 701.133 164.315 701.133 171.694C701.133 179.074 703.151 184.954 707.187 189.336C711.338 193.602 716.353 195.735 722.233 195.735C728.114 195.735 733.072 193.602 737.107 189.336C741.258 185.069 743.334 179.247 743.334 171.867ZM823.879 92.1368V220.121H794.304V92.1368H823.879ZM911.537 137.277C914.419 132.78 918.397 129.148 923.47 126.381C928.544 123.614 934.482 122.23 941.284 122.23C949.24 122.23 956.447 124.248 962.903 128.284C969.36 132.319 974.433 138.084 978.123 145.579C981.928 153.073 983.831 161.779 983.831 171.694C983.831 181.61 981.928 190.373 978.123 197.983C974.433 205.478 969.36 211.3 962.903 215.451C956.447 219.487 949.24 221.504 941.284 221.504C934.597 221.504 928.659 220.121 923.47 217.354C918.397 214.586 914.419 211.012 911.537 206.631V266.126H881.962V123.614H911.537V137.277ZM953.737 171.694C953.737 164.315 951.662 158.55 947.511 154.399C943.475 150.133 938.46 148 932.464 148C926.584 148 921.568 150.133 917.417 154.399C913.382 158.665 911.364 164.488 911.364 171.867C911.364 179.247 913.382 185.069 917.417 189.336C921.568 193.602 926.584 195.735 932.464 195.735C938.344 195.735 943.36 193.602 947.511 189.336C951.662 184.954 953.737 179.074 953.737 171.694ZM1028.92 139.698C1032.38 134.395 1036.7 130.244 1041.89 127.246C1047.08 124.133 1052.85 122.576 1059.19 122.576V153.88H1051.06C1043.68 153.88 1038.14 155.495 1034.46 158.723C1030.77 161.836 1028.92 167.371 1028.92 175.326V220.121H999.346V123.614H1028.92V139.698ZM1117.25 221.504C1107.8 221.504 1099.27 219.487 1091.66 215.451C1084.16 211.416 1078.22 205.651 1073.84 198.156C1069.58 190.661 1067.44 181.899 1067.44 171.867C1067.44 161.952 1069.63 153.246 1074.02 145.752C1078.4 138.142 1084.39 132.319 1092 128.284C1099.61 124.248 1108.14 122.23 1117.6 122.23C1127.05 122.23 1135.59 124.248 1143.2 128.284C1150.81 132.319 1156.8 138.142 1161.18 145.752C1165.56 153.246 1167.75 161.952 1167.75 171.867C1167.75 181.783 1165.51 190.546 1161.01 198.156C1156.63 205.651 1150.58 211.416 1142.85 215.451C1135.24 219.487 1126.71 221.504 1117.25 221.504ZM1117.25 195.908C1122.9 195.908 1127.69 193.832 1131.61 189.681C1135.64 185.531 1137.66 179.593 1137.66 171.867C1137.66 164.142 1135.7 158.204 1131.78 154.053C1127.98 149.903 1123.25 147.827 1117.6 147.827C1111.83 147.827 1107.05 149.903 1103.24 154.053C1099.44 158.089 1097.54 164.027 1097.54 171.867C1097.54 179.593 1099.38 185.531 1103.07 189.681C1106.88 193.832 1111.6 195.908 1117.25 195.908Z" fill="white"/>
</g>
<g clip-path="url(#clip3_602_20)">
<g clip-path="url(#clip4_602_20)">
<path d="M158.734 99.7972C164.478 121.473 162.627 143.834 156.363 155.005C144.858 153.034 121.506 129.399 115.487 109.102C110.857 93.4889 107.779 62.8849 120.368 52.2143C130.727 55.1555 145.325 61.7233 158.734 99.7972Z" fill="#2B6CB0"/>
<path d="M102.39 139.366C126.957 145.443 142.855 157.07 149.562 167.896C142.192 177.002 110.042 186.076 89.3183 181.607C73.3774 178.169 45.0728 166.192 41.9069 150.08C49.5648 142.439 76.1489 133.566 102.39 139.366Z" fill="#2B6CB0"/>
<path d="M103.867 202.58C123.772 184.304 142.943 181.515 155.648 182.839C158.262 194.199 145.477 225.053 129.094 238.646C116.491 249.102 89.4787 264.083 74.7994 256.746C73.5202 246.054 80.3396 222.655 103.867 202.58Z" fill="#3182CE"/>
<path d="M159.794 249.752C160.315 218.227 163.324 205.636 171.361 195.655C182.361 199.52 201.408 226.746 203.942 247.784C205.891 263.967 203.805 294.688 189.622 303.12C179.911 298.488 159.674 273.918 159.794 249.752Z" fill="#63B3ED"/>
<path d="M218.484 235.015C201.29 220.638 195.342 208.18 194.234 197.99C202.71 193.906 229.094 198.391 242.534 208.789C252.873 216.788 269.201 235.263 265.922 248.078C257.744 250.996 234.166 248.127 218.484 235.015Z" fill="#63B3ED"/>
<path d="M258.199 199.173C238.321 191.59 231.049 186.789 226.632 179.404C231.706 173.328 253.519 167.533 267.472 170.77C278.204 173.259 297.199 181.648 299.169 192.567C293.916 197.65 278.535 203.593 258.199 199.173Z" fill="#90CDF4"/>
<path d="M275.996 159.304C260.391 157.104 254.349 154.839 249.944 150.245C252.61 145.037 267.413 137.285 278.023 137.327C286.185 137.359 301.285 140.283 304.503 147.824C301.544 152.346 291.411 159.15 275.996 159.304Z" fill="#90CDF4"/>
</g>
</g>
</g>
</g>
<defs>
<clipPath id="clip0_602_20">
<rect width="1187" height="345" fill="white"/>
</clipPath>
<clipPath id="clip1_602_20">
<rect width="1186.73" height="345.26" fill="white"/>
</clipPath>
<clipPath id="clip2_602_20">
<rect width="814.368" height="230.598" fill="white" transform="translate(372.259 58.9067)"/>
</clipPath>
<clipPath id="clip3_602_20">
<rect width="293.82" height="293.82" fill="white" transform="translate(26.7425 27.5605)"/>
</clipPath>
<clipPath id="clip4_602_20">
<rect width="293.82" height="293.82" fill="white" transform="translate(26.7425 27.5605)"/>
</clipPath>
</defs>
</svg>
