<?xml version="1.0" encoding="utf-8"?>
<!-- Generator: Adobe Illustrator 23.0.3, SVG Export Plug-In . SVG Version: 6.00 Build 0)  -->
<svg version="1.1" xmlns="http://www.w3.org/2000/svg" xmlns:xlink="http://www.w3.org/1999/xlink" x="0px" y="0px"
	 viewBox="0 0 600 600" style="enable-background:new 0 0 600 600;" xml:space="preserve">
<style type="text/css">
	.st0{fill:#202124;}
	.st1{fill:#FFFFFF;stroke:#000000;stroke-miterlimit:10;}
	.st2{fill:#709AEE;}
	.st3{fill:#FFFFFF;stroke:#202124;stroke-miterlimit:10;}
	.st4{fill:#5185EC;}
	.st5{fill:#FFFFFF;}
	.st6{fill:#232323;}
	.st7{fill:#E5E5E5;}
	.st8{fill:#FFFFFF;stroke:#000000;stroke-width:0.75;stroke-miterlimit:10;}
</style>
<g id="details">
	<g id="plant">
		<path class="st0" d="M441.1,504.9h-23.9c-1.5,0-2.8-1.1-3-2.6l-8.6-51.9c-0.3-1.9,1.1-3.6,3-3.6h39c1.9,0,3.3,1.6,3.1,3.5
			l-6.6,51.9C443.9,503.7,442.6,504.9,441.1,504.9z"/>
		<ellipse class="st1" cx="428.1" cy="448.9" rx="22.6" ry="7.5"/>
		<g>
			<g>
				<path class="st2" d="M414.4,404.7c-2.5,6.3-1.5,12.5,2.4,17.9c2.4,3.3,5.3,6.2,7.2,10c2.4,4.6,3.6,9.6,3.8,14.8
					c0.1,1.9,3.1,1.9,3,0c-0.3-6.9-2.1-13.5-5.9-19.3c-2-3-4.6-5.5-6.5-8.5c-2.8-4.5-3-9.3-1-14.1
					C418,403.7,415.1,402.9,414.4,404.7L414.4,404.7z"/>
			</g>
		</g>
		<g>
			<g>
				<path class="st2" d="M427.6,432.7c0-7.4,5.7-13.9,7.6-20.9c1.7-6.3,1.7-12.7,0.6-19.1c-0.3-1.9-3.2-1.1-2.9,0.8
					c1.4,7.9,0.6,15.8-2.6,23.2c-2.3,5.4-5.8,10-5.7,16.1C424.6,434.7,427.6,434.7,427.6,432.7L427.6,432.7z"/>
			</g>
		</g>
		<g>
			<g>
				<path class="st2" d="M433.8,415.5c4-4.9,8-10,10-16.1c2.5-7.5,0.6-15.6,2.8-23.2c0.5-1.9-2.4-2.6-2.9-0.8
					c-1.9,6.4-0.9,12.9-1.9,19.4c-1.2,7.2-5.7,13-10.2,18.6C430.5,414.9,432.6,417,433.8,415.5L433.8,415.5z"/>
			</g>
		</g>
		<g>
			<g>
				<path class="st2" d="M422.1,380c1.8,7.7-0.3,15.1-2.9,22.4c-1.9,5.4-4.8,11.1-4,17c0.2,1.9,3.2,1.9,3,0
					c-0.9-7.2,3.7-14.6,5.7-21.4c1.9-6.2,2.6-12.5,1.1-18.8C424.5,377.3,421.6,378.1,422.1,380L422.1,380z"/>
			</g>
		</g>
		<path class="st2" d="M423.7,392.3c-1.9-1.8-6-5.9-8.1-12.7c-2.5-8.4-0.3-15.5,0.6-17.9c2.1,2.8,5.1,7.8,6.8,14.8
			C424.6,383.2,424.2,388.9,423.7,392.3z"/>
		<path class="st2" d="M414.4,411c-0.7-0.4-6.8-3.5-8.3-10.7c-1.3-6.4,2.1-11.3,2.7-12.1c1.5,1.6,4.2,5.1,5.6,10.3
			C416,404.2,415,408.9,414.4,411z"/>
		<path class="st2" d="M418.4,422.4c0.4-2.5,1.1-5.5,2.3-8.8c1.5-4.2,3.4-7.5,5.1-9.9c3,4.1,3.3,9.4,0.9,13.4
			C424,421.4,419.2,422.2,418.4,422.4z"/>
		<path class="st2" d="M434.9,396.8c-1.4-1.5-4.2-4.7-5.3-9.5c-2-8.1,1.9-14.7,2.8-16c1.3,2.1,2.8,5.1,3.7,8.9
			C437.7,387.7,435.9,394,434.9,396.8z"/>
		<path class="st2" d="M444.2,380.7c-1.1-1.6-3.4-5.5-3.6-10.9c-0.3-7.1,3.2-12.1,4.3-13.6c1.1,1.9,3,5.8,3.1,11.1
			C448.2,374,445.4,378.8,444.2,380.7z"/>
		<path class="st2" d="M435,411.6c0.9-1.2,4.8-5.8,11.4-6.7c3.4-0.4,6.1,0.3,7.7,0.8c-0.4,0.8-3.2,5.8-9.3,7.2
			C440,414.1,436,412.2,435,411.6z"/>
		<path class="st2" d="M443.1,396.7c0.5-1.9,1.9-5.7,5.2-9.1c4.7-4.8,10.4-5.9,12.3-6.2c-0.4,1.9-1.5,5.5-4.6,8.9
			C451.1,395.8,444.8,396.6,443.1,396.7z"/>
	</g>
	<g id="tab_back">
		<polygon class="st3" points="87.8,105.8 87.8,282.9 284.5,230 290.8,83.4 		"/>
		<g>
			<g>
				<path class="st0" d="M107.9,125.5c55-10.2,111.1-10.4,166.3-19c0.5-0.1,0.3-0.8-0.2-0.7c-55.2,8.6-111.3,8.8-166.3,19
					C107.2,124.9,107.4,125.6,107.9,125.5L107.9,125.5z"/>
			</g>
		</g>
		<polygon class="st4" points="150.8,128.9 151.8,201.1 102.6,211.4 102.6,135.6 		"/>
		<g>
			<g>
				<path class="st5" d="M107.4,148c1.9,0,1.9-3,0-3C105.4,145,105.4,148,107.4,148L107.4,148z"/>
			</g>
		</g>
		<g>
			<g>
				<path class="st5" d="M108.4,174c1.9,0,1.9-3,0-3C106.5,171,106.5,174,108.4,174L108.4,174z"/>
			</g>
		</g>
		<g>
			<g>
				<path class="st5" d="M108.7,201.4c1.9,0,1.9-3,0-3C106.7,198.4,106.7,201.4,108.7,201.4L108.7,201.4z"/>
			</g>
		</g>
		<g>
			<g>
				<path class="st5" d="M119.8,142.1c3.5-0.5,6.9-0.9,10.4-1.4c0.5-0.1,0.5-0.8,0-0.8c-3.5,0.5-6.9,0.9-10.4,1.4
					C119.3,141.4,119.3,142.1,119.8,142.1L119.8,142.1z"/>
			</g>
		</g>
		<g>
			<g>
				<path class="st5" d="M116,147.1c10.2-1.5,20.4-3.1,30.6-4.9c0.5-0.1,0.3-0.8-0.2-0.7c-10.2,1.8-20.4,3.4-30.6,4.9
					C115.3,146.4,115.5,147.1,116,147.1L116,147.1z"/>
			</g>
		</g>
		<g>
			<g>
				<path class="st5" d="M113.9,155.8c10.1-1.5,20.1-3,30.2-4.3c0.5-0.1,0.5-0.8,0-0.8c-10.1,1.4-20.3,2.8-30.4,4.3
					C113.3,155.1,113.5,155.8,113.9,155.8L113.9,155.8z"/>
			</g>
		</g>
		<g>
			<g>
				<path class="st5" d="M118.6,170.1c6.8-1.4,13.6-2.8,20.5-4.2c0.5-0.1,0.3-0.8-0.2-0.7c-6.8,1.4-13.6,2.8-20.5,4.2
					C118,169.5,118.2,170.2,118.6,170.1L118.6,170.1z"/>
			</g>
		</g>
		<g>
			<g>
				<path class="st5" d="M112.2,177.4c10.9-2.1,21.8-4.4,32.6-7c0.5-0.1,0.3-0.8-0.2-0.7c-10.8,2.5-21.7,4.8-32.6,7
					C111.5,176.8,111.7,177.5,112.2,177.4L112.2,177.4z"/>
			</g>
		</g>
		<g>
			<g>
				<path class="st5" d="M112.6,182.6c2.4-0.5,4.8-1,7.3-1.5c0.5-0.1,0.3-0.8-0.2-0.7c-2.4,0.5-4.8,1-7.3,1.5
					C112,182,112.2,182.7,112.6,182.6L112.6,182.6z"/>
			</g>
		</g>
		<g>
			<g>
				<path class="st5" d="M113.4,188.2c10.3-1.8,20.6-3.5,30.8-5.3c0.5-0.1,0.3-0.8-0.2-0.7c-10.3,1.8-20.6,3.5-30.8,5.3
					C112.8,187.6,113,188.3,113.4,188.2L113.4,188.2z"/>
			</g>
		</g>
		<g>
			<g>
				<path class="st5" d="M116.3,197.3c9.2-2.1,18.4-3.9,27.7-5.2c0.5-0.1,0.3-0.8-0.2-0.7c-9.3,1.3-18.6,3-27.7,5.2
					C115.6,196.7,115.8,197.5,116.3,197.3L116.3,197.3z"/>
			</g>
		</g>
		<g>
			<g>
				<path class="st5" d="M123.3,200.5c6.7-1.5,13.3-2.9,20-4.4c0.5-0.1,0.3-0.8-0.2-0.7c-6.7,1.5-13.3,2.9-20,4.4
					C122.6,199.9,122.8,200.6,123.3,200.5L123.3,200.5z"/>
			</g>
		</g>
		<g>
			<g>
				<path class="st0" d="M111.3,220.4c28-5.4,55.9-11.6,83.6-18.6c0.5-0.1,0.3-0.8-0.2-0.7c-27.7,6.9-55.6,13.1-83.6,18.6
					C110.6,219.7,110.8,220.4,111.3,220.4L111.3,220.4z"/>
			</g>
		</g>
		<g>
			<g>
				<path class="st0" d="M112.9,226.4c6-1.3,11.9-2.6,17.9-3.9c0.5-0.1,0.3-0.8-0.2-0.7c-6,1.3-11.9,2.6-17.9,3.9
					C112.2,225.8,112.4,226.5,112.9,226.4L112.9,226.4z"/>
			</g>
		</g>
		<g>
			<g>
				<path class="st0" d="M113.6,232.8c21.1-4.4,42.1-9.1,63-14.3c0.5-0.1,0.3-0.8-0.2-0.7c-20.9,5.1-41.9,9.9-63,14.3
					C113,232.1,113.2,232.9,113.6,232.8L113.6,232.8z"/>
			</g>
		</g>
		<g>
			<g>
				<path class="st0" d="M118.4,240.3c25.3-5.7,50.6-11.4,75.8-17.1c0.5-0.1,0.3-0.8-0.2-0.7c-25.3,5.7-50.6,11.4-75.8,17.1
					C117.7,239.7,117.9,240.4,118.4,240.3L118.4,240.3z"/>
			</g>
		</g>
		<g>
			<g>
				<path class="st0" d="M146.7,241.7c14.4-3.7,28.8-7,43.3-10.1c0.5-0.1,0.3-0.8-0.2-0.7c-14.5,3.1-28.9,6.4-43.3,10.1
					C146,241.1,146.2,241.8,146.7,241.7L146.7,241.7z"/>
			</g>
		</g>
		<g>
			<g>
				<path class="st0" d="M241.3,167.2c0.3,22,0,43.9-0.7,65.9c0,0.5,0.7,0.5,0.8,0c0.8-22,1-43.9,0.7-65.9
					C242,166.7,241.2,166.7,241.3,167.2L241.3,167.2z"/>
			</g>
		</g>
		<g>
			<g>
				<path class="st0" d="M241.3,166.7c5.9-0.1,12-1.8,17.8-2.9c6.6-1.3,13.2-2.5,19.9-3.8c0.5-0.1,0.3-0.8-0.2-0.7
					c-6,1.1-12,2.3-18,3.4c-6.3,1.2-13,3.2-19.5,3.2C240.9,166,240.9,166.7,241.3,166.7L241.3,166.7z"/>
			</g>
		</g>
		<g>
			<g>
				<path class="st0" d="M241.2,233.7c12.4-3,24.9-6.1,37.3-9.1c0.5-0.1,0.3-0.8-0.2-0.7c-12.4,3-24.9,6.1-37.3,9.1
					C240.5,233.1,240.7,233.8,241.2,233.7L241.2,233.7z"/>
			</g>
		</g>
		<g>
			<g>
				<path class="st0" d="M279.1,159.2c-0.5,21.6-1,43.3-1.4,64.9c0,0.5,0.7,0.5,0.8,0c0.5-21.6,1-43.3,1.4-64.9
					C279.9,158.8,279.2,158.8,279.1,159.2L279.1,159.2z"/>
			</g>
		</g>
		<polygon class="st2" points="244,170.1 244,180.7 277.1,173.6 277.1,164.3 		"/>
		<g>
			<g>
				<path class="st4" d="M246.2,189.7c1.9,0,1.9-3,0-3C244.3,186.7,244.3,189.7,246.2,189.7L246.2,189.7z"/>
			</g>
		</g>
		<g>
			<g>
				<path class="st4" d="M246.2,202.6c1.9,0,1.9-3,0-3C244.3,199.6,244.3,202.6,246.2,202.6L246.2,202.6z"/>
			</g>
		</g>
		<g>
			<g>
				<path class="st6" d="M250,185.3c2.7-0.4,5.3-0.8,8-1.2c0.5-0.1,0.3-0.8-0.2-0.7c-2.7,0.4-5.3,0.8-8,1.2
					C249.4,184.7,249.6,185.4,250,185.3L250,185.3z"/>
			</g>
		</g>
		<g>
			<g>
				<path class="st6" d="M250.8,188c7.4-1.2,14.7-2.4,22.1-3.4c0.5-0.1,0.3-0.8-0.2-0.7c-7.4,1-14.8,2.1-22.1,3.4
					C250.2,187.3,250.4,188,250.8,188L250.8,188z"/>
			</g>
		</g>
		<g>
			<g>
				<path class="st6" d="M263.2,188.8c3.9-0.3,7.9-0.7,11.8-1.3c0.5-0.1,0.3-0.8-0.2-0.7c-3.8,0.6-7.7,1-11.6,1.3
					C262.8,188.1,262.8,188.9,263.2,188.8L263.2,188.8z"/>
			</g>
		</g>
		<g>
			<g>
				<path class="st6" d="M250.4,200.3c1.7-0.3,3.4-0.5,5.1-0.8c0.5-0.1,0.3-0.8-0.2-0.7c-1.7,0.3-3.4,0.5-5.1,0.8
					C249.8,199.7,250,200.4,250.4,200.3L250.4,200.3z"/>
			</g>
		</g>
		<g>
			<g>
				<path class="st6" d="M259.6,198.9c5-0.5,9.9-1.2,14.9-2c0.5-0.1,0.3-0.8-0.2-0.7c-4.9,0.8-9.7,1.5-14.7,2
					C259.1,198.2,259.1,199,259.6,198.9L259.6,198.9z"/>
			</g>
		</g>
		<g>
			<g>
				<path class="st6" d="M250.6,203.8c7.9-0.9,15.8-2.1,23.6-3.4c0.5-0.1,0.3-0.8-0.2-0.7c-7.8,1.3-15.6,2.5-23.4,3.4
					C250.1,203.1,250.1,203.8,250.6,203.8L250.6,203.8z"/>
			</g>
		</g>
		<g>
			<g>
				<path class="st6" d="M248.3,207.6c4.5-0.5,9-1.2,13.4-2.1c0.5-0.1,0.3-0.8-0.2-0.7c-4.4,0.9-8.8,1.6-13.2,2.1
					C247.8,206.9,247.8,207.7,248.3,207.6L248.3,207.6z"/>
			</g>
		</g>
		<g>
			<g>
				<path class="st6" d="M256.3,209.8c6-0.6,11.8-1.7,17.7-3.1c0.5-0.1,0.3-0.8-0.2-0.7c-5.8,1.4-11.6,2.4-17.5,3.1
					C255.8,209.1,255.8,209.8,256.3,209.8L256.3,209.8z"/>
			</g>
		</g>
	</g>
	<g id="tab_front">
		<polyline class="st3" points="158.1,85.8 162.9,176.7 371.3,126.3 372.6,47.9 160.5,85.4 		"/>
		<g>
			<g>
				<path class="st0" d="M160.8,84c1.9,0,1.9-3,0-3C158.8,81,158.8,84,160.8,84L160.8,84z"/>
			</g>
		</g>
		<g>
			<g>
				<path class="st0" d="M215.9,87.1c13.1,11.3,9.2,29.4,0.9,42.3c-0.3,0.4,0.4,0.8,0.6,0.4c8.5-13.1,12.3-31.7-1-43.2
					C216.1,86.2,215.6,86.7,215.9,87.1L215.9,87.1z"/>
			</g>
		</g>
		<g>
			<g>
				<path class="st0" d="M223.1,84.3c5.8,4.1,14.3,2.9,20.6,0.6c6-2.2,10.2-6.8,12.3-12.8c0.2-0.5-0.6-0.7-0.7-0.2
					c-2.2,6.4-6.9,10.9-13.3,12.8c-5.9,1.7-13.3,2.7-18.5-1C223,83.4,222.7,84,223.1,84.3L223.1,84.3z"/>
			</g>
		</g>
		<g>
			<g>
				<path class="st0" d="M263.8,69.5c4.8,18.5,27.3,15.1,41,10.9c0.5-0.1,0.3-0.9-0.2-0.7c-13.3,4.1-35.3,7.8-40.1-10.4
					C264.4,68.8,263.7,69,263.8,69.5L263.8,69.5z"/>
			</g>
		</g>
		<g>
			<g>
				<path class="st0" d="M317.5,89.1c-11.8,7.9-21.3,22.7-12.7,36.5c0.3,0.4,0.9,0,0.6-0.4c-8.4-13.5,1-27.8,12.5-35.5
					C318.3,89.4,317.9,88.8,317.5,89.1L317.5,89.1z"/>
			</g>
		</g>
		<g>
			<g>
				<path class="st0" d="M223,139.7c9.3-3.1,19.2-1.3,26.7,5c0.4,0.3,0.9-0.2,0.5-0.5c-7.7-6.5-17.9-8.4-27.5-5.2
					C222.4,139.1,222.6,139.9,223,139.7L223,139.7z"/>
			</g>
		</g>
		<g>
			<g>
				<path class="st0" d="M271.6,143.9c5.5-6.8,14.1-9.8,22.6-7.7c0.5,0.1,0.7-0.6,0.2-0.7c-8.7-2.2-17.7,0.8-23.3,7.9
					C270.8,143.7,271.3,144.3,271.6,143.9L271.6,143.9z"/>
			</g>
		</g>
		<g>
			<g>
				<path class="st0" d="M243.6,101.2c5.8,10.1,11.9,20.2,18.2,30c0.3,0.4,0.9,0,0.6-0.4c-6.3-9.9-12.3-19.9-18.2-30
					C244,100.4,243.4,100.8,243.6,101.2L243.6,101.2z"/>
			</g>
		</g>
		<g>
			<g>
				<path class="st0" d="M244,101c4.8-0.4,10.8-3.5,13.8-7.3c0.3-0.4-0.2-0.9-0.5-0.5c-2.8,3.6-8.7,6.7-13.2,7.1
					C243.5,100.3,243.5,101.1,244,101L244,101z"/>
			</g>
		</g>
		<g>
			<g>
				<path class="st0" d="M257.7,93.5c6.4,9.9,12.7,19.8,19.1,29.7c0.3,0.4,0.9,0,0.6-0.4c-6.4-9.9-12.7-19.8-19.1-29.7
					C258.1,92.7,257.5,93.1,257.7,93.5L257.7,93.5z"/>
			</g>
		</g>
		<g>
			<g>
				<path class="st0" d="M262.4,131.7c6.6,1.2,12.6-2.2,15.1-8.4c0.2-0.4-0.5-0.6-0.7-0.2c-2.3,5.8-8,9-14.2,7.9
					C262.1,130.9,261.9,131.6,262.4,131.7L262.4,131.7z"/>
			</g>
		</g>
		<g>
			<g>
				<path class="st0" d="M244.2,100.6c-3.9-4.9,11-13,13.5-7.2c0.2,0.4,0.8,0.1,0.6-0.4c-2.9-6.5-19.6,2-14.7,8.1
					C243.9,101.5,244.5,101,244.2,100.6L244.2,100.6z"/>
			</g>
		</g>
		<g>
			<g>
				<path class="st0" d="M249.9,93.7c-0.9,0.6-1.8,1.3-2.6,2c-0.4,0.4-1.2,1-0.7,1.7c0.4,0.5,1,0.3,1.5,0.1c1.1-0.6,2.1-1.3,3.2-1.9
					c0.4-0.2,0-0.9-0.4-0.6c-0.6,0.3-1.1,0.7-1.7,1c-0.2,0.1-1.5,1.1-1.8,1c-0.3-0.1,0.9-1.1,1.1-1.2c0.6-0.5,1.2-1,1.9-1.4
					C250.7,94.1,250.3,93.4,249.9,93.7L249.9,93.7z"/>
			</g>
		</g>
		<g>
			<g>
				<path class="st7" d="M244.4,101.2c2.2,2.9,5.3,3.4,8.8,3.5c4.5,0.1,7.5,0.2,11,3.7c1.6,1.7,2.4,2.8,4.7,3.3
					c0.5,0.1,0.7-0.6,0.2-0.7c-4.1-0.9-5.4-5.4-9.4-6.6c-5-1.5-10.8,1.4-14.7-3.6C244.8,100.4,244.1,100.8,244.4,101.2L244.4,101.2z
					"/>
			</g>
		</g>
		<g>
			<g>
				<path class="st7" d="M247.2,106.1c1.6,0.7,2.8,0.9,4.5,1.1c4.6,0.7,7.1,2.3,10.4,5.3c2.9,2.7,5.6,4.3,9.7,4.2
					c0.5,0,0.5-0.8,0-0.8c-6.2,0-8.3-4.2-12.8-7.2c-3.7-2.4-7.7-1.7-11.5-3.4C247.1,105.3,246.7,105.9,247.2,106.1L247.2,106.1z"/>
			</g>
		</g>
		<g>
			<g>
				<path class="st7" d="M249.8,110.6c3.7,0.2,4.9,3.9,7.8,5.3c0.5,0.2,1,0.3,1.5,0.4c3.1,0.8,4.9,1.5,7.2,3.8
					c2.5,2.6,5.6,3.2,8.7,1c0.4-0.3,0-0.9-0.4-0.6c-2.6,1.8-6.1,0.5-8.3-1.4c-0.7-0.6-1.1-1.4-1.8-1.9c-1.4-1-2.4-0.9-4-1.4
					c-3.4-1-4.6-2.7-7.1-4.6c-1.2-0.9-2.1-1.2-3.6-1.3C249.4,109.8,249.4,110.6,249.8,110.6L249.8,110.6z"/>
			</g>
		</g>
		<g>
			<g>
				<path class="st7" d="M254.4,118.8c1.5,0,4.1,2.3,5,3.5c0.5,0.6,0.8,1.3,1.2,1.9c0.6,0.8,1.3,1.6,2.2,2.1
					c3.4,1.9,6.7-1.1,10.2,1.7c0.4,0.3,0.9-0.2,0.5-0.5c-3.6-2.8-9.4-0.4-12.2-3.7c-2.2-2.5-2.9-5.7-6.9-5.7
					C253.9,118,253.9,118.8,254.4,118.8L254.4,118.8z"/>
			</g>
		</g>
		<g>
			<g>
				<path class="st7" d="M258.2,124.6c2.3,0.5,2.8,2.9,4.6,4c1.7,1.1,4.1-0.1,5.5,1.4c0.3,0.4,0.9-0.2,0.5-0.5
					c-1.6-1.7-4-0.4-5.8-1.7c-1.8-1.2-2.3-3.4-4.6-3.9C257.9,123.8,257.7,124.5,258.2,124.6L258.2,124.6z"/>
			</g>
		</g>
		<g>
			<g>
				<path class="st7" d="M250,99.7c1.2,1,2.6,2,4.3,1.9c2.4,0,5-2.4,7.3-0.6c0.4,0.3,0.8-0.4,0.4-0.6c-1-0.8-2.1-0.9-3.3-0.7
					c-1,0.2-1.9,0.7-2.8,0.9c-2.2,0.5-3.6-0.1-5.2-1.4C250.1,98.9,249.6,99.4,250,99.7L250,99.7z"/>
			</g>
		</g>
		<g>
			<g>
				<path class="st7" d="M252.5,98.7c2.6,0.9,4.5-2.6,6.9-1.5c0.4,0.2,0.8-0.4,0.4-0.6c-2.7-1.3-4.5,2.4-7.1,1.4
					C252.3,97.8,252.1,98.6,252.5,98.7L252.5,98.7z"/>
			</g>
		</g>
		<g>
			<g>
				<path class="st7" d="M256.2,95.8c0.8,0.4,1.8,0.3,2.5-0.3c0.4-0.3-0.2-0.8-0.5-0.5c-0.4,0.4-1,0.5-1.6,0.2
					C256.2,94.9,255.8,95.5,256.2,95.8L256.2,95.8z"/>
			</g>
		</g>
		<g>
			<g>
				<path class="st7" d="M216.3,112.2c2,7.5-3,16.4-8.9,20.8c-0.4,0.3,0,0.9,0.4,0.6c6.3-4.6,11.3-13.7,9.3-21.6
					C216.9,111.5,216.2,111.7,216.3,112.2L216.3,112.2z"/>
			</g>
		</g>
		<g>
			<g>
				<path class="st7" d="M211.5,145.3c6.2-1.5,12.3-0.9,18.1,1.7c0.4,0.2,0.8-0.4,0.4-0.6c-6-2.7-12.3-3.3-18.7-1.8
					C210.8,144.7,211,145.5,211.5,145.3L211.5,145.3z"/>
			</g>
		</g>
		<g>
			<g>
				<path class="st7" d="M225.5,80.2c4.4,2,8.7,0.5,12.8-1.5c0.4-0.2,0.1-0.9-0.4-0.6c-3.8,1.9-7.9,3.4-12.1,1.5
					C225.4,79.4,225.1,80,225.5,80.2L225.5,80.2z"/>
			</g>
		</g>
		<g>
			<g>
				<path class="st7" d="M290.4,76c3.2,0.4,6.3,0.5,9.5,0c2.1-0.3,4.1-0.9,6-1.6c0.5-0.2,2.7-1.3,3.1-1.2c-0.1-0.1,0,6.6,0.4,7.5
					c0.8,2.2,2.2,3.7,4.2,4.8c0.4,0.2,0.8-0.4,0.4-0.6c-4.7-2.8-5.1-8-3.6-12.8c0.1-0.3-0.3-0.6-0.6-0.4c-6,3.3-12.5,4.6-19.3,3.6
					C290.1,75.2,289.9,75.9,290.4,76L290.4,76z"/>
			</g>
		</g>
		<g>
			<g>
				<path class="st7" d="M313.4,115.1c-0.7,2.4-0.1,4.5,1,6.7c0.6,1.3,1.5,2.4,2.2,3.6c1.2,1.9,1.1,1.3-1.3,2
					c-4.1,1.1-10.5,4.9-10.3,9.7c0,0.5,0.8,0.5,0.8,0c-0.2-5.8,8.4-9.1,12.9-9.6c0.3,0,0.5-0.4,0.3-0.6c-2.7-2.8-6.2-7.5-4.9-11.7
					C314.3,114.9,313.6,114.7,313.4,115.1L313.4,115.1z"/>
			</g>
		</g>
		<g>
			<g>
				<path class="st7" d="M296.2,96.8c-3.8,6.8-4.3,14.4-1.5,21.6c0.2,0.4,0.9,0.3,0.7-0.2c-2.8-7-2.3-14.4,1.4-21.1
					C297,96.7,296.4,96.3,296.2,96.8L296.2,96.8z"/>
			</g>
		</g>
		<g>
			<g>
				<path class="st4" d="M324.8,71.7c12.3-2.3,24.5-4.7,36.8-7c1.9-0.4,1.1-3.3-0.8-2.9c-12.3,2.3-24.5,4.7-36.8,7
					C322.1,69.2,322.9,72,324.8,71.7L324.8,71.7z"/>
			</g>
		</g>
		<g>
			<g>
				<path class="st4" d="M325.9,79.4c8.2-1.5,16.5-3.1,24.7-4.8c1.9-0.4,1.1-3.3-0.8-2.9c-8.2,1.7-16.5,3.3-24.7,4.8
					C323.2,76.9,324,79.8,325.9,79.4L325.9,79.4z"/>
			</g>
		</g>
		<g>
			<g>
				<path class="st4" d="M327.4,88.2c10.9-2.4,21.9-4.3,32.9-5.9c1.9-0.3,1.1-3.2-0.8-2.9c-11,1.5-22,3.5-32.9,5.9
					C324.7,85.7,325.5,88.6,327.4,88.2L327.4,88.2z"/>
			</g>
		</g>
		<path class="st2" d="M158.1,61.3v24.5c0,0,215.3-36.7,214.5-37.8c-0.8-1.1,1.2-22.9,1.2-22.9L158.1,61.3z"/>
		<g>
			<g>
				<path class="st5" d="M294.4,47.6c18.8-3.3,37.6-6.6,56.3-9.9c0.5-0.1,0.3-0.8-0.2-0.7c-18.8,3.3-37.6,6.6-56.3,9.9
					C293.7,47,293.9,47.7,294.4,47.6L294.4,47.6z"/>
			</g>
		</g>
		<g>
			<g>
				<path class="st5" d="M321.3,47.2c11.8-2.4,23.7-4.3,35.7-5.9c0.5-0.1,0.5-0.8,0-0.8c-12,1.6-24,3.5-35.9,5.9
					C320.7,46.6,320.9,47.3,321.3,47.2L321.3,47.2z"/>
			</g>
		</g>
	</g>
	<g id="chair">
		<ellipse class="st8" cx="312.5" cy="554.7" rx="25.9" ry="15.9"/>
		<path class="st5" d="M305.4,422.7c1.2,44.2,2.3,88.3,3.5,132.5c2.6-0.2,5.3-0.3,7.9-0.5c0-6.2,0-12.5,0-18.8
			c0.1-40.7,0.5-81.1,1.1-121.3C313.7,417.3,309.6,420,305.4,422.7z"/>
		<path class="st5" d="M259.6,416.1c5.4,2.4,12.3,4.9,20.7,7c2.2,0.6,10,2.4,20.5,3.3c6,0.5,14.1,0.8,23.5,0c10.6-0.9,19-2.8,23.9-4
			c8.6-2.2,15.2-4.9,18.6-6.3c1.9-0.8,3.4-1.5,4.5-2c0.7-7.1,1.1-14.6,1.1-22.5c0-2.3,0-4.5,0-6.8c-1.6-0.2-3.9-0.6-6.7-0.9
			c0,0-6.9-0.9-13.2-1.4c-6.3-0.6-14.4-0.6-33.2,0c-15.6,0.5-23.4,0.8-30.9,1.4c-10,0.8-21.8,2.2-24.7,2.6c-3.2,0.4-5.8,0.7-7.7,0.9
			c0.4,5.3,0.7,10.7,1,16.2c0.1,2.6,0.3,5.1,0.4,7.7C258.1,412.9,258.8,414.5,259.6,416.1z"/>
		<g>
			<g>
				<path class="st0" d="M256.1,392.9c0.3,6.3-0.1,13,1,19.2c0.7,4,3.5,5.1,7,6.5c11.6,4.4,23.8,7.1,36.1,8.2
					c24.4,2.2,49.1-2,71.4-12.2c0.4-0.2,0.1-0.8-0.4-0.6c-20.1,9.2-42.1,13.5-64.2,12.6c-10.9-0.4-21.6-2.1-32.1-5.1
					c-2.5-0.7-4.9-1.5-7.4-2.3c-1.1-0.4-2.2-0.8-3.2-1.2c-3.1-1.2-3.7-1.3-5.2-4.5c-2.8-5.8-1.9-14-2.1-20.4
					C256.8,392.4,256,392.4,256.1,392.9L256.1,392.9z"/>
			</g>
		</g>
		<g>
			<g>
				<path class="st0" d="M372.3,412.4c0.4-9.2,0.5-18.3,0.5-27.5c0-0.5-0.8-0.5-0.8,0c0.1,9.2-0.1,18.4-0.5,27.5
					C371.5,412.8,372.3,412.8,372.3,412.4L372.3,412.4z"/>
			</g>
		</g>
		<g>
			<g>
				<path class="st0" d="M259.4,387.5c18.7-2.7,37.5-4.1,56.3-4.5c9.1-0.2,18.2-0.3,27.4-0.2c8.9,0.1,17.8,0,26.4,2.6
					c0.5,0.1,0.7-0.6,0.2-0.7c-8-2.4-16.3-2.5-24.6-2.6c-9.8-0.1-19.5-0.1-29.3,0.2c-18.9,0.5-37.8,1.8-56.5,4.5
					C258.8,386.8,259,387.5,259.4,387.5L259.4,387.5z"/>
			</g>
		</g>
		<g>
			<g>
				<path class="st0" d="M305.5,427.1c0.1,42.7,1.1,85.4,3,128.1c0,0.5,0.8,0.5,0.8,0c-1.9-42.7-2.9-85.4-3-128.1
					C306.2,426.6,305.5,426.6,305.5,427.1L305.5,427.1z"/>
			</g>
		</g>
		<g>
			<g>
				<path class="st0" d="M316.7,426.9c-0.1,42.6-0.2,85.2-0.3,127.8c0,0.5,0.7,0.5,0.8,0c0.1-42.6,0.2-85.2,0.3-127.8
					C317.4,426.4,316.7,426.4,316.7,426.9L316.7,426.9z"/>
			</g>
		</g>
	</g>
</g>
<g id="character">
	<g id="leg_right">
		<path class="st4" d="M209,462c-3.1-0.6-5.8,1.2-6.9,1.9c-14.4,9.3-38.3,17.4-36.9,21.9c0.6,1.9,6.2,4.3,43.5-2.5
			c2.1-5.4,4.2-10.7,6.3-16.1C214,465.5,212.1,462.6,209,462z"/>
		<g>
			<g>
				<path class="st5" d="M200,466.3c-1.7-0.9-3.6-1.5-5.5-1.4c-1,0.1-3.1,0.4-3.3,1.7c-0.5,3.3,6.7,1.6,7.9,1
					c-0.2-0.2-0.3-0.4-0.5-0.6c-1.3,1.2-3.1,5.6,0,5.7c1.3,0.1,2.3-1.1,2.7-2.2c0.5-1.5,0-2.9-1-4c-0.3-0.4-0.9,0.2-0.5,0.5
					c0.7,0.6,1,1.4,1,2.3c0,1.8-1,2.4-3.1,1.7c-0.5-1.2,0.7-2.7,1.5-3.4c0.3-0.3-0.1-0.8-0.5-0.6c-1.1,0.5-2.2,0.8-3.4,0.9
					c-0.6,0-1.2,0-1.8-0.1c-1,0-1.1-0.6-0.2-1.9c1.5-1.1,4.9,0.4,6.3,1.1C200,467.2,200.4,466.5,200,466.3L200,466.3z"/>
			</g>
		</g>
		<g>
			<g>
				<path class="st5" d="M191.8,469.8c1.3,0.9,2.3,2.3,2.9,3.8c0.2,0.5,0.9,0.3,0.7-0.2c-0.6-1.7-1.7-3.2-3.2-4.3
					C191.8,468.9,191.4,469.6,191.8,469.8L191.8,469.8z"/>
			</g>
		</g>
		<g>
			<g>
				<path class="st5" d="M188.5,471.7c1.4,1,2.3,2.4,2.9,4c0.1,0.5,0.9,0.3,0.7-0.2c-0.6-1.8-1.7-3.3-3.2-4.5
					C188.5,470.7,188.1,471.4,188.5,471.7L188.5,471.7z"/>
			</g>
		</g>
		<g>
			<g>
				<path class="st5" d="M184.7,473.7c0.9,0.7,1.7,1.6,2.3,2.6c0.3,0.4,0.9,0,0.6-0.4c-0.7-1-1.5-2-2.4-2.8
					C184.9,472.9,184.4,473.4,184.7,473.7L184.7,473.7z"/>
			</g>
		</g>
		<g>
			<g>
				<path class="st5" d="M208.2,480.9c-10.1,2.2-20.3,3.8-30.6,4.6c-0.5,0-0.5,0.8,0,0.8c10.4-0.8,20.6-2.4,30.8-4.6
					C208.8,481.5,208.6,480.8,208.2,480.9L208.2,480.9z"/>
			</g>
		</g>
		<path class="st5" d="M385.3,331.7c-1.6,5.5-2.8,10-3.6,13.1c-1.5,5.7-3.2,11.3-4.6,16.9c-1.6,6.2-2,8.2-3.8,11.1
			c-2.6,4.2-5.8,6.5-6.8,7.3c-3.6,2.5-7.1,3.4-13.6,4.5c-10.2,1.6-18.1,2-18.9,2c-13.9,0.6-20.8,0.9-26.3,0.9
			c-9.2,0-19.5-0.3-29.4,0.2c-3.6,0.2-1.1,0.2-9.2,0.8c-5.9,0.5-7.6,0.5-9.6,1.6c-3.1,1.7-4.6,4.4-5.7,6.4
			c-3.4,6.1-7.9,11.7-10.8,18.1c-4.2,9.3-9.5,18-14.1,27.1c-3.9,7.8-9.7,19.2-17.1,33.1c-1.6-0.5-3.9-1.4-6.2-3.1
			c-3.9-2.9-5.9-6.5-6.7-8.4c1.6-5.1,3.9-12,6.7-20.2c2.9-8.5,5.9-17.1,10.3-28.2c0.7-1.8,5-11.3,13.5-30.3c0.8-1.8,2.2-4.9,4.7-8.5
			c1-1.5,4-5.7,9.1-9.9c5.2-4.5,10.3-7,19.8-11.1c12.7-5.5,23.2-9.4,31.3-12.4c11.7-4.3,17.5-6.5,19.5-7.1c13.6-4.3,26-8.3,41.5-8.4
			C362.2,327,372.6,327.7,385.3,331.7z"/>
		<g>
			<g>
				<path class="st0" d="M384.2,331.7c-1.7,8.3-3.6,16.5-6,24.6c-2.2,7.9-3.9,18.8-11.5,23.2c-7.5,4.3-18.1,5.1-26.5,6.1
					c-8.4,1-16.9,1.3-25.3,1.4c-16.9,0.3-34.1-0.6-51,1.6c-6,0.8-8.3,4.2-11.5,9c-4.7,7-8.6,14.4-12.5,21.8
					c-9.2,17.6-18.4,35.3-27.5,53c-0.2,0.4,0.4,0.8,0.6,0.4c8.2-15.7,16.3-31.4,24.5-47.1c3.9-7.5,7.7-15,12.1-22.2
					c2.2-3.6,4.7-8.7,7.9-11.4c4.1-3.5,10.7-3.2,15.8-3.5c17.3-1.1,34.6-0.3,51.9-1.1c7.8-0.3,15.7-1,23.4-2.3
					c6.8-1.1,15.5-2.1,21-6.8c4.9-4.1,6.3-11.6,8-17.4c2.9-9.6,5.3-19.3,7.3-29.1C385,331.4,384.3,331.2,384.2,331.7L384.2,331.7z"
					/>
			</g>
		</g>
		<g>
			<g>
				<path class="st0" d="M202.5,454.1c4.5-14.9,9.8-29.5,15.7-43.9c3.3-8,6.9-15.9,10.7-23.7c3.2-6.7,6.8-13.1,12.3-18.2
					c11.4-10.3,27.7-15.7,41.7-21.1c14.9-5.7,30.1-10.6,45.5-14.7c0.5-0.1,0.3-0.8-0.2-0.7c-16.3,4.4-32.4,9.6-48.1,15.8
					c-13.4,5.3-28.6,10.4-39.5,20.2c-11,10-16.4,26.3-22.1,39.6c-6.4,15.2-12,30.8-16.9,46.6C201.6,454.3,202.4,454.5,202.5,454.1
					L202.5,454.1z"/>
			</g>
		</g>
		<g>
			<g>
				<path class="st0" d="M202,453.6c-1.2,4.3-4.3,10-1.6,14.1c2.6,3.9,6.7,6.7,11.5,6.2c0.5-0.1,0.5-0.8,0-0.8
					c-4.6,0.5-12.4-3.8-11.8-9.6c0.3-3.2,1.8-6.6,2.6-9.7C202.8,453.3,202.1,453.1,202,453.6L202,453.6z"/>
			</g>
		</g>
	</g>
	<g id="leg_left">
		<path class="st4" d="M265.6,478.7c-2.3,2.1-2.4,5.4-2.5,6.7c-0.8,17.1-8,41.3-3.5,42.7c1.9,0.6,7.1-2.6,23.1-36.9
			c-3.2-4.8-6.3-9.7-9.5-14.5C271.4,476.6,268,476.6,265.6,478.7z"/>
		<path class="st5" d="M309.7,333c-11.3,1.6-20.8,3.6-28.2,5.4c-8.8,2.1-15.4,4.2-19.2,5.4c-9,2.8-15.2,5.1-21.4,7.5
			c0,0-9,3.4-20.5,9.8c-1.4,0.8-3.8,2.2-6.1,4.8c-3.4,3.9-4.3,8.2-4.6,9.7c-0.5,2.6-0.3,4.7-0.1,6.7c1,8.3,3.5,15,4.3,16.9
			c4.9,12.7,7.4,19.1,8.6,21.7c1.8,3.8,5.7,12.1,11.9,22.5c6,10.1,15.7,24.7,30.2,41.6c0.6-0.9,1.5-2.3,3.1-3.5
			c2.3-1.8,4.6-2.3,5.8-2.6c-0.3-3.6-0.9-9.2-2-16.1c-1.7-10.9-2.6-12.3-4.1-22c-1.4-9.5-1-11.2-2.4-22.4c-1-7.6-2.1-13.7-2.9-17.5
			c3.4-0.5,8.5-1.3,14.8-2c8-0.9,11.2-1,18.2-1.6c6-0.5,15.4-1.4,27.1-3.5c14.1-2.5,8.4-2.6,22.9-5.9c1.4-0.3,4.6-1,7.9-3.5
			c3-2.3,4.6-5,5.3-6.4c2.3-4.1,13.1-23.4,6.9-36.3C358.8,328.8,334.5,321.5,309.7,333z"/>
		<g>
			<g>
				<path class="st0" d="M309.6,332.7c-17.1,2.4-34,6.3-50.4,11.7c-7.5,2.5-14.9,5.3-22.2,8.4c-6.7,2.8-14,5.6-19.8,10
					c-12.1,9.1-7.9,23.9-3.9,36.2c4.9,14.9,11.6,29.1,19.5,42.6c9.1,15.5,19.8,30.1,31.5,43.8c0.3,0.4,0.8-0.2,0.5-0.5
					c-19.3-22.7-36.1-47.8-47-75.7c-5.2-13.2-14.5-33.8-1.2-44.9c5.5-4.6,12.7-7.3,19.2-10.1c7.5-3.2,15.1-6.1,22.8-8.7
					c16.7-5.6,33.8-9.5,51.2-12C310.3,333.3,310.1,332.6,309.6,332.7L309.6,332.7z"/>
			</g>
		</g>
		<g>
			<g>
				<path class="st0" d="M263.7,415.5c2.7,21,5.9,41.9,9.7,62.8c0.1,0.5,0.8,0.3,0.7-0.2c-3.8-20.8-7-41.6-9.7-62.6
					C264.4,415,263.6,415,263.7,415.5L263.7,415.5z"/>
			</g>
		</g>
		<g>
			<g>
				<path class="st0" d="M356.1,380.3c-4,6.4-12.6,8-19.4,9.9c-7.5,2.1-15.2,3.6-23,4.7c-15.8,2.3-31.8,3-47.6,4.9
					c-0.5,0.1-0.5,0.8,0,0.8c17.1-2,34.4-2.8,51.5-5.5c8.7-1.4,17.2-3.4,25.7-6c5.4-1.7,10.3-3.2,13.5-8.3
					C357,380.3,356.4,379.9,356.1,380.3L356.1,380.3z"/>
			</g>
		</g>
		<g>
			<g>
				<path class="st0" d="M265.7,485c1.3-3.2,4.3-5.4,7.8-5.7c0.5,0,0.5-0.8,0-0.8c-3.8,0.3-7.1,2.7-8.5,6.3
					C264.8,485.3,265.5,485.5,265.7,485L265.7,485z"/>
			</g>
		</g>
		<g>
			<g>
				<path class="st0" d="M261.9,401.2c0.4,4.9,1,9.7,1.8,14.5c0.1,0.5,0.8,0.3,0.7-0.2c-0.8-4.8-1.3-9.5-1.7-14.3
					C262.6,400.7,261.8,400.7,261.9,401.2L261.9,401.2z"/>
			</g>
		</g>
		<g>
			<g>
				<path class="st5" d="M262.2,476.9c0,0,0,0.1,0,0.1c0,0.8,0.7,1.5,1.5,1.5c0.8,0,1.5-0.7,1.5-1.5c0,0,0-0.1,0-0.1
					c0-0.8-0.7-1.5-1.5-1.5C262.9,475.4,262.2,476,262.2,476.9L262.2,476.9z"/>
			</g>
		</g>
		<g>
			<g>
				<path class="st5" d="M263.9,488.6c-1.7,0.8-3.3,2-4.3,3.6c-0.5,0.9-1.4,2.7-0.5,3.6c0.9,0.9,2.2-0.2,2.9-0.9
					c1.3-1.4,2.1-3.1,2.5-5c-0.2,0-0.5-0.1-0.7-0.1c0.1,1.4,0.7,2.9,2,3.6c0.9,0.5,2.2,0.6,2.8-0.4c0.6-1,0.2-2.5-0.4-3.4
					c-0.9-1.3-2.4-1.7-3.9-1.5c-0.5,0.1-0.3,0.8,0.2,0.7c1.1-0.2,2,0.1,2.8,0.8c1.1,0.9,1,1.6-0.2,2.2c-0.7,1.2-1.4,1.2-2-0.2
					c-0.4-0.6-0.6-1.2-0.6-1.9c0-0.4-0.7-0.5-0.7-0.1c-0.2,1-0.5,2-1,2.9c-0.1,0.3-2.9,3.9-3.3,2.1c-0.3-1.2,1.1-2.8,1.9-3.6
					c0.8-0.9,1.8-1.5,2.9-2C264.7,489,264.4,488.4,263.9,488.6L263.9,488.6z"/>
			</g>
		</g>
		<g>
			<g>
				<path class="st5" d="M262.1,497.3c1.6-0.6,3.2-0.6,4.9-0.2c0.5,0.1,0.7-0.6,0.2-0.7c-1.8-0.5-3.5-0.4-5.3,0.2
					C261.4,496.7,261.6,497.5,262.1,497.3L262.1,497.3z"/>
			</g>
		</g>
		<g>
			<g>
				<path class="st5" d="M261.6,501.1c1.7-0.5,3.3-0.5,5,0c0.5,0.1,0.7-0.6,0.2-0.7c-1.8-0.6-3.6-0.5-5.4,0
					C261,500.5,261.2,501.2,261.6,501.1L261.6,501.1z"/>
			</g>
		</g>
		<g>
			<g>
				<path class="st5" d="M261.2,505.3c1.1-0.3,2.3-0.4,3.5-0.4c0.5,0,0.5-0.7,0-0.8c-1.2-0.1-2.5,0.1-3.7,0.4
					C260.5,504.7,260.7,505.4,261.2,505.3L261.2,505.3z"/>
			</g>
		</g>
		<g>
			<g>
				<path class="st5" d="M280.6,490.3c-4,9.6-8.7,18.8-14,27.7c-0.2,0.4,0.4,0.8,0.6,0.4c5.3-8.9,10-18.1,14-27.7
					C281.5,490.3,280.8,489.9,280.6,490.3L280.6,490.3z"/>
			</g>
		</g>
	</g>
	<g id="hand_right">
		<path class="st5" d="M348.8,303.3c-0.2-0.3-0.5-0.9-1.1-2c-1.3-2.2-1.9-3.4-2.3-3.8c-1.1-1.5-2.5-2.5-5.4-4.6
			c-1.9-1.3-2.4-1.6-2.8-1.7c-0.7-0.3-2.7-1-4.8-0.2c-2.2,0.8-4.2,3.2-3.7,5.3c0.3,1.4,1.7,2.3,2.1,2.6c1.3,0.9,2,0.4,4,1.4
			c1.2,0.6,2.1,1.3,2.5,1.6c1,0.8,1.3,1.3,2.3,2.5c1.5,1.7,2.3,2.6,3.5,3.5c1,0.8,2.4,1.8,4.4,2c1,0.1,2.1,0.2,2.6-0.5
			C351.2,308.2,349.7,305.2,348.8,303.3z"/>
		<path class="st5" d="M409.4,201.2c-2.9,1.3-6.9,3.5-10.9,7.2c-5.5,5-8.3,10.4-9.8,13.8c-0.4,2.6-0.9,6.4-1.3,11.1
			c-0.4,5.3-0.2,7.4-0.1,18.1c0,2.9,0.2,13.5,0,25.6c0,2.5-0.1,4.6-0.1,6c-5.7,3.2-11.6,6.3-17.5,9.5c-7.1,3.8-14.1,7.4-21,11
			c-0.3,0.7-0.7,1.8-0.7,3.2c-0.1,1.6,0.3,2.8,0.6,3.5c1.8,0.1,4.3,0.2,7.2,0.1c3.9,0,13.3-0.3,25.8-2.6c9.3-1.7,14.8-3.6,18.6-5.2
			c0,0,3.4-1.4,8-4.7c3-2.2,4.6-3.8,5.4-6.1c0.4-1.3,0.4-2.4,0.4-2.8c-0.2-6.5,1.1-12.9,1.3-19.4c0.2-8.2,0.6-19.6,1-28.2
			c0.2-5,0.5-10.2,0.1-17.4c-0.4-6.1-1-9.5-2.1-13.1C412.7,206.5,410.8,203.3,409.4,201.2z"/>
		<g>
			<g>
				<path class="st0" d="M409.1,201.4c7.5,10.5,6.9,23.9,6.8,36.2c-0.1,13.6-0.7,27.2-1.6,40.7c-0.2,3.3-0.2,6.7-0.7,9.9
					c-0.9,5.5-3.8,8.1-8.1,10.9c-5.1,3.3-10.9,5.3-16.8,6.7c-12.6,3-25.8,3.8-38.6,4.4c-0.5,0-0.5,0.8,0,0.8
					c13.9-0.6,28.5-1.4,41.9-5.2c5.6-1.6,11.1-3.8,15.8-7.3c5-3.6,6.3-6.2,6.7-12.2c1.3-16.2,2-32.4,2.1-48.7
					c0.1-12.5,0.7-26-6.9-36.6C409.5,200.6,408.8,201,409.1,201.4L409.1,201.4z"/>
			</g>
		</g>
		<g>
			<g>
				<path class="st0" d="M349.2,303.8c12.8-6.8,25.5-13.7,38.2-20.6c0.4-0.2,0-0.9-0.4-0.6c-12.7,6.9-25.5,13.8-38.2,20.6
					C348.4,303.4,348.8,304,349.2,303.8L349.2,303.8z"/>
			</g>
		</g>
		<g>
			<g>
				<path class="st0" d="M387.1,282.6c2.4-20.1-1.5-40.4,1.9-60.4c0.1-0.5-0.6-0.7-0.7-0.2c-3.4,20.1,0.5,40.4-1.9,60.6
					C386.3,283.1,387.1,283.1,387.1,282.6L387.1,282.6z"/>
			</g>
		</g>
		<g>
			<g>
				<path class="st0" d="M348.4,303.2c-1.1,2.7-0.9,5.5,0.4,8.1c0.2,0.4,0.9,0.1,0.6-0.4c-1.2-2.4-1.3-5-0.3-7.5
					C349.3,303,348.6,302.8,348.4,303.2L348.4,303.2z"/>
			</g>
		</g>
		<g>
			<g>
				<path class="st0" d="M348.8,303.2c-0.9-2.3-2-4.6-3.6-6.5c-0.7-0.8-2.3-1.4-2.4,0.2c0,0.5,0.7,0.5,0.8,0c0.6-0.2,1,0,1.3,0.6
					c0.2,0.3,0.4,0.5,0.6,0.8c0.3,0.5,0.6,1,0.9,1.4c0.7,1.2,1.3,2.4,1.7,3.7C348.3,303.8,349,303.6,348.8,303.2L348.8,303.2z"/>
			</g>
		</g>
		<g>
			<g>
				<path class="st0" d="M346.8,309c-4.3-0.7-6.1-4.5-9.1-7.2c-2.3-2.1-7.1-2.2-8.4-5.1c-0.2-0.4-0.8-0.1-0.6,0.4
					c0.5,1.3,1.3,1.9,2.5,2.5c2.5,1.2,4.7,1.5,6.7,3.5c2.8,2.7,4.6,5.9,8.7,6.6C347.1,309.8,347.3,309.1,346.8,309L346.8,309z"/>
			</g>
		</g>
		<g>
			<g>
				<path class="st0" d="M329.6,295.4c2.8,0.7,5.3,1.9,7.7,3.6c0.4,0.3,0.8-0.4,0.4-0.6c-2.4-1.7-5-2.9-7.8-3.6
					C329.3,294.5,329.1,295.3,329.6,295.4L329.6,295.4z"/>
			</g>
		</g>
		<g>
			<g>
				<path class="st0" d="M330.6,293.4c2.6,0.4,4.8,1.5,6.8,3.2c0.4,0.3,0.9-0.2,0.5-0.5c-2-1.8-4.5-2.9-7.1-3.4
					C330.3,292.6,330.1,293.3,330.6,293.4L330.6,293.4z"/>
			</g>
		</g>
		<g>
			<g>
				<path class="st0" d="M332.9,291.6c2.6,0.5,4.8,1.8,6.6,3.8c0.3,0.4,0.8-0.2,0.5-0.5c-1.8-2.1-4.2-3.4-6.9-4
					C332.6,290.8,332.4,291.6,332.9,291.6L332.9,291.6z"/>
			</g>
		</g>
		<g>
			<g>
				<path class="st0" d="M336.2,291c1.2,0.7,2.4,1.5,3.6,2.2c0.4,0.3,0.8-0.4,0.4-0.6c-1.2-0.7-2.4-1.5-3.6-2.2
					C336.1,290.1,335.8,290.7,336.2,291L336.2,291z"/>
			</g>
		</g>
	</g>
	<g id="head">
		<path class="st0" d="M349.9,190.7c0.5-0.2,1.5-0.4,2.7-0.1c2.3,0.6,3.2,3,3.2,3.2c0.9,2.6-1.1,3.6-0.6,6.8c0.1,0.4,0.6,3.3,3,4.8
			c1.9,1.2,4,0.9,4.9,0.8c4.5-0.7,7.2-4.5,7.9-5.6c2.7-3.9,2.7-8,2.7-10c0-1.3,0-4-1.2-6.9c-0.8-2-1.4-2.3-4.3-6.1
			c-4.4-5.8-4.3-7-6.8-8.7c-1.1-0.8-3.3-2.2-6.3-2.3c-3.5-0.1-6.1,1.6-7,2.4c-0.9,0.7-3.4,2.6-3.9,5.9c-0.4,2.8,0.8,5.1,1.3,6
			c0.8,1.4,1.3,1.7,2.1,3C348.7,185.2,349.7,187.3,349.9,190.7z"/>
		<path class="st5" d="M346.6,182c-0.9,1-2.3,2.8-3.1,5.4c-0.2,0.7-0.9,2.9-0.7,5.8c0.2,3.1,1.2,5.3,1.4,5.7
			c0.4,0.8,1.1,2.1,2.3,3.4c1.7,1.8,3.4,2.7,4.2,3.1c2.6,1.2,4.8,1.3,6.6,1.4c1.9,0.1,3.5-0.1,4.6-0.3c-0.7-0.3-1.8-0.8-2.9-1.8
			c-1.7-1.6-2.3-3.4-2.5-4.1c-0.8-2.6,0-3.4-0.7-7.7c-0.3-1.7-0.6-2.6-1.4-3.2c-1.1-0.8-2.6-0.4-2.9-0.3c-1,0.3-1.6,0.8-1.9,1.1
			c0.1-1,0-2.7-0.7-4.7C348.2,184,347.2,182.7,346.6,182z"/>
		<g>
			<g>
				<path class="st0" d="M346.3,181.8c-5.8,6.8-5.3,17.7,2.4,22.9c8.2,5.5,22.4,2.1,24.2-8.4c0.1-0.5-0.6-0.7-0.7-0.2
					c-1.8,10.3-16,13.2-23.6,7.6c-6.9-5.1-7.1-15.1-1.8-21.4C347.1,181.9,346.6,181.4,346.3,181.8L346.3,181.8z"/>
			</g>
		</g>
		<g>
			<g>
				<path class="st0" d="M350,190.7c0.4-3.4-1.1-5.6-2.9-8.4c-2.6-3.9-3.4-8.1,0.2-12c2.9-3.1,6.7-4.2,10.7-2.5
					c4.3,1.8,7.7,6.8,10.5,10.4c2.5,3.1,4.7,6.1,5.1,10.2c0.2,2.7-0.4,5.5-1,8.2c-0.1,0.5,0.6,0.7,0.7,0.2c1.4-7,1.2-11.8-3.1-17.6
					c-3.4-4.5-8.1-11.7-14-12.9c-4.5-0.9-9.3,2.1-11.3,6.2c-3.7,7.4,5.4,11.1,4.5,18.2C349.2,191.2,350,191.2,350,190.7L350,190.7z"
					/>
			</g>
		</g>
		<g>
			<g>
				<path class="st0" d="M350.2,190.9c3.5-1,5.2-0.4,5.2,1.9c0.1,0.7,0.1,1.4,0.1,2.2c0,0.9,0.1,1.7,0.1,2.6
					c0.2,1.6,0.4,3.3,1.1,4.8c1,2.3,2.7,3.8,5.1,4.5c0.5,0.1,0.7-0.6,0.2-0.7c-4.5-1.3-5.4-5.8-5.7-9.8c-0.1-1.7,0.2-3.9-0.6-5.5
					c-1.3-2.6-4.3-2.5-6-0.4C349.3,190.8,349.9,191.3,350.2,190.9L350.2,190.9z"/>
			</g>
		</g>
	</g>
	<g id="torso">
		<path class="st5" d="M322.4,222.1c2-1.1,4.7-2.6,8.1-4.4c6.1-3.2,12.3-6.2,15.7-7.7c15.4-6.8,31.5-8.8,33.2-9
			c7.2-0.9,17.3-1.3,29.2,0.3c0.9,1.6,2.1,4.1,2.9,7.2c1.2,4.9,0.8,8.8,0.4,12.8c-2,18.5-1.1,13.8-1.8,18.1
			c-2.7,16-5.4,25.6-11.7,52.4c-1.8,7.7-2.7,11.6-4.6,17.6c-3,9.6-6.3,17.2-8.6,22.2c-1.2,1.4-2.9,3.4-5.4,5.4
			c-4.9,4-9.6,5.7-13.4,7c-2.2,0.7-9.4,3.1-19.3,3.3c-4.4,0.1-9.6,0.2-15.8-1.5c-9.3-2.6-15.9-7.9-20-12c0.1-3.5,0.2-9.2,0.4-16.1
			c1.4-35.5,5.1-62,6.4-71.2C319.2,240.7,320.5,232.3,322.4,222.1z"/>
		<g>
			<g>
				<path class="st0" d="M321.3,222.6c-5.5,36-10.9,72.2-9.7,108.8c0,0.5,0.8,0.5,0.8,0c-1.2-36.5,4.2-72.6,9.6-108.6
					C322.1,222.3,321.4,222.1,321.3,222.6L321.3,222.6z"/>
			</g>
		</g>
		<g>
			<g>
				<path class="st0" d="M324.6,222.2c11.5-8.5,24.8-13.6,38.5-17.1c14.7-3.9,30.4-7.4,45.5-3.4c0.5,0.1,0.7-0.6,0.2-0.7
					c-14.7-3.9-29.8-0.7-44.2,3c-14.4,3.6-28.3,8.8-40.3,17.7C323.8,221.8,324.2,222.5,324.6,222.2L324.6,222.2z"/>
			</g>
		</g>
		<g>
			<g>
				<path class="st0" d="M411.2,208.5c1.9,21.2-3.3,41.9-8.1,62.3c-4.6,19.6-8.3,40.2-17.1,58.5c-0.2,0.4,0.4,0.8,0.6,0.4
					c8.9-18.3,12.5-39,17.2-58.7c4.8-20.5,10-41.3,8.1-62.5C411.9,208,411.2,208,411.2,208.5L411.2,208.5z"/>
			</g>
		</g>
		<g>
			<g>
				<path class="st0" d="M313.5,335.7c10.8,10.4,24.4,13.2,39,11.6c12.4-1.3,25-5.4,33.1-15.4c0.3-0.4-0.2-0.9-0.5-0.5
					c-8,9.8-20.3,13.9-32.6,15.2c-14.4,1.5-27.8-1.1-38.4-11.4C313.7,334.9,313.1,335.4,313.5,335.7L313.5,335.7z"/>
			</g>
		</g>
	</g>
	<g id="hand_left">
		<path class="st5" d="M255.1,266.8c0.2-2.1,0.2-3.8,0.1-4.6c0-2.8-0.3-4.4-0.6-7c-0.4-2.6-0.6-3.1-0.9-3.1c-0.7-0.1-1.7,2-2.3,3.3
			c-1.3-1.7-3.3-4.5-5.6-8.1c-2.8-4.4-3.5-5.7-5.3-6.3c-3-0.9-7.4,0.9-8.8,4.4c-0.8,2-0.5,3.8-0.3,4.7c0.6,1.8,1.7,4.4,3.3,7.3
			c2.2,3.8,4.3,6.1,6.7,8.8c2.5,2.8,6.3,7,11,12.6C254.3,273.6,254.8,269.5,255.1,266.8z"/>
		<path class="st5" d="M324.4,221.9c-1.1,0.4-3,1.1-4.6,2.8c-2.6,2.6-3.1,5.8-3.3,6.6c-0.8,3.7-5.8,14.6-23.2,44.3
			c-4.1-0.5-8.5-1.2-13-2.1c-9.3-1.9-17.6-4.3-25-6.9c-0.8,0.6-2,1.6-2.9,3.2c-1.9,3.1-1.8,6.3-1.7,7.5c1.4,1.4,3.6,3.5,6.6,5.7
			c3.2,2.4,5.4,3.4,9.3,5.6c5.2,2.9,3.7,2.4,13.8,8.4c6.4,3.8,9.6,5.7,12.7,7.1c8.5,3.9,12.2,4.1,14.1,4c0.9,0,4.2-0.2,8.1-1.7
			c4.5-1.8,7.3-4.4,8.9-5.9c10.5-9.8,12.2-12.7,18.5-18.4c6.6-6,9.2-7,12.9-12.5c1.5-2.3,3.5-5.3,4.5-9.6c2-8.5-1.3-15.8-2.4-18.2
			C349.9,224.5,325.4,222,324.4,221.9z"/>
		<g>
			<g>
				<path class="st0" d="M320.3,222.9c-8.7,17.5-17.7,34.8-27.2,52c-0.2,0.4,0.4,0.8,0.6,0.4c9.5-17.1,18.5-34.4,27.2-52
					C321.1,222.9,320.5,222.5,320.3,222.9L320.3,222.9z"/>
			</g>
		</g>
		<g>
			<g>
				<path class="st0" d="M255.2,266.9c12.4,4.3,25.1,7.4,38.1,9.1c0.5,0.1,0.5-0.7,0-0.8c-12.9-1.7-25.6-4.7-37.9-9
					C255,266,254.8,266.7,255.2,266.9L255.2,266.9z"/>
			</g>
		</g>
		<g>
			<g>
				<path class="st0" d="M254.6,266.6c-3.1,2.6-4.6,6.4-4.3,10.4c0,0.5,0.8,0.5,0.8,0c-0.3-3.8,1.2-7.4,4.1-9.9
					C255.5,266.8,254.9,266.3,254.6,266.6L254.6,266.6z"/>
			</g>
		</g>
		<g>
			<g>
				<path class="st0" d="M250.4,277.3c2.5,3.7,6.4,5.7,10.1,7.9c5.4,3.2,10.7,6.5,16.1,9.7c8.5,5.1,17.7,11.8,27.7,13.2
					c9.1,1.3,16.5-3.8,22.8-9.8c9.4-8.9,18.2-18.4,27.3-27.5c0.3-0.3-0.2-0.9-0.5-0.5c-7.5,7.6-15,15.2-22.5,22.8
					c-6.9,7-14.7,15.2-25.4,14.5c-10.2-0.7-19.7-7.7-28.1-12.8c-4.5-2.7-9-5.5-13.5-8.2c-4.5-2.7-10.2-5.2-13.2-9.7
					C250.8,276.5,250.1,276.9,250.4,277.3L250.4,277.3z"/>
			</g>
		</g>
		<g>
			<g>
				<path class="st0" d="M255.4,266.8c0.2-3.1,0.2-6.1-0.1-9.2c-0.2-1.5-0.1-4.3-1.1-5.4c-2.1-2.4-3,2.6-3.2,3.9
					c-0.1,0.5,0.7,0.7,0.7,0.2c0.1-0.7,0.2-1.3,0.4-2c1.3-1.6,2-1.6,2,0c0.7,0.9,0.5,3.3,0.6,4.4c0.2,2.7,0.2,5.3,0,8
					C254.6,267.3,255.4,267.3,255.4,266.8L255.4,266.8z"/>
			</g>
		</g>
		<g>
			<g>
				<path class="st0" d="M249.7,275c-3.4-3.7-6.7-7.4-9.8-11.3c-4-5-8.3-10.1-8.4-16.8c0-0.5-0.8-0.5-0.8,0c0.1,5.7,3,10.1,6.4,14.5
					c3.8,4.9,7.8,9.6,12,14.2C249.5,275.9,250,275.3,249.7,275L249.7,275z"/>
			</g>
		</g>
		<g>
			<g>
				<path class="st0" d="M232,246.8c2.3,2.5,4.3,5.3,6.1,8.2c0.3,0.4,0.9,0,0.6-0.4c-1.8-3-3.9-5.7-6.2-8.3
					C232.2,245.9,231.7,246.5,232,246.8L232,246.8z"/>
			</g>
		</g>
		<g>
			<g>
				<path class="st0" d="M233.8,244.8c3.1,2.6,5.6,5.8,7.5,9.4c0.2,0.4,0.9,0,0.6-0.4c-1.9-3.7-4.5-6.8-7.6-9.5
					C234,243.9,233.4,244.4,233.8,244.8L233.8,244.8z"/>
			</g>
		</g>
		<g>
			<g>
				<path class="st0" d="M237.4,243.2c3.1,3,5.6,6.5,7.4,10.4c0.2,0.4,0.8,0.1,0.6-0.4c-1.8-4-4.3-7.5-7.5-10.5
					C237.6,242.3,237.1,242.8,237.4,243.2L237.4,243.2z"/>
			</g>
		</g>
		<g>
			<g>
				<path class="st0" d="M241.5,242.6c2.9,3,5.2,6.4,6.7,10.2c0.2,0.4,0.9,0.2,0.7-0.2c-1.6-4-3.9-7.5-6.9-10.6
					C241.7,241.8,241.2,242.3,241.5,242.6L241.5,242.6z"/>
			</g>
		</g>
	</g>
</g>
</svg>
