<?xml version="1.0" encoding="utf-8"?>
<!-- Generator: Adobe Illustrator 23.0.3, SVG Export Plug-In . SVG Version: 6.00 Build 0)  -->
<svg version="1.1" xmlns="http://www.w3.org/2000/svg" xmlns:xlink="http://www.w3.org/1999/xlink" x="0px" y="0px"
	 viewBox="0 0 600 600" style="enable-background:new 0 0 600 600;" xml:space="preserve">
<style type="text/css">
	.st0{fill:none;stroke:#202124;stroke-width:0.75;stroke-miterlimit:10;}
	.st1{fill:#EFEFEF;}
	.st2{fill:#202124;}
	.st3{fill:#FFFFFF;stroke:#202124;stroke-width:0.75;stroke-miterlimit:10;}
	.st4{fill:#5492ED;}
	.st5{fill:#D6D6D6;}
	.st6{fill:#EDEDED;}
	.st7{fill:#EB506E;}
	.st8{fill:#FFFFFF;}
	.st9{fill:#B1CEFC;}
	.st10{fill:none;}
	.st11{fill:#F7CD5B;}
	.st12{fill:#040844;}
	.st13{fill:#DDDDDD;}
</style>
<g id="background">
	<g id="ground">
		<line class="st0" x1="31.1" y1="577" x2="197.9" y2="512.6"/>
		<line class="st0" x1="208.6" y1="512.7" x2="533.6" y2="516.8"/>
	</g>
	<g id="clock">
		<circle class="st1" cx="135.8" cy="103.8" r="47.1"/>
		<line class="st0" x1="150.7" y1="77.7" x2="131.4" y2="109.3"/>
		<line class="st0" x1="161.9" y1="109.6" x2="131.4" y2="109.6"/>
		<line class="st0" x1="150.7" y1="77.7" x2="144.3" y2="79.9"/>
		<line class="st0" x1="151.2" y1="84.3" x2="150.7" y2="77.7"/>
		<line class="st0" x1="157.6" y1="105" x2="161.9" y2="109.6"/>
		<line class="st0" x1="157.8" y1="114.1" x2="161.9" y2="109.6"/>
	</g>
	<g id="plant">
		<path class="st2" d="M183.8,482.4c0,2.7,8.6,52.1,8.6,52.1l42.5-1.9l3.6-50.2H183.8z"/>
		<ellipse class="st3" cx="210.9" cy="483.2" rx="27.2" ry="4.3"/>
		<g>
			<g>
				<path class="st4" d="M188.9,427c-3.3,21.5,15.8,36.3,20.3,55.9c0.4,1.9,3.3,1.1,2.9-0.8c-4.3-18.8-23.4-33.9-20.3-54.3
					C192.1,425.9,189.2,425.1,188.9,427L188.9,427z"/>
			</g>
		</g>
		<g>
			<g>
				<path class="st4" d="M211.5,479c-3-6.6-4.8-13.5-3.4-20.7c1.1-6,3.9-11.6,6.5-17.1c4.2-9,7.9-18.4,5.6-28.5
					c-0.4-1.9-3.3-1.1-2.9,0.8c2.9,13.2-5.4,24.6-9.8,36.4c-4.1,10.7-3.2,20.3,1.5,30.7C209.7,482.2,212.3,480.7,211.5,479
					L211.5,479z"/>
			</g>
		</g>
		<g>
			<g>
				<path class="st4" d="M198.3,391.6c-3.3,8.2-1.9,16.9,1.3,24.9c3.6,9.1,12.8,21,8.3,31.1c-0.8,1.7,1.8,3.3,2.6,1.5
					c3.7-8.3-0.3-16.5-3.8-24.1c-4.8-10.3-10.1-21.3-5.5-32.6C201.9,390.6,199,389.8,198.3,391.6L198.3,391.6z"/>
			</g>
		</g>
		<g>
			<g>
				<path class="st4" d="M206.4,424.1c3-5.3,5.9-10.8,6.9-17c1.1-6.5-0.1-13.1-1.2-19.6c-0.3-1.9-3.2-1.1-2.9,0.8
					c1.1,6,2.2,12.2,1.1,18.3c-1,5.8-3.7,10.9-6.5,15.9C202.9,424.3,205.5,425.8,206.4,424.1L206.4,424.1z"/>
			</g>
		</g>
		<g>
			<g>
				<path class="st4" d="M207.3,461.3c8-1.4,11.9-8.9,14.8-15.7c0.8-1.8-1.8-3.3-2.6-1.5c-2.7,6.1-5.8,13-13,14.3
					C204.6,458.8,205.4,461.7,207.3,461.3L207.3,461.3z"/>
			</g>
		</g>
		<path class="st4" d="M193.2,446.8c-1.7-0.6-6-2.3-9.3-6.7c-3.8-5-4-10.3-4-12c1.9,1.1,4.3,2.8,6.7,5.3
			C191.2,438.5,192.7,444,193.2,446.8z"/>
		<path class="st4" d="M190,430.2c-1.3-1.7-3.3-5.1-4-9.7c-1.1-8,2.7-14,3.8-15.6c1.2,1.8,2.5,4.5,3.2,8
			C194.7,421.2,191.2,428,190,430.2z"/>
		<path class="st4" d="M214,438.7c1.1-2.6,3.2-6.9,7.4-10.9c3.5-3.3,7-5.1,9.3-6.1c0,1.3,0,6.6-4,11.2
			C221.9,438.6,215,438.7,214,438.7z"/>
		<path class="st4" d="M205.6,458.3c-1.5-1.6-3.5-4.3-4.8-8c-2.4-7-0.7-13.2,0-15.4c1.5,1.8,3.8,5.2,5,10.2
			C207.4,451.1,206.3,456,205.6,458.3z"/>
		<path class="st4" d="M198,399.1c-1.2-1.4-3.7-4.6-4.3-9.3c-1.1-7.9,3.6-13.7,4.4-14.7c1,1.4,2,3.1,2.7,5.1
			C203.6,389,199.1,397.1,198,399.1z"/>
		<path class="st4" d="M210.8,391.5c-0.3-0.4-3.9-5.8-1.4-12c2.3-5.8,7.9-7.4,8.6-7.6c0.5,1.3,1.9,5.3,0.6,10.1
			C216.8,388.2,211.8,391,210.8,391.5z"/>
	</g>
	<g id="papers">
		<path class="st5" d="M404.8,56.6c-0.7,10.3-1.9,21.4-3.7,33.1c-2.3,15.1-5.4,29-8.7,41.4c7.5,1.9,15.7,3.6,24.4,5.1
			c17.4,2.8,33.4,3.8,47.4,3.7c1.3-10.3,2.3-21.4,2.8-33.1c0.8-18.6,0.3-35.7-0.9-51C445.5,56,425.1,56.3,404.8,56.6z"/>
		<path class="st6" d="M387.7,17.1c0.1,8.9-0.7,20.7-4.1,34c-4.2,16.4-10.8,29.1-16.1,37.7c8.1,4,21.2,9.3,38.2,11
			c15,1.5,27.5-0.4,35.9-2.3c2.7-5.3,5.2-11.3,7.4-17.9c8.4-26,6.5-49.6,3.7-64.8C431,15.5,409.4,16.3,387.7,17.1z"/>
		<path class="st6" d="M457.2,110c1.8,11.3,2.9,25.7,1.4,42.3c-0.9,10-2.6,19-4.6,26.7c7.2,1.5,15.4,2.7,24.4,3.2
			c19.4,1.1,36-1.2,48.7-4.1c-1-9.4-1.8-19.2-2.3-29.4c-0.9-18.7-0.8-36.2,0-52.4C502.2,100.8,479.7,105.4,457.2,110z"/>
		<path class="st7" d="M435.6,34.5c0.2,8.4-0.2,17.9-1.4,28c-2.3,19.4-7.1,35.9-12,48.7c12,4,28.1,8,47.4,9.2
			c14.1,0.9,26.6,0,36.8-1.4c-0.2-13.3-0.5-26.8-0.9-40.5c-0.5-14.8-1.1-29.4-1.8-43.7C480.9,34.9,458.3,34.7,435.6,34.5z"/>
		<g>
			<g>
				<path class="st2" d="M462.7,42c4.5,0.3,9.1,0.2,13.6-0.1c1.9-0.1,1.9-3.1,0-3c-4.5,0.3-9.1,0.4-13.6,0.1
					C460.7,38.8,460.7,41.8,462.7,42L462.7,42z"/>
			</g>
		</g>
		<g>
			<g>
				<path class="st2" d="M411.6,24.5c4.6,0,9.1-0.1,13.6-0.6c1.9-0.2,1.9-3.2,0-3c-4.5,0.4-9.1,0.6-13.6,0.6
					C409.6,21.5,409.6,24.5,411.6,24.5L411.6,24.5z"/>
			</g>
		</g>
		<g>
			<g>
				<path class="st2" d="M391.4,34c12-0.5,23.9-0.8,35.9-0.9c0.5,0,0.5-0.8,0-0.8c-12,0.1-24,0.4-35.9,0.9
					C390.9,33.3,390.9,34.1,391.4,34L391.4,34z"/>
			</g>
		</g>
		<g>
			<g>
				<path class="st2" d="M393,40.3c12.2,0.3,24.4,0.2,36.5-0.3c0.5,0,0.5-0.8,0-0.8c-12.2,0.4-24.4,0.5-36.5,0.3
					C392.5,39.6,392.5,40.3,393,40.3L393,40.3z"/>
			</g>
		</g>
		<g>
			<g>
				<path class="st2" d="M390.5,48.3c7.5-0.1,15.1,0,22.6,0.3c0.5,0,0.5-0.7,0-0.8c-7.5-0.4-15.1-0.5-22.6-0.3
					C390,47.6,390,48.3,390.5,48.3L390.5,48.3z"/>
			</g>
		</g>
		<g>
			<g>
				<path class="st2" d="M391.1,54.2c12.7,0.9,25.4,1.4,38.1,1.4c0.5,0,0.5-0.7,0-0.8c-12.7,0-25.4-0.5-38.1-1.4
					C390.7,53.4,390.7,54.1,391.1,54.2L391.1,54.2z"/>
			</g>
		</g>
		<g>
			<g>
				<path class="st2" d="M387.9,62.9c9.9,1.5,19.8,2.2,29.9,2.1c0.5,0,0.5-0.8,0-0.8c-10,0.1-19.8-0.5-29.7-2.1
					C387.6,62.1,387.4,62.8,387.9,62.9L387.9,62.9z"/>
			</g>
		</g>
		<g>
			<g>
				<path class="st2" d="M393.6,70.6c9.4,1.3,18.7,2,28.2,2.3c0.5,0,0.5-0.7,0-0.8c-9.4-0.3-18.8-1-28.2-2.3
					C393.1,69.8,393.1,70.5,393.6,70.6L393.6,70.6z"/>
			</g>
		</g>
		<g>
			<g>
				<path class="st2" d="M442.8,52.1c14,0.1,28.1,0,42.1-0.2c0.5,0,0.5-0.8,0-0.8c-14,0.2-28.1,0.2-42.1,0.2
					C442.4,51.3,442.4,52.1,442.8,52.1L442.8,52.1z"/>
			</g>
		</g>
		<g>
			<g>
				<path class="st2" d="M441.3,58.8c6.3,0.6,12.6,0.8,18.9,0.6c0.5,0,0.5-0.8,0-0.8c-6.3,0.2-12.6,0-18.9-0.6
					C440.8,58,440.8,58.7,441.3,58.8L441.3,58.8z"/>
			</g>
		</g>
		<g>
			<g>
				<path class="st2" d="M442.5,65.1c11.9,0.4,23.7,0.8,35.6,1.2c0.5,0,0.5-0.7,0-0.8c-11.9-0.4-23.7-0.8-35.6-1.2
					C442,64.3,442,65.1,442.5,65.1L442.5,65.1z"/>
			</g>
		</g>
		<g>
			<g>
				<path class="st2" d="M446.9,72.4c3.8,0.1,7.6,0.3,11.5,0.4c0.5,0,0.5-0.7,0-0.8c-3.8-0.1-7.6-0.3-11.5-0.4
					C446.4,71.7,446.4,72.4,446.9,72.4L446.9,72.4z"/>
			</g>
		</g>
		<g>
			<g>
				<path class="st2" d="M443.8,78.2c14-0.1,28.1,0.3,42.1,1c0.5,0,0.5-0.7,0-0.8c-14-0.8-28.1-1.1-42.1-1
					C443.3,77.4,443.3,78.2,443.8,78.2L443.8,78.2z"/>
			</g>
		</g>
		<g>
			<g>
				<path class="st2" d="M442.2,84.9c17.6,0.8,35.1,1.5,52.7,2.3c0.5,0,0.5-0.7,0-0.8c-17.6-0.8-35.1-1.5-52.7-2.3
					C441.7,84.2,441.7,84.9,442.2,84.9L442.2,84.9z"/>
			</g>
		</g>
		<g>
			<g>
				<path class="st2" d="M440.4,93.3c6.9,0.7,13.8,1.1,20.8,1.3c0.5,0,0.5-0.7,0-0.8c-6.9-0.2-13.9-0.6-20.8-1.3
					C439.9,92.5,439.9,93.2,440.4,93.3L440.4,93.3z"/>
			</g>
		</g>
		<g>
			<g>
				<path class="st2" d="M439.1,100.7c14.2,0.9,28.3,2,42.5,3.5c0.5,0,0.5-0.7,0-0.8c-14.1-1.4-28.3-2.6-42.5-3.5
					C438.6,99.9,438.6,100.7,439.1,100.7L439.1,100.7z"/>
			</g>
		</g>
		<g>
			<g>
				<path class="st2" d="M467.3,130.7c6.6,1.1,13.5,0.6,20.1,0.2c6.6-0.3,13.1-1.2,19.5-3c0.5-0.1,0.3-0.9-0.2-0.7
					c-6.3,1.8-12.7,2.6-19.3,3c-6.5,0.3-13.5,0.8-19.9-0.2C467.1,129.9,466.9,130.6,467.3,130.7L467.3,130.7z"/>
			</g>
		</g>
		<g>
			<g>
				<path class="st2" d="M398.6,126.6c4.5,0.7,8.9,1.5,13.4,2.2c0.5,0.1,0.7-0.6,0.2-0.7c-4.5-0.7-8.9-1.5-13.4-2.2
					C398.4,125.8,398.2,126.6,398.6,126.6L398.6,126.6z"/>
			</g>
		</g>
		<g>
			<g>
				<path class="st2" d="M418.5,130.8c10.9,1.4,21.9,1.9,32.9,1.5c0.5,0,0.5-0.8,0-0.8c-11,0.5-22,0-32.9-1.5
					C418,130,418,130.8,418.5,130.8L418.5,130.8z"/>
			</g>
		</g>
		<g>
			<g>
				<path class="st2" d="M399.6,119.1c14.2,3.5,28.5,5.9,43.1,7.1c0.5,0,0.5-0.7,0-0.8c-14.5-1.2-28.8-3.6-42.9-7.1
					C399.3,118.3,399.1,119,399.6,119.1L399.6,119.1z"/>
			</g>
		</g>
		<g>
			<g>
				<path class="st2" d="M403.7,114.5c8,1.8,16.1,3.4,24.2,4.7c0.5,0.1,0.7-0.6,0.2-0.7c-8.1-1.3-16.1-2.8-24.2-4.7
					C403.4,113.7,403.2,114.4,403.7,114.5L403.7,114.5z"/>
			</g>
		</g>
		<g>
			<g>
				<path class="st2" d="M467.2,138.5c12,1.4,23.9,1.4,35.9,0c0.5-0.1,0.5-0.8,0-0.8c-12,1.4-23.9,1.4-35.9,0
					C466.7,137.7,466.7,138.4,467.2,138.5L467.2,138.5z"/>
			</g>
		</g>
		<g>
			<g>
				<path class="st2" d="M464.1,146.8c18.2,2.3,36.4,1.5,54.2-2.6c0.5-0.1,0.3-0.8-0.2-0.7c-17.8,4-36,4.8-54,2.5
					C463.6,146,463.6,146.7,464.1,146.8L464.1,146.8z"/>
			</g>
		</g>
		<g>
			<g>
				<path class="st2" d="M465.7,155.3c13.6,5.5,29.2,2.9,43.4,2.1c0.5,0,0.5-0.8,0-0.8c-14.2,0.8-29.7,3.4-43.2-2.1
					C465.4,154.4,465.2,155.2,465.7,155.3L465.7,155.3z"/>
			</g>
		</g>
		<g>
			<g>
				<path class="st2" d="M470.4,165.6c13.6,2.9,29.2,4.3,42.5-0.3c0.5-0.2,0.3-0.9-0.2-0.7c-13.1,4.5-28.8,3.1-42.1,0.3
					C470.1,164.8,469.9,165.5,470.4,165.6L470.4,165.6z"/>
			</g>
		</g>
	</g>
</g>
<g id="character">
	<g id="leg_right">
		<path class="st7" d="M279,569.5c-2.4,1.1-5.4,2.6-8.9,4.4c-7.5,4-26.4,13.9-25.5,16.8c0.7,2.1,11.6,1.6,51-7.4
			c-0.9-4.9-1.9-9.8-2.8-14.7C288.1,568.9,283.5,569.2,279,569.5z"/>
		<g>
			<g>
				<path class="st8" d="M274.4,572.6c-1-0.3-1.9-0.7-2.7-1.4c-0.3-0.2-2.3-2.7-0.7-2.7c0.5,0,1.5,1.4,1.7,1.8
					c0.5,0.9,0.7,1.9,0.6,2.9c0,0.4,0.4,0.5,0.6,0.3c0.5-0.4,2.8,7.1,5,3.9c1.7-2.5-1.9-5-4-5.2c-0.5,0-0.5,0.7,0,0.8
					c1,0.1,1.9,0.5,2.6,1.2c0.2,0.3,0.4,0.5,0.6,0.8c-0.5,0.5-0.9,1.1-1.4,1.6c-0.4,0-1.6-2.9-1.9-3.3c-0.5-0.6-0.9-0.8-1.5-0.3
					c0.2,0.1,0.4,0.2,0.6,0.3c0.1-1.6-0.4-3.1-1.4-4.3c-0.6-0.7-1.8-1.8-2.7-1.2c-1,0.7-0.3,2.1,0.3,2.9c1,1.4,2.3,2.2,3.9,2.7
					C274.6,573.4,274.8,572.7,274.4,572.6L274.4,572.6z"/>
			</g>
		</g>
		<g>
			<g>
				<path class="st8" d="M260.3,579.5c1.3,0.1,2.4,0.8,2.9,2c0.2,0.4,0.9,0.1,0.6-0.4c-0.7-1.4-2-2.3-3.6-2.4
					C259.8,578.7,259.8,579.5,260.3,579.5L260.3,579.5z"/>
			</g>
		</g>
		<g>
			<g>
				<path class="st8" d="M263.4,577.9c1.2,0.2,2.2,0.8,2.7,1.9c0.2,0.4,0.9,0,0.6-0.4c-0.7-1.2-1.8-2-3.2-2.2
					C263.1,577.1,262.9,577.8,263.4,577.9L263.4,577.9z"/>
			</g>
		</g>
		<g>
			<g>
				<path class="st8" d="M266.1,575.9c1.6,0.4,3,1.3,3.8,2.8c0.2,0.4,0.9,0,0.6-0.4c-0.9-1.6-2.4-2.7-4.2-3.1
					C265.9,575.1,265.7,575.8,266.1,575.9L266.1,575.9z"/>
			</g>
		</g>
		<g>
			<g>
				<path class="st8" d="M270.8,586.5c7.3-0.5,14.3-3.3,21.3-5.4c0.5-0.1,0.3-0.9-0.2-0.7c-6.9,2.1-13.9,4.8-21.1,5.3
					C270.3,585.8,270.3,586.5,270.8,586.5L270.8,586.5z"/>
			</g>
		</g>
		<path class="st9" d="M305,316.3c-1.7,4.6-4.2,11.3-7,19.2c-4.2,11.6-12.7,36.1-22.7,68c-2.7,8.6-6.1,19.9-10,33.3
			c-0.2,2.9-0.5,7.3-0.2,12.6c0.3,7.1,1.2,12.3,1.5,14.2c1,5.9,0.2,3.1,3.8,34.9c3.5,31.4,7.6,63.5,8.5,71c0.7,0.6,3.1,2.9,7,3.2
			c3.2,0.2,5.6-1,6.5-1.5c1.8-25.2,4.3-51.4,7.6-78.5c2.4-19.9,5.1-39.2,8.1-57.9c7.1-10.8,14.3-21.6,21.5-32.4
			c13.3-20,26.6-40,40-59.9c0.9-1.7,15.3-29.7,5.7-38.8c-3.2-3-8.3-3.2-21.6-0.8C341.4,305.1,324.7,308.9,305,316.3z"/>
		<g>
			<path class="st10" d="M305,316.3c-14.3,38.6-27.2,77.7-38.6,117.2"/>
		</g>
		<g>
			<path class="st10" d="M364.7,349.4c-18.9,28.5-37.8,57-56.6,85.4"/>
		</g>
		<g>
			<path class="st10" d="M307.3,436.3c-6.3,43.9-11.2,88-14.6,132.2"/>
		</g>
		<g>
			<path class="st10" d="M264.4,441.7c4.3,42.7,9.2,85.3,14.6,127.8"/>
		</g>
		<g>
			<path class="st10" d="M280.1,570.5c4,3.1,10.2,2.9,14-0.5"/>
		</g>
	</g>
	<g id="leg_left">
		<path class="st7" d="M492.6,533.1c-0.1,3-0.3,7-0.3,11.8c-0.2,19-0.4,35.9,2.9,36.7c2.6,0.7,8.6-8.5,22.9-48.1c-5-3-10-6-15-9
			C499.6,527.4,496.1,530.3,492.6,533.1z"/>
		<g>
			<g>
				<path class="st8" d="M496.3,537c-1.8,0.2-3.1,1.2-4.3,2.6c-0.7,0.9-2.4,2.8-1.7,4.1c0.6,1.1,1.8,0.4,2.6-0.2
					c1.6-1.4,2.7-3.2,3.3-5.3c-0.2,0-0.5,0-0.7,0c0.5,1.5,0.7,4,2.5,4.6c1,0.4,2-0.1,2.5-0.9c1.6-2.5-1-5.8-3.7-5.2
					c-0.5,0.1-0.3,0.8,0.2,0.7c1.2-0.2,2.1,0.2,2.7,1.2c1,1.4,0.2,2.3-2.4,2.5c-0.6-0.7-0.7-2.3-1-3.2c-0.1-0.3-0.6-0.4-0.7,0
					c-0.3,0.9-0.6,1.9-1.2,2.7c-0.3,0.5-0.7,1-1.1,1.4c-0.6,0.6-0.7,1-1.4,0.4c-0.7-0.6-0.5-0.6,0-1.2c0.3-0.4,0.5-0.8,0.8-1.2
					c1-1.2,2.1-2.1,3.6-2.3C496.8,537.7,496.8,536.9,496.3,537L496.3,537z"/>
			</g>
		</g>
		<g>
			<g>
				<path class="st8" d="M492.7,548.4c1.5-0.7,3.1-0.9,4.8-0.6c0.5,0.1,0.7-0.6,0.2-0.7c-1.9-0.3-3.6-0.1-5.4,0.7
					C491.9,547.9,492.3,548.6,492.7,548.4L492.7,548.4z"/>
			</g>
		</g>
		<g>
			<g>
				<path class="st8" d="M493,551.5c1.1-0.7,2.3-0.9,3.5-0.6c0.5,0.1,0.7-0.6,0.2-0.7c-1.4-0.3-2.9-0.1-4.1,0.7
					C492.2,551.1,492.6,551.7,493,551.5L493,551.5z"/>
			</g>
		</g>
		<g>
			<g>
				<path class="st8" d="M493,555.1c0.9-0.7,2-0.9,3.1-0.5c0.5,0.2,0.7-0.6,0.2-0.7c-1.3-0.4-2.7-0.2-3.8,0.7
					C492.1,554.9,492.6,555.4,493,555.1L493,555.1z"/>
			</g>
		</g>
		<g>
			<g>
				<path class="st8" d="M514.5,533.7c-4.2,11.1-8.3,22.2-12.5,33.3c-0.2,0.5,0.6,0.6,0.7,0.2c4.2-11.1,8.3-22.2,12.5-33.3
					C515.4,533.5,514.7,533.3,514.5,533.7L514.5,533.7z"/>
			</g>
		</g>
		<path class="st9" d="M330.9,316.7c-0.3,0.4-1.7,3-0.9,6.1c0.6,2.1,2,3.4,2.6,3.8c1.5-0.1,4,0.1,6.3,1.7c2.2,1.7,3,4,3.4,5.5
			c3.2,10.5,4.9,15.8,5,16.3c1.2,5.4,3.1,10.5,4.6,15.8c4.8,17.1,10.8,38,19.4,61.1c1.7,4.5,4.4,11.5,8,20.2c2.1,1.8,5.2,4.5,9,7.8
			c16.5,14.3,35.3,30.2,43.7,37c12.1,9.8,32,24.6,62.6,42.3c0.9,0,3-0.1,5.1-1.5c3.7-2.4,4-6.7,4-7.3c-3.6-5-7.3-10-10.9-15
			c-21.1-28.9-42.3-57.8-63.4-86.7c-3-10.2-5.5-19.3-7.6-26.8c-4.6-17-11.9-43.7-19.2-78.2c-2.2-10.4-4-19.5-5.3-26.8
			c-4.4,0.7-9,1.6-13.7,2.7C362.5,300.1,344.8,308.3,330.9,316.7z"/>
		<g>
			<g>
				<path class="st8" d="M332.8,327c8.5-1.4,10.4,10.4,12.1,16.1c1.4,4.8,2.8,9.6,4.2,14.4c3,10.2,5.8,20.4,8.9,30.6
					c5.8,19.4,12.2,38.7,20.4,57.2c0.2,0.4,0.8,0.1,0.6-0.4c-10-22.5-17.2-46-24.1-69.6c-3.3-11.4-6.5-22.8-10-34.2
					c-1.9-6.1-4-16.3-12.5-14.9C332.1,326.3,332.3,327,332.8,327L332.8,327z"/>
			</g>
		</g>
		<g>
			<path class="st10" d="M398.1,294.9c7.6,42.4,17.9,84.3,30.7,125.4"/>
		</g>
		<g>
			<path class="st10" d="M429.5,424c24.8,33.9,49.6,67.8,74.4,101.6"/>
		</g>
		<g>
			<path class="st10" d="M382.1,449.2c34.1,32.4,71.7,61.1,112,85.3"/>
		</g>
		<g>
			<path class="st10" d="M494.7,534.4c4.6,0.4,9-3.8,8.8-8.4"/>
		</g>
	</g>
	<g id="Layer_14">
		<path class="st11" d="M155.4,291.5c-1,0.4-2.3,1-3.9,1.8c-2.3,1.2-4.7,2.6-7.1,4.4c-3.2,2.5-3.8,3.7-4,4.5
			c-0.1,0.3-0.7,2.4,0.3,3.3c0.6,0.5,1.7,0.5,6.2-1.2c2.5-0.9,4.5-1.8,5.9-2.5c1.7,1.1,3.4,2.2,5.1,3.4c1.9-1.5,3.7-3.1,5.6-4.6
			c-0.5-1.4-1.5-3.5-3.5-5.7C158.3,293.2,156.6,292.1,155.4,291.5z"/>
		<path class="st12" d="M279.3,178.2c-10.7-13.9-29.9-11.6-30.8-11.5c-0.7,0.4-1.4,0.8-2.1,1.1c-0.6,1.5-1.5,3.6-2.5,6
			c-4.5,10.7-8.8,19.9-12.8,28c-8.8,18.1-13.2,27.1-17.7,33.2c-2.8,3.8-5.2,6.4-7.2,8.3c-5.3,5.1-9.1,9.1-11,10.9
			c-7.8,7.2-22.2,20.4-40.3,37c0.9,0.3,3.2,1.1,5,3.3c2.6,3.3,2.2,7.1,2.1,7.8c24.1-10.7,42-19.1,49.1-22.7c3.6-1.8,7.8-4.3,9.8-5.2
			c2.5-1.3,5.6-3,9.4-5.6c1.2-0.9,3.1-2.2,5.3-4c6.8-5.5,10.7-10.2,18.7-19.6c2.4-2.8,6.6-7.7,12.1-14.1
			c2.5-1.6,15.5-10.5,18.2-27.2C285.2,200.3,287.1,188.4,279.3,178.2z"/>
		<path class="st13" d="M145.9,296.6c-12.1-7.5-24.9-16.5-37.8-27.3c-4.4-3.7-8.6-7.4-12.6-11.1c-12.7,10.9-22.5,20.3-29.5,27.4
			c-7.3,7.3-11.5,12-15.1,16.2c-5.3,6.3-9.4,11.9-12.4,16.1c1.2,1.4,2.9,3.5,5.1,6c2.9,3.3,15.8,17.9,37.2,34.9
			c14.7,11.7,27.1,19.5,32.9,23c16.1,9.8,31,16.9,43.3,22c0.9-1.3,2.3-3.2,3.9-5.5c3.6-5.2,8.4-12.5,15.1-24
			c11-18.9,22.4-41,24.5-45.1c-3.2-1.6-6.4-3.2-9.6-4.9c-13.7-7.2-26.3-14.7-38-22.4c-4.4,4-9,5-10.9,3.3c-1.1-1-1.3-2.8-1-4.2
			C141.3,298.8,143.3,297,145.9,296.6z"/>
		<g>
			<g>
				<path class="st2" d="M246.1,167.8c-9.8,24-21.3,47.2-34.3,69.6c-0.2,0.4,0.4,0.8,0.6,0.4c13.1-22.4,24.6-45.8,34.4-69.8
					C247,167.5,246.2,167.4,246.1,167.8L246.1,167.8z"/>
			</g>
		</g>
		<g>
			<path class="st10" d="M156.2,290.9c17.4-15.3,34.2-31.3,50.4-47.9"/>
		</g>
		<g>
			<g>
				<path class="st2" d="M155.3,291.9c3.5,1.1,5.9,4.1,6.2,7.7c0,0.5,0.8,0.5,0.8,0c-0.3-4-3-7.3-6.8-8.5
					C155,291,154.8,291.7,155.3,291.9L155.3,291.9z"/>
			</g>
		</g>
		<g>
			<path class="st10" d="M165.3,300.5c21.7-8.6,42.8-18.6,63.2-29.9"/>
		</g>
		<g>
			<path class="st10" d="M232.1,268.2c15.9-15.3,30.6-31.8,44-49.2"/>
		</g>
		<g>
			<g>
				<path class="st2" d="M154.8,291.1c-4.1,2.1-8.3,4.3-12,7.2c-2.3,1.9-4,4.4-2.6,7.4c0.2,0.4,0.9,0.1,0.6-0.4
					c-2.1-4.4,3.6-7.4,6.6-9.3c2.5-1.6,5.1-3,7.7-4.3C155.6,291.5,155.2,290.9,154.8,291.1L154.8,291.1z"/>
			</g>
		</g>
		<g>
			<g>
				<path class="st2" d="M143.9,305.4c4.5-1,8.6-2.7,12.3-5.3c0.4-0.3,0-0.9-0.4-0.6c-3.7,2.5-7.8,4.3-12.2,5.2
					C143.2,304.8,143.4,305.5,143.9,305.4L143.9,305.4z"/>
			</g>
		</g>
		<g>
			<path class="st10" d="M152.7,301.8c15,10.1,30.8,19.2,47.1,27"/>
		</g>
		<g>
			<path class="st10" d="M95.8,258.6c15.5,14.2,32.2,26.9,50,38"/>
		</g>
		<g>
			<path class="st10" d="M38.4,317.9c15.6-22.7,36.4-41.3,57-59.7"/>
		</g>
		<g>
			<path class="st10" d="M38.5,318.2c32.1,37.2,73,66.8,118.4,85.5"/>
		</g>
		<g>
			<path class="st10" d="M157.1,403.7c16.1-23.8,30.6-48.7,43.2-74.6"/>
		</g>
		<g>
			<g>
				<path class="st2" d="M62.7,297.3c4-3.7,8-7.4,12-11.1c0.4-0.3-0.2-0.9-0.5-0.5c-4,3.7-8,7.4-12,11.1
					C61.8,297.1,62.3,297.6,62.7,297.3L62.7,297.3z"/>
			</g>
		</g>
		<g>
			<g>
				<path class="st7" d="M58.8,327.1c9.9-10.5,19.7-21.1,29.6-31.6c1.3-1.4-0.8-3.5-2.1-2.1c-9.9,10.5-19.7,21.1-29.6,31.6
					C55.3,326.4,57.4,328.5,58.8,327.1L58.8,327.1z"/>
			</g>
		</g>
		<g>
			<g>
				<path class="st7" d="M69.5,338.6c4.4-4.7,8.7-9.5,13-14.4c1.3-1.4-0.8-3.6-2.1-2.1c-4.2,4.9-8.6,9.7-13,14.4
					C66,337.9,68.2,340.1,69.5,338.6L69.5,338.6z"/>
			</g>
		</g>
		<g>
			<g>
				<path class="st4" d="M88.2,355.1c8.8-9.9,17.4-20.1,25.6-30.6c1.2-1.5-0.9-3.6-2.1-2.1c-8.2,10.4-16.7,20.6-25.6,30.6
					C84.8,354.4,86.9,356.6,88.2,355.1L88.2,355.1z"/>
			</g>
		</g>
		<g>
			<g>
				<path class="st7" d="M107.7,367.8c3-3.6,6-7.2,9-10.8c1.2-1.5-0.9-3.6-2.1-2.1c-3,3.6-6,7.2-9,10.8
					C104.4,367.2,106.5,369.3,107.7,367.8L107.7,367.8z"/>
			</g>
		</g>
		<g>
			<g>
				<path class="st7" d="M118,369.4c6.4-8.3,12.7-16.6,19.1-25c1.2-1.5-1.4-3-2.6-1.5c-6.4,8.3-12.7,16.6-19.1,25
					C114.2,369.4,116.8,370.9,118,369.4L118,369.4z"/>
			</g>
		</g>
		<g>
			<g>
				<path class="st4" d="M141.1,384.8c7.3-11,14.3-22.2,21.1-33.5c1-1.7-1.6-3.2-2.6-1.5c-6.8,11.3-13.9,22.5-21.1,33.5
					C137.4,384.9,140,386.4,141.1,384.8L141.1,384.8z"/>
			</g>
		</g>
		<g>
			<g>
				<path class="st2" d="M62.2,299.2c4.4-4.8,9.2-9.2,14.4-13.1c1.5-1.2,0-3.8-1.5-2.6c-5.4,4.1-10.4,8.6-15,13.6
					C58.7,298.5,60.9,300.6,62.2,299.2L62.2,299.2z"/>
			</g>
		</g>
		<g>
			<g>
				<path class="st2" d="M91.1,282.7c1.7,0.7,4.1,2.3,5.9,2.4c0.7,0,1,0,1.3-0.8c0.3-1-0.8-2.4-1.2-3.2c-1.3-2.7-1.7-5.6-1.5-8.5
					c0-0.5-0.7-0.5-0.8,0c-0.2,2.8,0.2,5.5,1.2,8.1c0.2,0.4,0.4,0.8,0.6,1.2c0.3,0.6,0.9,1.9-0.4,2.1c-0.4,0.1-2-0.9-2.4-1
					c-0.8-0.3-1.6-0.7-2.4-1C91,281.9,90.7,282.5,91.1,282.7L91.1,282.7z"/>
			</g>
		</g>
		<g>
			<g>
				<path class="st2" d="M106.8,293.2c1.3,0.6,5.6,2.2,6.2,0c0.4-1.4-1-3.6-1.5-4.9c-0.8-2.3-1.5-4.4-1.3-6.9c0-0.5-0.7-0.5-0.8,0
					c-0.2,2.4,0.4,4.5,1.2,6.7c0.4,1,1.2,2.4,1.3,3.4c0.1,0.3,0.2,0.5,0.2,0.8c-0.4,0.4-0.8,0.7-1.2,1.1c-0.9,0.3-3-0.5-3.8-0.9
					C106.8,292.3,106.4,293,106.8,293.2L106.8,293.2z"/>
			</g>
		</g>
		<g>
			<g>
				<path class="st2" d="M122.5,306.7c1.8,1.3,3.8,1.6,6,1.2c0.2,0,0.3-0.3,0.3-0.5c-0.9-3.2-1.7-6.5-2.6-9.7
					c-0.1-0.5-0.8-0.3-0.7,0.2c0.6,2.4,1.2,4.7,1.9,7.1c0.3,1.2,0.9,2.2-0.7,2.4c-1.3,0.1-2.7-0.6-3.7-1.3
					C122.5,305.7,122.1,306.4,122.5,306.7L122.5,306.7z"/>
			</g>
		</g>
		<g>
			<g>
				<path class="st2" d="M142.5,314.7c3.1,1.5,6.7,0.2,9.7,1.8c0.4,0.2,0.8-0.4,0.4-0.6c-3.1-1.6-6.6-0.3-9.7-1.8
					C142.4,313.9,142.1,314.5,142.5,314.7L142.5,314.7z"/>
			</g>
		</g>
		<g>
			<g>
				<path class="st2" d="M148.6,309.5c-0.8,4.1-1.1,8.2-1,12.4c0,0.5,0.8,0.5,0.8,0c-0.1-4.1,0.2-8.2,1-12.2
					C149.4,309.2,148.7,309,148.6,309.5L148.6,309.5z"/>
			</g>
		</g>
		<g>
			<g>
				<path class="st2" d="M158.8,324.3c1.7,1,3.9,0.7,5.8,0.6c2.6-0.1,5.3-0.4,7.9-0.8c0.5-0.1,0.3-0.8-0.2-0.7
					c-2.2,0.3-4.5,0.6-6.7,0.7c-1.9,0.1-4.7,0.6-6.4-0.4C158.8,323.4,158.4,324,158.8,324.3L158.8,324.3z"/>
			</g>
		</g>
		<g>
			<g>
				<path class="st2" d="M164.9,317.4c0.1,5.4,0.4,10.8,0.7,16.3c0,0.5,0.8,0.5,0.8,0c-0.3-5.4-0.6-10.8-0.7-16.3
					C165.6,316.9,164.9,316.9,164.9,317.4L164.9,317.4z"/>
			</g>
		</g>
	</g>
	<g id="torso">
		<path class="st12" d="M248.5,166.8c-0.1,1.8-0.1,4.5,0.4,7.6c0.8,6.2,2.8,10.7,3.6,12.7c2.5,5.8,1.3,4.9,6.6,21.8
			c7.4,23.7,14.8,43.4,14.8,43.4c7,18.3,12,31.3,21.1,47.6c3.9,7,7.5,12.7,10,16.4c2.9,0.2,7,0.5,11.9,0.6
			c7.9,0.1,18.5,0.2,31.7-2.5c15.7-3.2,27.7-8.9,34.9-12.9c5.1-2.8,9.2-5.6,12.2-7.7c-0.9-5.5-2.2-14.4-3.5-25.4
			c-3.5-29.4-3.1-42.4-5.9-67.6c-1-9.1-2.8-22.8-6-39.6c-2.6-1.4-6.3-3.1-10.9-5c-5.2-2.1-24.3-9.3-50.4-9.1
			c-20.6,0.1-36.3,4.8-43.2,7.1C264.2,158,255.1,162.8,248.5,166.8z"/>
		<g>
			<path class="st10" d="M248.5,166.8c37.4-22.9,86.2-26.1,126.3-8.3"/>
		</g>
		<g>
			<g>
				<path class="st8" d="M248.6,174.5c13.9,48.8,29.4,97.7,55.1,141.8c0.2,0.4,0.9,0,0.6-0.4c-25.7-44-41.2-92.8-55.1-141.6
					C249.1,173.8,248.4,174,248.6,174.5L248.6,174.5z"/>
			</g>
		</g>
		<g>
			<g>
				<path class="st2" d="M306.6,316.3c31.4,4.1,63.5-3.9,89.4-22.2c0.4-0.3,0-0.9-0.4-0.6c-25.8,18.2-57.7,26.2-89,22.1
					C306.1,315.5,306.1,316.2,306.6,316.3L306.6,316.3z"/>
			</g>
		</g>
		<g>
			<path class="st10" d="M382.6,174.8c2.6,12.7,3.8,25.7,4.9,38.7c2.3,26,4.5,52.1,6.8,78.1"/>
		</g>
	</g>
	<g id="hand_left">
		<path class="st11" d="M387.5,347.6c-0.6,0.8-1.6,1.9-2.9,3.2c-0.8,0.7-1.3,1.2-3.7,3.2c-2,1.7-3.9,3.6-5.9,5.3
			c-0.5,0.4-1.6,1.3-2.4,2.8c-0.2,0.5-1.1,2-0.6,2.6c0.4,0.4,1.5,0,4-1.1c2.2-0.9,3.9-1.6,4.9-2c-0.3,0.5-0.7,1.2-1.2,1.9
			c-0.3,0.5-1.3,2.2-2.7,4.2c-3.5,5.2-7,9.2-8,10.3c-0.9,1.1-1.7,1.9-2.3,2.5c0.4,0.5,1,1.2,1.8,2.1c2.5,2.7,4.1,4.4,6.6,5.5
			c0.8,0.3,2.1,0.8,3.8,0.9c1.4-0.5,3.3-1.3,5.3-2.8c0.9-0.6,3.4-2.5,6-6.1c1.7-2.5,2.6-4.5,4.9-11c1.3-3.5,2.6-7.4,4.1-11.5
			c0.4-1.1,1.4-4.3,0.2-7.9c-0.5-1.5-1.7-5.1-4.8-5.8C392.2,343,389.2,344.6,387.5,347.6z"/>
		<path class="st12" d="M377.2,160.2c-2.8,0.5-5.2,1.3-7.2,2.3c-17,7.8-21.1,29.3-21.9,33.7c14.3,19,28.6,38.1,42.9,57.3
			c1.5,2,3,4.1,4.5,6.1c-1.2,11.8-2.3,23.5-3.5,35.3c-1.7,17.5-3.4,35-5.1,52.5c1.3,0.3,3,0.9,4.8,2c1.5,0.9,3.9,2.3,5.9,5.2
			c1.1,1.7,1.7,3.4,2,4.8c1.9-4,3.7-8.1,5.5-12.2c5.4-12.1,9.8-22.9,13.3-32c6.2-15.9,4.4-13,11.6-32c2.2-5.9,3.8-12,5.8-17.9
			c1.3-4,2.5-7.3,2.4-11.8c-0.1-4.4-1.3-7.7-2.2-10.1c-4.2-10.5-9.6-19.1-11.8-22.6c-8.7-13.6-13-20.4-15-23.2
			c-6.6-9.3-12.9-16.8-17.8-22.4C386.1,169.2,381.2,164.2,377.2,160.2z"/>
		<g>
			<path class="st10" d="M377.2,160.2c24.4,23.9,44.4,52.3,58.9,83.2"/>
		</g>
		<g>
			<g>
				<path class="st8" d="M347.8,196.5c16.6,20.4,32.3,41.6,47,63.4c0.3,0.4,0.9,0,0.6-0.4c-14.7-21.9-30.5-43.1-47.1-63.6
					C348,195.6,347.5,196.1,347.8,196.5L347.8,196.5z"/>
			</g>
		</g>
		<g>
			<path class="st10" d="M395.5,259.7c-2.9,29.2-5.7,58.5-8.6,87.7"/>
		</g>
		<g>
			<path class="st10" d="M437.7,249.7c0.9,6.7-1.1,13.5-3.1,20c-9.7,30.6-21.4,60.6-35,89.7"/>
		</g>
		<g>
			<g>
				<path class="st2" d="M388,348.6c2.5,0.5,4.8,1.5,6.7,3.2c1.7,1.5,4.4,4.4,4.1,6.9c-0.1,0.5,0.7,0.5,0.8,0c0.3-2.5-2.1-5.4-3.8-7
					c-2.1-2-4.7-3.2-7.5-3.8C387.8,347.8,387.6,348.6,388,348.6L388,348.6z"/>
			</g>
		</g>
		<g>
			<g>
				<path class="st2" d="M386.7,348.4c-3.9,3.4-7.8,6.8-11.6,10.3c-1.3,1.3-4.5,4-3.3,6.1c0.1,0.1,0.2,0.2,0.3,0.2
					c2.1,0,4.2-1.1,6-2c0.4-0.2,0.1-0.9-0.4-0.6c-0.4,0.2-2.7,1.4-3.5,1.4c-2.1-0.1-1.3-1.6-0.4-2.7c1.1-1.4,2.6-2.5,3.9-3.7
					c3.2-2.8,6.3-5.6,9.5-8.4C387.6,348.6,387,348.1,386.7,348.4L386.7,348.4z"/>
			</g>
		</g>
		<g>
			<path class="st10" d="M381.6,360.5c-4.1,7.2-9,13.9-14.6,19.9"/>
		</g>
		<g>
			<g>
				<path class="st2" d="M368.7,381.9c6.1-0.6,11.6-6.4,14.8-11.1c0.3-0.4-0.4-0.8-0.6-0.4c-3.1,4.5-8.4,10.2-14.2,10.7
					C368.2,381.2,368.2,382,368.7,381.9L368.7,381.9z"/>
			</g>
		</g>
		<g>
			<g>
				<path class="st2" d="M371.1,384.3c6-1.5,11.2-4.9,15.1-9.8c0.3-0.4-0.2-0.9-0.5-0.5c-3.8,4.8-8.8,8.1-14.8,9.6
					C370.4,383.7,370.6,384.4,371.1,384.3L371.1,384.3z"/>
			</g>
		</g>
		<g>
			<g>
				<path class="st2" d="M373.1,386.5c2.4,0.6,4.4-0.8,6.4-2c2.2-1.3,4.1-2.8,5.6-4.9c0.3-0.4-0.4-0.8-0.6-0.4
					c-1.3,1.8-2.9,3.1-4.7,4.2c-1.9,1.2-4.1,2.8-6.5,2.3C372.9,385.7,372.7,386.4,373.1,386.5L373.1,386.5z"/>
			</g>
		</g>
		<g>
			<path class="st10" d="M377.7,388.8c2,0.1,3.9-0.8,5.5-2c4.9-3.5,7.9-9,10.4-14.4c2.1-4.6,3.9-9.3,5.5-14"/>
		</g>
	</g>
	<g id="head">
		<path class="st4" d="M275.9,142.4c-0.7-0.1-2.5-0.4-4.3-1.7c-3.5-2.5-4.2-6.8-4.3-7.6c-0.2-1-0.9-5.8,2.3-9.7
			c2.6-3.2,6.3-3.8,7.2-4c4.5-0.7,7.9,1.6,12.5,4.6c4.2,2.8,7.2,5.7,13.2,11.7c1.7,1.7,3,3.1,4,4c0.1,1.5,0.1,4.2-1.2,7.3
			c-0.8,2-2.5,5.8-5.6,6.9C293.2,156.3,286.5,144.2,275.9,142.4z"/>
		<path class="st11" d="M274.9,141.3c-0.7,2-0.5,3.7-0.1,6.1c0.4,2.7,0.7,5.3,2.5,8.2c0.7,1.2,3.3,5.3,7.6,6.3
			c2.3,0.6,6,0.4,6.6,0.4c0.6,0,1,0,1.3-0.1c0.4,0.4,0.7,0.9,1.1,1.3c-1.2,0.1-2,0.9-2.1,1.6c-0.1,0.9,0.9,1.6,1,1.6
			c1.5,1,3.9,0,4.6-0.4c3.4-1.6,4.8-5,5.3-6.4c-0.5-0.8-1-1.6-1.5-2.4c0.4-0.4,0.9-1,1.5-1.7c0.5-0.6,1.5-2.1,2.2-4.2
			c0.6-1.8,1-2.9,0.6-4.2c-0.3-1.2-1-2-1.6-2.7c-3.9-4.2-5.9-6.3-6.2-6.5c-1.9-1.4-4.7-3.4-8.9-4c-1.8-0.2-5.6-0.8-9.2,1.5
			C278.6,136.3,276,138.1,274.9,141.3z"/>
		<g>
			<path class="st10" d="M274.6,141.8c-0.1,3.6,0.1,7.2,1.2,10.6s3.2,6.6,6.3,8.4c3.3,2,7.5,2.2,11.2,1.2c3.4-0.9,6.6-2.8,8.9-5.6
				c2.2-2.8,3.4-6.4,3-10"/>
		</g>
		<g>
			<path class="st10" d="M274.2,141.9c-2.5-0.4-4.4-2.5-5.6-4.7c-1.5-3-2-6.7-1-9.9c1-3.3,3.5-6.1,6.7-7.2c3.1-1.1,6.7-0.6,9.7,0.8
				c3,1.4,5.7,3.5,8.2,5.6c4.8,4.1,9.4,8.4,13.9,12.8"/>
		</g>
		<g>
			<path class="st10" d="M274.9,141.3c0.2-1.6,1.2-3,2.4-4c4.2-3.7,10.7-3.9,15.8-1.6s9,6.7,12.1,11.4c0.7-2.6,1.2-5.2,1.3-7.9"/>
		</g>
		<g>
			<g>
				<path class="st2" d="M292.7,162.8c0.4,0.6,0.9,1.1,1.3,1.7c0.3,0.4,0.9,0,0.6-0.4c-0.4-0.6-0.9-1.1-1.3-1.7
					C293,162,292.4,162.4,292.7,162.8L292.7,162.8z"/>
			</g>
		</g>
		<g>
			<path class="st10" d="M291.8,165c-0.4,1.1,0.7,2.3,1.8,2.6c1.2,0.2,2.3-0.3,3.3-0.9c2.5-1.5,4.5-3.9,5.6-6.6"/>
		</g>
		<g>
			<g>
				<path class="st2" d="M284.6,143.1c-1.4,3.4-3.1,9.3,1.2,11.3c0.4,0.2,0.8-0.4,0.4-0.6c-4-1.8-2.2-7.3-0.9-10.4
					C285.5,142.9,284.8,142.7,284.6,143.1L284.6,143.1z"/>
			</g>
		</g>
		<ellipse class="st2" cx="280.2" cy="144.8" rx="0.9" ry="1.6"/>
		<ellipse class="st2" cx="290.7" cy="144.8" rx="0.9" ry="1.6"/>
	</g>
</g>
</svg>
